<svg width="50" height="50" viewBox="0 0 50 50" fill="none" xmlns="http://www.w3.org/2000/svg">
<circle cx="32" cy="33" r="16" fill="#DF5F3D" fill-opacity="0.15"/>
<path fill-rule="evenodd" clip-rule="evenodd" d="M4.23218 19.7493C5.84491 9.56689 15.4067 2.61981 25.5891 4.23255C27.5128 4.53722 29.3245 5.12684 30.9858 5.95286C31.9748 6.44464 32.378 7.64509 31.8862 8.63414C31.3944 9.6232 30.194 10.0263 29.2049 9.53455C27.9035 8.88746 26.4809 8.42365 24.9634 8.1833C16.9629 6.91615 9.45008 12.3746 8.18293 20.375C6.9158 28.3754 12.3742 35.8883 20.3747 37.1555C28.375 38.4226 35.888 32.9641 37.1551 24.9638C37.3279 23.8728 38.3524 23.1285 39.4434 23.3013C40.5343 23.4741 41.2787 24.4985 41.1059 25.5895C39.4932 35.7718 29.9312 42.719 19.7489 41.1062C9.56651 39.4935 2.61946 29.9316 4.23218 19.7493ZM43.9602 5.14175C44.8037 5.8549 44.9094 7.11681 44.1962 7.96031L25.5961 29.9603C25.2303 30.393 24.6982 30.6502 24.1319 30.668C23.5656 30.6859 23.0184 30.4628 22.626 30.0541L14.2261 21.3041C13.4612 20.5073 13.487 19.2412 14.2839 18.4763C15.0807 17.7113 16.3468 17.7372 17.1117 18.534L23.9745 25.6828L41.1416 5.37778C41.8548 4.53427 43.1167 4.4286 43.9602 5.14175Z" fill="url(#paint0_linear_63_5790)"/>
<defs>
<linearGradient id="paint0_linear_63_5790" x1="5.99993" y1="22.6694" x2="42.6689" y2="22.6694" gradientUnits="userSpaceOnUse">
<stop stop-color="#E6846A"/>
<stop offset="1" stop-color="#AC2400"/>
</linearGradient>
</defs>
</svg>
