<svg width="100" height="100" viewBox="0 0 100 100" fill="none" xmlns="http://www.w3.org/2000/svg">
<path fill-rule="evenodd" clip-rule="evenodd" d="M56.1698 44.3574C55.2618 43.4585 54.1673 42.7693 52.964 42.3387C50.7105 41.6331 48.3885 41.1688 46.0373 40.9533C45.206 40.9533 44.3352 40.7554 43.504 40.7159H42.831C44.7342 39.1018 46.1968 37.0318 47.0827 34.6991C47.9686 32.3665 48.2492 29.8474 47.8977 27.377C47.2703 23.2884 45.0679 19.6075 41.7612 17.1221C38.4547 14.6366 34.3067 13.5439 30.2048 14.0778C26.3661 14.0845 22.6699 15.5322 19.8478 18.1344C17.0257 20.7366 15.2835 24.3035 14.9661 28.1291C14.8981 29.8222 15.1793 31.5112 15.7921 33.091C16.405 34.6708 17.3364 36.1075 18.5284 37.3119C14.6497 42.9752 11.895 49.3311 10.4143 56.0337C9.70225 58.3113 9.4963 60.7168 9.81078 63.0827C10.1253 65.4482 10.9526 67.7163 12.235 69.7288H11.6413C10.4487 69.6266 9.29664 69.247 8.27689 68.6204V68.0663C8.01141 67.3272 7.85153 66.5546 7.80193 65.7708C7.60401 64.1083 7.60401 62.4062 7.52485 61.6146L6.45616 49.107C6.21867 45.9799 5.78328 43.0908 5.50621 40.0825C5.29385 38.0977 5.20132 36.1018 5.22914 34.1058C5.22914 33.8014 5.10821 33.5094 4.89294 33.2942C4.67768 33.0789 4.38572 32.958 4.08129 32.958C3.77686 32.958 3.4849 33.0789 3.26964 33.2942C3.05437 33.5094 2.93344 33.8014 2.93344 34.1058C2.67459 36.1279 2.52923 38.163 2.49805 40.2013V49.3445C2.49805 52.3924 2.49805 54.4108 2.69595 56.9441C2.75425 58.6803 2.91284 60.4116 3.17093 62.1292C3.32847 64.1697 3.6461 66.1944 4.12087 68.185C4.40671 69.4438 5.10291 70.5715 6.09993 71.3913C6.92148 71.8686 7.81824 72.2035 8.75185 72.3808C8.19772 74.2804 7.60401 76.3388 7.08947 78.12C6.7728 79.1888 6.5353 80.2575 6.29783 81.3655C6.06035 82.4738 5.90202 83.5821 5.7437 84.6905C5.38747 87.303 5.1104 89.9151 4.83333 92.6067C4.76985 92.7829 4.74508 92.9709 4.76072 93.1577C4.77636 93.3446 4.83204 93.5259 4.92397 93.6893C5.0159 93.8528 5.14193 93.9945 5.29349 94.105C5.44506 94.2154 5.6186 94.2918 5.80234 94.329C5.98607 94.3662 6.17568 94.3634 6.35829 94.3211C6.54088 94.2787 6.71224 94.1972 6.86064 94.0828C7.00904 93.9684 7.13099 93.8231 7.21831 93.6573C7.30559 93.491 7.35614 93.3086 7.36651 93.1213C8.15814 90.588 9.02893 88.1338 9.78098 85.6009C10.0976 84.4926 10.3747 83.4238 10.6122 82.3155C10.8675 81.2052 11.0657 80.0822 11.2059 78.9513C11.4434 76.8929 11.4829 74.9929 11.5225 72.7767H17.0639C18.6471 72.7767 19.7554 73.41 21.022 73.6871C23.0572 73.8656 25.0028 74.6058 26.6425 75.8242C27.2797 76.3768 27.8509 77.001 28.3445 77.6846C28.8986 78.4367 29.334 79.2284 29.809 80.02C30.8381 82.078 31.986 89.4797 34.3212 92.488C34.6891 93.0172 35.1585 93.4685 35.702 93.8148C36.2456 94.1612 36.8526 94.3963 37.4877 94.5067C38.3786 94.6077 39.2805 94.483 40.1106 94.1442C40.9406 93.8053 41.672 93.263 42.2373 92.5672C45.0299 88.7129 46.426 84.0219 46.1956 79.2679C46.5064 74.664 45.3565 70.0791 42.9102 66.1667C42.1011 65.1672 41.1067 64.3339 39.9813 63.7125C38.0023 62.6042 35.7461 62.2083 33.7275 61.1C33.5986 58.6743 33.5986 56.2431 33.7275 53.817C33.8418 53.4917 33.8227 53.1342 33.6744 52.8227C33.5262 52.5112 33.2606 52.2713 32.9359 52.1549C32.605 52.039 32.242 52.0572 31.9241 52.2048C31.6062 52.3529 31.3586 52.6189 31.2339 52.9462C31.2339 53.342 30.9173 58.9629 30.9173 61.2187C30.9024 61.9629 31.1713 62.6845 31.6693 63.2375C33.8463 64.6625 36.3399 65.1771 38.5168 66.4833C39.2589 66.9326 39.9046 67.5244 40.4167 68.2246C42.2294 71.5757 42.9621 75.405 42.5144 79.1888C42.668 82.8803 41.581 86.5172 39.4272 89.5192C38.9918 89.9547 38.6752 90.2713 38.3189 90.2713C37.9627 90.2713 38.121 90.2713 38.0419 89.9942C37.7153 89.5857 37.4488 89.1325 37.2502 88.6484C35.5878 85.205 34.7171 79.7034 33.8463 78.0013C33.3149 76.9927 32.7061 76.0265 32.0255 75.1117C31.3367 74.1407 30.5251 73.2624 29.6111 72.4996C28.6643 71.7107 27.5946 71.0821 26.4446 70.6392C24.4015 69.9647 22.2914 69.5134 20.1512 69.2933C18.478 69.1762 16.8661 68.6161 15.4807 67.6704C12.9079 65.5729 12.8287 61.2979 13.5807 56.7858C14.6223 50.4307 16.8945 44.34 20.27 38.8555C22.9754 40.7182 26.1352 41.8125 29.4132 42.022C29.5619 42.0442 29.7136 42.0359 29.859 41.9976C30.0044 41.9593 30.1405 41.8918 30.2589 41.7992C30.3775 41.7066 30.4759 41.5909 30.5482 41.4591C30.6205 41.3273 30.6653 41.1822 30.6798 41.0325C30.702 40.8838 30.6936 40.7321 30.6553 40.5867C30.6171 40.4413 30.5496 40.3052 30.457 40.1867C30.3644 40.0683 30.2487 39.9699 30.1169 39.8975C29.9851 39.8251 29.8399 39.7804 29.6902 39.7659C21.6553 38.4597 18.3305 33.3538 18.568 28.3665C18.968 25.5385 20.4046 22.9599 22.5988 21.1313C24.793 19.3028 27.5884 18.3548 30.4423 18.4713C33.503 17.9618 36.6416 18.6706 39.1863 20.446C41.731 22.2214 43.4798 24.9223 44.0581 27.9708C44.6032 31.1162 43.8931 34.3499 42.0798 36.9773C40.2666 39.6047 37.4951 41.4159 34.3608 42.022C34.19 42.0593 34.0283 42.1305 33.8855 42.2314C33.7427 42.3323 33.6216 42.4606 33.5294 42.6094C33.4371 42.7579 33.3757 42.9233 33.3486 43.0963C33.3216 43.2689 33.3295 43.4454 33.3719 43.6148C33.4143 43.7847 33.4903 43.9442 33.5955 44.0839C33.7007 44.2236 33.8328 44.3408 33.9841 44.4283C34.1354 44.5162 34.3027 44.5724 34.4762 44.5941C34.6497 44.6159 34.8258 44.6028 34.9941 44.5553C36.3517 44.2454 37.677 43.8084 38.9522 43.2491L42.4352 43.6845C43.401 43.7981 44.3546 43.9968 45.2852 44.2783C47.3887 44.7936 49.4415 45.4958 51.4202 46.3758C52.0678 46.5792 52.6354 46.981 53.0431 47.5237C53.0431 47.7216 53.0432 47.8799 52.6077 48.1966L51.6181 49.0674L49.4806 50.1758C47.8387 50.7426 46.1117 51.0237 44.3748 51.007C41.3667 51.007 38.2794 50.7299 35.667 50.6904C35.4953 50.6741 35.3221 50.6919 35.1574 50.7426C34.9927 50.7937 34.8396 50.8768 34.7072 50.9872C34.5747 51.0977 34.4654 51.233 34.3856 51.3858C34.3057 51.5386 34.257 51.7061 34.2421 51.8779C34.2314 52.0493 34.2546 52.2214 34.3105 52.3837C34.3665 52.5464 34.4539 52.6964 34.5679 52.8251C34.6819 52.9537 34.8202 53.0586 34.9749 53.1338C35.1295 53.209 35.2975 53.253 35.4691 53.2629C38.5564 53.6587 42.356 54.5295 45.8394 54.6483C47.5169 54.6459 49.1846 54.3922 50.7869 53.8962C51.2342 53.7731 51.6712 53.6144 52.0932 53.4212C52.7265 53.1742 53.3361 52.8694 53.914 52.5112L55.9719 50.7695C57.9115 47.6424 57.5157 45.7428 56.1698 44.3574Z" fill="#020202"/>
<path fill-rule="evenodd" clip-rule="evenodd" d="M86.0164 26.1896C85.7048 26.0489 85.3514 26.032 85.028 26.1423C84.7046 26.2526 84.4354 26.4817 84.2747 26.7833C83.6414 28.0104 83.0476 29.2771 82.4934 30.5437C81.7414 32.4042 81.0684 34.5021 80.4351 36.2437C79.8018 37.9854 79.3268 39.3708 78.8913 40.9542C78.5782 42.0584 78.3403 43.1826 78.1788 44.3187L77.9809 46.8916H74.5372C71.6476 47.2082 68.758 47.5249 65.8289 47.9999C62.8997 48.4749 62.3059 48.5145 59.4955 49.1478C56.6851 49.7812 57.7143 51.7999 58.9413 51.5228C61.2372 51.2853 62.1872 51.5228 64.483 51.5228C67.8872 51.5228 71.2913 51.2853 74.6955 51.5228H79.5643C80.0741 51.5086 80.5705 51.3578 81.0023 51.0866C81.4338 50.8151 81.7849 50.4327 82.0184 49.9791C82.2239 49.3786 82.3434 48.7524 82.3747 48.1187V45.0707C82.4325 44.0879 82.5516 43.1098 82.7309 42.1416C83.008 40.5979 83.4039 39.0542 83.7601 37.55C84.1164 36.0458 84.6705 33.5917 85.2247 31.8104C85.6205 30.5833 86.0559 29.3958 86.5309 28.2083C86.6651 28.0538 86.7601 27.8689 86.8076 27.6697C86.8547 27.4704 86.8531 27.2626 86.8025 27.0641C86.7518 26.8656 86.654 26.6823 86.5171 26.53C86.3801 26.3777 86.2083 26.2609 86.0164 26.1896Z" fill="url(#paint0_linear_67_5882)"/>
<path fill-rule="evenodd" clip-rule="evenodd" d="M96.2288 56.5482C90.8455 56.0337 85.5018 55.5982 80.1184 55.4795H73.1913C70.8955 55.4795 68.5601 55.4795 66.2643 55.8753C60.9205 56.3899 55.6163 57.3003 50.4309 58.2107C50.1661 58.2808 49.9349 58.4431 49.7794 58.6687C49.6238 58.8943 49.5542 59.1683 49.5831 59.4406C49.6116 59.7129 49.7366 59.9663 49.9357 60.1543C50.1348 60.3427 50.3945 60.4535 50.6684 60.467C56.8038 60.1503 62.8601 60.1503 68.9163 60.0316H71.608C71.2913 62.9212 70.8955 65.7712 70.8163 68.6607V74.7566C70.8163 77.3691 71.2122 79.942 71.4101 82.6732C70.1371 82.7457 68.876 82.9582 67.6497 83.3066C64.3421 84.3682 61.2475 86.0026 58.5059 88.1357C58.2573 88.3052 58.0796 88.5601 58.0064 88.8518C57.9336 89.1439 57.9704 89.4523 58.1101 89.7191C58.2732 89.9748 58.5285 90.1585 58.823 90.2321C59.1175 90.3057 59.4286 90.2637 59.6934 90.1149C62.5054 88.7916 65.4904 87.8721 68.5601 87.3837C69.805 87.1881 71.061 87.0694 72.3205 87.0274C73.5587 86.9288 74.8028 86.9288 76.0413 87.0274C79.0493 87.4292 81.9298 88.4975 84.4726 90.1545C84.7509 90.3643 85.1008 90.4553 85.4459 90.407C85.7911 90.3587 86.103 90.1755 86.3132 89.8972C86.523 89.6189 86.6141 89.2686 86.5658 88.9235C86.5175 88.5783 86.3342 88.2664 86.0559 88.0566C83.4458 85.6337 80.2776 83.8932 76.833 82.9899C75.9907 82.7647 75.1293 82.619 74.2601 82.5545C74.5768 80.0607 74.8143 77.5274 74.9726 75.0337V67.117C74.7747 64.6232 74.458 62.1691 74.1809 59.7149H77.9413L87.0851 59.2795H96.1893C96.3713 59.2803 96.5514 59.2427 96.7181 59.1698C96.8847 59.097 97.0344 58.9901 97.1575 58.8559C97.2806 58.7218 97.374 58.5634 97.4322 58.3908C97.4904 58.2183 97.5121 58.0358 97.4955 57.8545C97.4955 57.5149 97.3633 57.1883 97.127 56.9445C96.8903 56.7006 96.5681 56.5585 96.2288 56.5482Z" fill="#020202"/>
<path fill-rule="evenodd" clip-rule="evenodd" d="M67.8072 17.9174C66.9285 17.7788 66.0335 17.7788 65.1551 17.9174C64.2416 17.9782 63.345 18.1923 62.5031 18.5507C60.5761 19.4035 58.9687 20.8446 57.9114 22.6674C57.717 22.9036 57.6244 23.2073 57.6545 23.5116C57.6842 23.816 57.8334 24.0961 58.0697 24.2903C58.3056 24.4846 58.6096 24.577 58.9136 24.5473C59.218 24.5176 59.4983 24.3682 59.6926 24.132C60.9225 23.2014 62.391 22.6386 63.9281 22.5091L65.8281 22.232C66.4737 22.1924 67.1216 22.1924 67.7676 22.232C69.3332 22.0654 70.9165 22.2549 72.3989 22.7862C72.5374 22.8795 72.6942 22.9433 72.8585 22.974C73.0231 23.0046 73.1918 23.0013 73.3548 22.9642C73.5183 22.9271 73.6719 22.8571 73.8069 22.7584C73.9423 22.6597 74.0555 22.5345 74.1406 22.3903C74.2356 22.2453 74.3009 22.0827 74.3321 21.9121C74.3638 21.7416 74.361 21.5664 74.3242 21.3969C74.2874 21.2274 74.2174 21.067 74.1176 20.9249C74.0182 20.7829 73.8912 20.662 73.7447 20.5695C72.043 19.1625 69.9902 18.2456 67.8072 17.9174Z" fill="url(#paint1_linear_67_5882)"/>
<path fill-rule="evenodd" clip-rule="evenodd" d="M53.0434 15.1469C55.9342 13.055 59.2204 11.5735 62.7017 10.7928C64.935 10.1772 67.234 9.83168 69.5496 9.7636C73.3461 9.44638 77.1219 10.5777 80.1184 12.9303C80.2399 13.0535 80.3848 13.1514 80.5447 13.2182C80.7042 13.285 80.8756 13.3194 81.0486 13.3194C81.222 13.3194 81.3934 13.285 81.5529 13.2182C81.7124 13.1514 81.8573 13.0535 81.9788 12.9303C82.2068 12.6819 82.3335 12.357 82.3335 12.0198C82.3335 11.6826 82.2068 11.3577 81.9788 11.1094C79.223 8.03333 75.4345 6.07554 71.3309 5.60734C69.5948 5.40953 67.842 5.40953 66.1059 5.60734C64.4173 5.83766 62.7587 6.24906 61.158 6.83443C57.453 8.24641 54.1406 10.5269 51.4996 13.4844C51.2847 13.6997 51.1636 13.9915 51.1636 14.2959C51.1636 14.6002 51.2847 14.8921 51.4996 15.1073C51.7102 15.2969 51.9814 15.4051 52.2644 15.4123C52.5474 15.4196 52.8237 15.3255 53.0434 15.1469Z" fill="url(#paint2_linear_67_5882)"/>
<defs>
<linearGradient id="paint0_linear_67_5882" x1="59.1326" y1="38.8095" x2="85.4086" y2="38.8095" gradientUnits="userSpaceOnUse">
<stop stop-color="#E6846A"/>
<stop offset="1" stop-color="#AC2400"/>
</linearGradient>
<linearGradient id="paint1_linear_67_5882" x1="58.4706" y1="21.1831" x2="73.5325" y2="21.1831" gradientUnits="userSpaceOnUse">
<stop stop-color="#E6846A"/>
<stop offset="1" stop-color="#AC2400"/>
</linearGradient>
<linearGradient id="paint2_linear_67_5882" x1="52.6966" y1="10.4359" x2="80.8006" y2="10.4359" gradientUnits="userSpaceOnUse">
<stop stop-color="#E6846A"/>
<stop offset="1" stop-color="#AC2400"/>
</linearGradient>
</defs>
</svg>
