<svg width="100" height="100" viewBox="0 0 100 100" fill="none" xmlns="http://www.w3.org/2000/svg">
<path fill-rule="evenodd" clip-rule="evenodd" d="M96.4028 8.48389C92.9147 8.0875 89.5453 7.65149 86.1364 7.41364C83.7994 7.29441 81.4577 7.29441 79.1207 7.41364C77.345 7.38565 75.5732 7.58551 73.8486 8.00822C73.2307 8.15135 72.6603 8.45337 72.1944 8.8844C71.7289 9.31538 71.3837 9.86048 71.1929 10.4658C70.9938 11.4187 70.8743 12.3866 70.8363 13.3594C71.1533 16.655 71.1533 19.9734 70.8363 23.2689C70.7029 23.9911 70.5307 24.7056 70.3209 25.4094C70.2473 25.7189 70.0976 26.0051 69.8851 26.2418C69.528 26.4796 68.9335 26.2418 68.3785 26.2418H65.5246C61.8604 25.9286 58.1815 25.8227 54.5054 25.9247C52.6442 26.0214 50.8285 26.5363 49.1937 27.4309C48.2306 27.9706 47.5189 28.8677 47.2118 29.9281C46.9944 31.3999 46.9944 32.8958 47.2118 34.3676C47.2395 36.8027 47.1338 39.2375 46.8947 41.661C46.7862 43.0687 46.3374 44.4288 45.5869 45.625C45.3885 45.9421 44.9523 45.9025 44.5165 45.9421C43.4462 45.9421 42.2967 45.9421 41.4247 46.2196C37.6629 46.4301 33.9245 46.9471 30.2467 47.7653C28.4452 48.2708 26.7883 49.1942 25.4109 50.4605C24.6246 51.2292 24.1454 52.258 24.0632 53.3544C24.0479 54.8127 24.1406 56.2698 24.3406 57.7146C24.5997 60.3484 24.6924 62.9966 24.6181 65.6423C24.5581 67.1116 24.165 68.5485 23.4686 69.8437C23.3483 70.0131 23.187 70.1493 22.9999 70.2395C22.8127 70.3294 22.6058 70.3705 22.3983 70.3591H19.6237C16.111 70.344 12.6015 70.5692 9.11956 71.0328C7.42904 71.3257 5.82861 72.0041 4.44227 73.0147C3.83212 73.5427 3.43714 74.2762 3.3324 75.0758C3.23741 76.1707 3.23741 77.2715 3.3324 78.366L2.5 91.4863C2.5 91.8017 2.62528 92.1042 2.84829 92.327C3.0713 92.5503 3.37376 92.6753 3.68915 92.6753C4.00453 92.6753 4.30699 92.5503 4.53 92.327C4.753 92.1042 4.87829 91.8017 4.87829 91.4863L6.0278 78.4056C6.0278 77.6923 7.05838 75.7103 6.3449 75.2345C7.77598 74.389 9.40009 73.9251 11.0618 73.8867C14.0744 73.5697 17.3643 73.8867 19.7822 73.8867C21.3096 74.1013 22.8612 74.0743 24.3803 73.8076C25.299 73.4782 26.0806 72.85 26.6 72.0239C27.7512 70.1706 28.419 68.0581 28.5423 65.8798C28.7009 63.1074 28.7009 60.3282 28.5423 57.5558V53.5919C29.8255 52.5335 31.3749 51.8479 33.0214 51.61C36.0339 50.9363 39.3635 50.8967 42.0192 50.5005C43.5091 50.455 44.9931 50.2958 46.4589 50.0247C47.5423 49.7045 48.4812 49.0181 49.1145 48.0823C50.2007 46.3664 50.8914 44.4304 51.136 42.414C51.3834 39.7793 51.4761 37.1322 51.4135 34.4865V31.2758C52.926 30.5645 54.5778 30.1989 56.2494 30.2056C59.4204 30.2056 62.8689 30.4434 65.4058 30.2056H69.3697C70.2698 30.1356 71.1399 29.8501 71.9066 29.3732C72.5308 28.888 73.0327 28.2636 73.3732 27.5498C73.8862 26.3638 74.2202 25.1081 74.3639 23.8239C74.5563 22.8715 74.6493 21.9018 74.6414 20.9303C74.3014 17.7183 74.1957 14.4859 74.3244 11.2586C75.3551 12.091 78.2882 10.3865 79.1998 10.3072C81.4181 10.1894 83.6411 10.1894 85.8589 10.3072C89.2283 10.3072 92.558 10.7829 96.0065 11.1C96.1835 11.1182 96.3624 11.1014 96.5326 11.0505C96.7032 10.9996 96.8619 10.9156 97.0001 10.8034C97.1382 10.6911 97.2526 10.5528 97.3373 10.3962C97.4216 10.2397 97.4747 10.068 97.4929 9.89104C97.5111 9.71406 97.4945 9.53522 97.4434 9.36474C97.3923 9.19425 97.3084 9.03545 97.1964 8.89742C97.084 8.75939 96.9454 8.64484 96.7891 8.56029C96.6327 8.47574 96.4609 8.42281 96.284 8.40461L96.4028 8.48389Z" fill="#020202"/>
<path fill-rule="evenodd" clip-rule="evenodd" d="M91.5674 48.7163C91.6311 47.6736 91.6311 46.6279 91.5674 45.5848C91.485 44.9891 91.2681 44.4199 90.9332 43.92C90.0763 42.7934 88.8076 42.0523 87.4056 41.8589C85.3112 41.705 83.2058 41.8249 81.1427 42.2155C77.7338 42.7309 74.3249 43.4446 70.916 43.8804C69.489 43.8804 68.062 44.1974 66.635 44.2374L62.8695 44.5941C62.5227 44.4943 62.1506 44.5339 61.8324 44.7041C61.5141 44.8743 61.2746 45.1617 61.165 45.5057C61.0668 45.8473 61.1072 46.2138 61.2782 46.5257C61.4488 46.8376 61.7358 47.0692 62.0766 47.1705C62.6122 47.3514 63.1766 47.4322 63.7415 47.4084H66.5954C68.1265 47.507 69.6624 47.507 71.1934 47.4084C74.6419 47.4084 78.13 46.8931 81.5785 46.6948C82.3714 46.6948 83.5209 46.4569 84.6704 46.4173C83.9175 47.4084 83.2038 48.3992 82.3714 49.3904C79.0816 53.3539 75.3556 56.8423 72.0259 60.4492C68.6961 64.0564 66.4767 66.9104 63.7811 70.1605C61.0858 73.4111 58.5885 76.8196 55.8537 80.0702L51.6915 84.8665C51.5554 84.9687 51.4425 85.0989 51.361 85.2485C51.2795 85.3981 51.2308 85.5636 51.2189 85.7334C51.2066 85.9032 51.2312 86.0738 51.2909 86.2334C51.3503 86.3933 51.4437 86.5381 51.5641 86.6585C51.6848 86.7788 51.8297 86.8722 51.9892 86.9316C52.1487 86.9914 52.3193 87.0159 52.4891 87.0036C52.6593 86.9918 52.8248 86.9435 52.974 86.8619C53.1236 86.7804 53.2543 86.6676 53.3564 86.531C58.1511 82.258 62.7285 77.7467 67.0712 73.0145C69.9252 69.8831 72.5808 66.5933 75.3556 63.3427C78.13 60.0925 80.9048 56.644 83.5605 53.1559C88.4759 46.6948 86.9694 47.3289 87.0489 48.9542L88.1585 58.3485L89.5458 67.4653C89.5724 67.7804 89.7228 68.0725 89.9642 68.2772C90.2061 68.4814 90.5188 68.5816 90.8343 68.5554C91.1498 68.5289 91.4415 68.3785 91.6461 68.137C91.8504 67.8952 91.9505 67.5825 91.9244 67.267L91.6865 57.9519L91.5674 48.7163Z" fill="url(#paint0_linear_66_5872)"/>
<defs>
<linearGradient id="paint0_linear_66_5872" x1="53.2182" y1="64.4003" x2="89.9263" y2="64.4003" gradientUnits="userSpaceOnUse">
<stop stop-color="#E6846A"/>
<stop offset="1" stop-color="#AC2400"/>
</linearGradient>
</defs>
</svg>
