<svg width="360" height="360" viewBox="0 0 360 360" fill="none" xmlns="http://www.w3.org/2000/svg">
<path fill-rule="evenodd" clip-rule="evenodd" d="M310.087 141.255C309.633 140.626 309.098 140.059 308.496 139.569C307.617 138.932 306.649 138.427 305.622 138.073C305.839 137.938 306.045 137.787 306.24 137.622C307.345 136.786 308.124 135.59 308.44 134.241C308.757 132.893 308.592 131.475 307.974 130.235C307.401 128.92 306.397 127.839 305.128 127.17C303.859 126.501 302.4 126.284 300.991 126.554C299.736 126.837 298.559 127.397 297.547 128.193C296.436 128.993 295.604 130.123 295.172 131.423C294.879 132.395 294.821 133.423 295.002 134.422C295.184 135.422 295.601 136.364 296.217 137.17C296.57 137.567 296.978 137.911 297.429 138.192C296.887 138.336 296.362 138.535 295.861 138.785C295.013 139.305 294.264 139.972 293.652 140.757C293.09 141.529 292.657 142.387 292.37 143.298C291.805 145.125 291.863 147.089 292.536 148.879C292.596 149.061 292.723 149.213 292.89 149.305C293.057 149.398 293.253 149.423 293.439 149.378C293.623 149.323 293.779 149.197 293.872 149.028C293.966 148.86 293.989 148.661 293.937 148.475C293.823 147.304 293.994 146.122 294.436 145.032C294.746 144.191 295.161 143.393 295.671 142.657C296.083 141.94 296.623 141.304 297.262 140.78C297.667 140.446 298.114 140.166 298.592 139.949C299.417 139.6 300.266 139.315 301.134 139.094C301.25 139.067 301.359 139.014 301.454 138.94C301.548 138.866 301.625 138.773 301.68 138.667C301.852 138.622 302.001 138.514 302.098 138.364C302.195 138.215 302.232 138.035 302.202 137.859C302.162 137.671 302.051 137.507 301.891 137.4C301.731 137.294 301.536 137.254 301.347 137.289C300.725 137.408 300.082 137.358 299.485 137.145C298.888 136.932 298.358 136.564 297.951 136.078C297.61 135.51 297.41 134.868 297.369 134.207C297.327 133.546 297.446 132.884 297.714 132.278C298.045 131.562 298.562 130.947 299.21 130.497C299.921 129.977 300.728 129.606 301.585 129.404C302.42 129.22 303.292 129.322 304.063 129.692C304.834 130.062 305.458 130.68 305.836 131.447C306.286 132.223 306.456 133.129 306.317 134.015C306.179 134.902 305.741 135.713 305.076 136.315C304.868 136.503 304.636 136.662 304.387 136.79L303.532 137.099C303.129 137.099 302.701 138.025 302.677 138.049C302.619 138.26 302.646 138.486 302.752 138.677C302.859 138.868 303.037 139.01 303.247 139.07C304.562 139.602 305.745 140.412 306.715 141.445C307.119 141.855 307.484 142.3 307.807 142.775C308.137 143.244 308.43 143.736 308.686 144.248C309.338 145.489 309.634 146.886 309.541 148.285C309.521 148.378 309.519 148.472 309.535 148.565C309.552 148.658 309.586 148.747 309.637 148.826C309.74 148.986 309.902 149.1 310.087 149.14C310.273 149.181 310.468 149.147 310.628 149.044C310.788 148.942 310.901 148.78 310.942 148.594C311.578 146.897 311.653 145.041 311.156 143.298C310.913 142.564 310.552 141.874 310.087 141.255Z" fill="#020202"/>
<path fill-rule="evenodd" clip-rule="evenodd" d="M333.743 141.255C333.286 140.62 332.743 140.052 332.128 139.569C331.257 138.932 330.297 138.427 329.278 138.073C329.468 137.954 329.705 137.859 329.895 137.717C330.997 136.878 331.772 135.683 332.089 134.335C332.405 132.987 332.243 131.571 331.629 130.33C331.052 129.018 330.048 127.939 328.78 127.271C327.512 126.602 326.055 126.383 324.646 126.649C323.389 126.928 322.212 127.488 321.203 128.288C320.093 129.09 319.263 130.22 318.828 131.518C318.538 132.492 318.483 133.521 318.669 134.521C318.855 135.52 319.276 136.461 319.896 137.265C320.241 137.661 320.641 138.006 321.084 138.287C320.545 138.439 320.021 138.637 319.516 138.88C318.68 139.407 317.941 140.074 317.331 140.852C316.751 141.613 316.316 142.474 316.049 143.393C315.471 145.218 315.529 147.186 316.215 148.974C316.27 149.159 316.396 149.315 316.565 149.408C316.733 149.501 316.932 149.525 317.118 149.473C317.302 149.418 317.458 149.292 317.552 149.123C317.645 148.955 317.668 148.756 317.616 148.57C317.496 147.399 317.667 146.216 318.115 145.127C318.416 144.287 318.823 143.489 319.326 142.752C319.754 142.039 320.3 141.404 320.941 140.875C321.339 140.53 321.787 140.25 322.271 140.044C323.088 139.696 323.929 139.41 324.789 139.189C324.907 139.165 325.017 139.113 325.112 139.039C325.207 138.965 325.283 138.87 325.335 138.762C325.51 138.722 325.663 138.615 325.761 138.464C325.858 138.313 325.893 138.13 325.858 137.954C325.841 137.862 325.805 137.774 325.754 137.696C325.703 137.618 325.637 137.55 325.56 137.497C325.483 137.444 325.396 137.407 325.305 137.387C325.213 137.368 325.119 137.367 325.026 137.384C324.361 137.514 323.672 137.451 323.041 137.203C322.41 136.954 321.863 136.531 321.464 135.983C321.123 135.415 320.923 134.773 320.882 134.112C320.84 133.451 320.959 132.789 321.226 132.183C321.563 131.436 322.107 130.801 322.794 130.354C323.502 129.831 324.311 129.459 325.169 129.262C326.004 129.078 326.876 129.179 327.647 129.549C328.418 129.92 329.042 130.537 329.42 131.304C329.932 132.074 330.153 133.001 330.045 133.919C329.936 134.837 329.504 135.686 328.826 136.315C328.622 136.497 328.399 136.656 328.161 136.79C327.496 137.099 326.784 137.028 326.451 138.049C326.393 138.26 326.42 138.486 326.526 138.677C326.633 138.868 326.811 139.01 327.021 139.07C328.332 139.608 329.514 140.417 330.489 141.445C330.886 141.861 331.251 142.306 331.581 142.775C331.903 143.244 332.189 143.736 332.436 144.248C333.097 145.487 333.401 146.884 333.315 148.285C333.291 148.378 333.286 148.474 333.3 148.568C333.315 148.662 333.349 148.752 333.4 148.833C333.452 148.913 333.519 148.982 333.599 149.035C333.678 149.088 333.768 149.124 333.861 149.14C334.047 149.176 334.239 149.14 334.398 149.038C334.557 148.936 334.671 148.777 334.716 148.594C335.344 146.894 335.411 145.038 334.906 143.298C334.634 142.557 334.241 141.867 333.743 141.255Z" fill="#020202"/>
<path fill-rule="evenodd" clip-rule="evenodd" d="M304.174 103.208C303.248 103.636 302.369 104.016 301.514 104.514C300.924 104.864 300.353 105.245 299.804 105.654C299.472 105.905 299.155 106.175 298.854 106.462C298.585 106.732 298.41 107.082 298.355 107.459C298.31 107.764 298.341 108.075 298.444 108.365C298.548 108.655 298.721 108.915 298.949 109.122C299.623 109.616 300.347 110.038 301.11 110.381L302.891 111.046C303.096 111.112 303.319 111.094 303.51 110.996C303.702 110.898 303.846 110.728 303.913 110.523C303.979 110.318 303.961 110.096 303.863 109.904C303.765 109.713 303.595 109.568 303.39 109.502L302.226 108.528C302.226 108.528 301.704 108.172 301.324 107.887L301.656 107.721L305.076 104.372C305.198 104.249 305.273 104.088 305.288 103.916C305.303 103.744 305.257 103.572 305.158 103.43C305.059 103.289 304.913 103.186 304.746 103.142C304.579 103.097 304.402 103.112 304.245 103.184L304.174 103.208Z" fill="#020202"/>
<path fill-rule="evenodd" clip-rule="evenodd" d="M311.346 98.9803C310.539 100.358 309.636 101.64 308.971 103.042C308.639 103.635 308.33 104.277 308.045 104.918C307.76 105.559 307.427 106.533 307.19 107.293C306.667 109.193 306.335 111.117 305.765 113.017C305.702 113.119 305.662 113.235 305.649 113.354C305.635 113.474 305.647 113.595 305.685 113.71C305.723 113.824 305.785 113.929 305.867 114.017C305.949 114.105 306.05 114.175 306.161 114.22C306.273 114.265 306.393 114.286 306.514 114.28C306.634 114.274 306.752 114.243 306.859 114.187C306.966 114.131 307.059 114.053 307.133 113.957C307.206 113.862 307.258 113.752 307.285 113.634C307.95 112.352 308.544 111.045 309.09 109.715C309.636 108.385 310.064 107.103 310.61 105.82L312.676 99.6215C312.715 99.5344 312.736 99.4404 312.738 99.345C312.74 99.2495 312.723 99.1547 312.687 99.0661C312.652 98.9775 312.599 98.8969 312.532 98.8292C312.464 98.7614 312.384 98.7078 312.296 98.6715C312.129 98.5882 311.936 98.5738 311.758 98.6316C311.58 98.6893 311.432 98.8146 311.346 98.9803Z" fill="#020202"/>
<path fill-rule="evenodd" clip-rule="evenodd" d="M317.616 109.478C317.933 109.271 318.22 109.024 318.471 108.742C318.708 108.485 318.907 108.197 319.065 107.887C319.164 107.655 319.2 107.402 319.171 107.152C319.141 106.902 319.048 106.664 318.899 106.462C318.493 105.941 318.003 105.492 317.45 105.132C316.285 104.565 315.078 104.088 313.84 103.707C313.673 103.611 313.474 103.585 313.288 103.633C313.101 103.682 312.942 103.802 312.842 103.968C312.792 104.05 312.758 104.141 312.744 104.237C312.73 104.332 312.735 104.429 312.76 104.522C312.784 104.616 312.827 104.703 312.886 104.779C312.946 104.855 313.019 104.919 313.104 104.965L315.17 106.628L316.049 107.364L315.146 108.314L313.46 109.668C313.368 109.726 313.289 109.801 313.226 109.891C313.164 109.98 313.121 110.081 313.099 110.187C313.076 110.294 313.076 110.404 313.097 110.51C313.118 110.617 313.161 110.718 313.222 110.808C313.278 110.899 313.352 110.978 313.439 111.04C313.526 111.102 313.625 111.145 313.729 111.168C313.834 111.19 313.942 111.191 314.047 111.169C314.152 111.148 314.251 111.106 314.339 111.045L316.286 110.19C316.756 110.005 317.202 109.766 317.616 109.478Z" fill="#020202"/>
<path fill-rule="evenodd" clip-rule="evenodd" d="M323.15 115.154C325.485 111.525 326.39 107.158 325.691 102.899C325.296 101.173 324.541 99.55 323.477 98.1343C322.413 96.7187 321.064 95.5424 319.516 94.6819C316.48 92.9231 312.954 92.198 309.47 92.6157C305.286 92.9715 301.251 94.3409 297.714 96.6056C295.342 98.2949 293.537 100.663 292.536 103.398C291.435 106.347 291.52 109.607 292.774 112.494C293.985 115.343 296.223 117.632 299.044 118.907C299.857 119.256 300.711 119.504 301.585 119.643C302.835 119.835 304.097 119.946 305.361 119.976C306.081 120.012 306.803 120.012 307.523 119.976H308.33C308.496 120.498 308.686 120.997 308.805 121.519C309.066 122.636 309.28 123.752 309.446 124.892L309.826 126.816L310.159 127.956C310.135 128.033 310.135 128.116 310.159 128.193C310.24 128.349 310.353 128.486 310.49 128.596C310.626 128.706 310.784 128.787 310.953 128.834C311.122 128.881 311.299 128.892 311.473 128.868C311.647 128.843 311.814 128.784 311.964 128.692C312.462 128.418 312.886 128.027 313.199 127.552C313.645 126.797 314.019 126.002 314.315 125.177L315.194 122.422L316.168 119.501C317.591 119.377 318.966 118.919 320.18 118.164C321.393 117.409 322.411 116.378 323.15 115.154ZM313.246 121.662L312.083 124.037L311.916 124.369C311.584 123.419 311.251 122.493 310.848 121.567C310.444 120.641 310.111 119.952 309.684 119.192C309.256 118.432 309.684 119.192 309.684 119.049C309.684 118.907 309.684 119.049 309.541 119.049C309.45 118.95 309.331 118.881 309.199 118.852C309.068 118.822 308.93 118.833 308.805 118.883C308.345 118.852 307.89 118.765 307.451 118.622C306.763 118.622 306.074 118.503 305.385 118.456C304.198 118.383 303.016 118.241 301.846 118.028C301.117 117.873 300.407 117.634 299.733 117.316C297.437 116.127 295.673 114.117 294.793 111.687C293.88 109.329 293.905 106.711 294.864 104.372C295.99 101.554 298.111 99.2469 300.825 97.8881C303.655 96.5249 306.701 95.6649 309.826 95.3469C312.727 94.9663 315.673 95.524 318.234 96.9381C319.51 97.5874 320.635 98.4983 321.535 99.6114C322.435 100.724 323.091 102.015 323.459 103.398C324.049 106.464 323.693 109.636 322.438 112.494C321.963 113.895 321.111 115.138 319.976 116.085C318.84 117.032 317.464 117.647 316.001 117.862C315.796 117.784 315.569 117.791 315.369 117.88C315.169 117.969 315.012 118.133 314.933 118.337L313.246 121.662Z" fill="url(#paint0_linear_70_6084)"/>
<path fill-rule="evenodd" clip-rule="evenodd" d="M341.77 107.649C341.326 105.864 340.517 104.19 339.395 102.733C338.287 101.267 336.805 100.125 335.105 99.4272C333.404 98.7294 331.548 98.5013 329.729 98.7666C329.626 98.7714 329.525 98.7984 329.434 98.8457C329.342 98.8931 329.262 98.9597 329.199 99.041C329.136 99.1222 329.091 99.2162 329.068 99.3164C329.044 99.4167 329.043 99.5208 329.064 99.6216C329.066 99.7187 329.089 99.8141 329.131 99.9016C329.173 99.9892 329.233 100.067 329.307 100.13C329.381 100.192 329.467 100.239 329.56 100.266C329.654 100.293 329.751 100.3 329.848 100.287C331.342 100.258 332.818 100.62 334.13 101.337C335.442 102.053 336.544 103.099 337.329 104.372C338.132 105.609 338.718 106.975 339.063 108.409C339.458 109.838 339.562 111.332 339.371 112.803C339.197 114.373 338.634 115.875 337.733 117.173C336.845 118.475 335.523 119.418 334.004 119.833C333.795 119.884 333.614 120.014 333.499 120.195C333.383 120.377 333.343 120.596 333.386 120.807C333.386 120.807 333.386 120.949 333.529 121.02C333.344 120.94 333.136 120.929 332.944 120.99C332.751 121.051 332.588 121.18 332.484 121.353L331.225 123.229L331.011 123.467C330.971 122.943 330.875 122.426 330.726 121.923C330.63 121.476 330.435 121.057 330.156 120.695C329.876 120.333 329.519 120.039 329.111 119.833C328.752 119.68 328.357 119.63 327.971 119.69C327.425 119.69 326.689 120.118 326.333 120.165C325.712 120.28 325.086 120.359 324.456 120.403L321.488 120.545C321.392 120.539 321.296 120.552 321.206 120.583C321.115 120.615 321.032 120.664 320.961 120.728C320.89 120.793 320.833 120.87 320.793 120.957C320.753 121.044 320.73 121.138 320.728 121.234C320.727 121.424 320.797 121.607 320.924 121.748C321.052 121.888 321.227 121.976 321.416 121.994L326.475 122.588C328.446 122.588 327.544 120.379 328.85 126.317C328.85 126.554 329.895 127.765 330.94 126.839C331.296 126.507 332.175 125.557 332.223 125.485L332.959 124.322L334.004 122.16C334.08 122.039 334.12 121.9 334.12 121.757C334.12 121.614 334.08 121.474 334.004 121.353C334.167 121.398 334.339 121.398 334.503 121.353C336.473 120.99 338.249 119.938 339.514 118.384C340.796 116.869 341.678 115.056 342.079 113.112C342.359 111.289 342.254 109.428 341.77 107.649Z" fill="#020202"/>
<path d="M91.8932 57.244C123.765 34.3771 164.466 23.8712 206.148 31.2209C241.372 37.4318 271.575 55.3849 293.444 80.3449M40.3175 122.309C36.2386 132.219 33.1585 142.718 31.221 153.706C26.4092 180.995 29.2508 207.864 38.2041 232.11M92.2406 302.901C109.995 315.58 130.788 324.592 153.706 328.633C187.36 334.567 220.374 328.861 248.618 314.408M313.619 250.21C320.701 236.732 325.848 221.944 328.633 206.148C330.85 193.576 331.442 181.094 330.561 168.917" stroke="#ADBCCE" stroke-width="2" stroke-dasharray="10 5"/>
<path fill-rule="evenodd" clip-rule="evenodd" d="M227.431 209.234C226.878 205.282 221.819 201.014 219.329 199.275L216.681 197.417C213.994 195.402 214.982 194.493 213.401 194.493C213.401 190.541 213.915 186.865 213.915 183.427V178.684C213.915 177.143 213.599 175.522 213.362 173.942C212.808 170.504 212.057 167.026 211.109 162.995C211.05 162.591 210.834 162.228 210.508 161.984C210.183 161.739 209.773 161.634 209.37 161.69C209.172 161.719 208.981 161.787 208.81 161.891C208.638 161.994 208.489 162.131 208.371 162.293C208.253 162.455 208.169 162.639 208.124 162.834C208.078 163.029 208.072 163.232 208.105 163.429C208.382 167.618 208.382 171.333 208.54 174.693C208.54 177.222 208.54 179.672 208.975 182.162C209.41 186.114 210.161 190.066 210.872 194.572H203.245C198.502 194.374 193.72 193.86 188.977 193.544C185.736 193.346 182.535 193.228 179.334 193.149C175.382 193.149 171.628 193.149 167.794 193.584C162.064 194.019 156.412 194.769 150.682 195.481C150.325 195.481 149.983 195.622 149.731 195.874C149.479 196.126 149.338 196.468 149.338 196.824C149.338 197.181 149.479 197.522 149.731 197.775C149.983 198.026 150.325 198.168 150.682 198.168H162.064C167.715 198.168 173.327 198.168 179.018 198.484C182.417 198.484 185.816 198.682 189.254 198.761C192.692 198.84 196.131 198.761 199.569 198.761C203.521 198.761 207.71 198.445 211.702 198.05L214.666 200.381L217.314 202.436C218.747 203.472 220.071 204.651 221.266 205.954L204.944 204.531H188.819C180.915 204.531 172.734 205.005 164.711 205.005C158.072 205.242 151.353 206.151 144.674 206.388H137.561C138.285 204.582 139.271 202.891 140.485 201.369L143.173 198.959L147.125 196.35C147.439 196.183 147.674 195.897 147.778 195.556C147.882 195.215 147.846 194.847 147.678 194.532C147.53 194.299 147.315 194.118 147.06 194.011C146.806 193.905 146.525 193.88 146.255 193.939L146.809 186.668C147.085 183.071 147.52 179.514 147.797 175.878C148.073 172.243 148.389 168.686 148.389 165.01C147.955 155.762 147.599 160.11 152.341 159.319L161.708 157.62C162.075 157.506 162.386 157.26 162.581 156.929C162.776 156.597 162.84 156.206 162.761 155.83C162.681 155.454 162.465 155.121 162.153 154.897C161.841 154.672 161.457 154.572 161.076 154.616L151.946 155.407C151.235 155.407 147.994 155.13 146.413 155.407C146.003 155.454 145.605 155.583 145.246 155.786C144.886 155.99 144.571 156.264 144.319 156.592C143.884 157.329 143.615 158.152 143.528 159.003C143.252 160.9 143.528 163.864 143.528 164.931C143.528 168.567 143.133 172.203 143.094 175.799C143.054 179.396 143.094 183.071 143.37 186.707L143.726 195.52L141.789 196.706L138.588 199.314C135.961 201.852 134.006 205.003 132.897 208.483C132.396 209.892 132.368 211.426 132.818 212.852C133.267 214.279 134.169 215.52 135.387 216.387C136.711 217.262 138.207 217.841 139.774 218.087C141.79 218.367 143.826 218.473 145.86 218.403L158.823 218.956C170.126 218.956 181.429 219.628 192.692 219.667C197.593 219.667 202.494 219.667 207.394 219.154L215.575 217.889L220.633 216.585L223.993 215.162C225.162 214.722 226.143 213.892 226.769 212.811C227.396 211.731 227.63 210.467 227.431 209.234ZM222.214 211.645L219.448 212.672L214.824 213.7L207.236 214.411H197.632C184.709 214.411 171.786 213.621 158.862 213.739H145.821C144.006 213.898 142.181 213.898 140.367 213.739C139.383 213.615 138.431 213.307 137.561 212.831C136.952 212.398 136.504 211.774 136.29 211.058C136.075 210.342 136.105 209.575 136.375 208.878V208.601C139.099 208.998 141.844 209.235 144.595 209.313C151.235 209.55 157.993 209.313 164.593 209.313H180.796C188.701 209.115 196.881 208.562 204.904 208.286H223.202C223.426 208.556 223.579 208.878 223.646 209.222C223.713 209.567 223.692 209.922 223.586 210.256C223.48 210.591 223.291 210.893 223.038 211.136C222.784 211.378 222.474 211.553 222.135 211.645H222.214Z" fill="#020202"/>
<path fill-rule="evenodd" clip-rule="evenodd" d="M169.77 153.153C171.145 154.428 172.641 155.566 174.236 156.552C174.389 156.689 174.567 156.794 174.76 156.861C174.954 156.928 175.159 156.956 175.363 156.943C175.567 156.93 175.767 156.876 175.95 156.785C176.134 156.694 176.297 156.567 176.431 156.413C176.565 156.258 176.667 156.078 176.73 155.883C176.794 155.688 176.818 155.483 176.801 155.279C176.785 155.075 176.727 154.876 176.633 154.694C176.538 154.513 176.409 154.352 176.251 154.22C175.185 153.271 174.195 152.24 173.287 151.138C172.907 150.658 172.661 150.085 172.576 149.478L173.248 148.45C173.962 147.36 174.924 146.452 176.054 145.803C177.365 145.024 178.793 144.463 180.283 144.143L181.982 143.866C181.982 143.866 181.666 144.261 181.547 144.498C179.749 147.55 178.417 150.854 177.595 154.3C177.236 155.627 177.23 157.025 177.576 158.356C177.923 159.687 178.61 160.904 179.571 161.888L182.614 165.01C183.62 166.039 184.888 166.775 186.281 167.137C187.674 167.499 189.139 167.474 190.518 167.065C193.992 166.138 197.309 164.7 200.359 162.797C200.676 162.797 200.952 162.362 201.268 162.204L200.913 164.219C200.592 165.709 200.032 167.138 199.253 168.448C198.588 169.636 197.654 170.651 196.526 171.412L195.498 172.084C194.892 171.999 194.318 171.753 193.838 171.373C192.745 170.455 191.715 169.465 190.756 168.409C190.486 168.108 190.109 167.925 189.706 167.899C189.303 167.873 188.906 168.007 188.6 168.271C188.295 168.536 188.105 168.909 188.072 169.312C188.039 169.714 188.166 170.114 188.424 170.424C189.41 172.019 190.548 173.515 191.823 174.89C192.599 175.639 193.55 176.182 194.589 176.471C195.319 176.629 196.073 176.629 196.802 176.471C197.696 176.29 198.552 175.955 199.332 175.483C201.183 174.382 202.7 172.797 203.719 170.898C204.405 169.013 204.727 167.015 204.667 165.01L204.351 161.058C204.331 160.821 204.331 160.583 204.351 160.346C206.959 158.521 209.323 156.369 211.386 153.944C214.577 150.034 216.737 145.387 217.669 140.428C217.969 138.251 217.969 136.044 217.669 133.867C217.61 131.888 216.87 129.99 215.575 128.492C214.178 127.286 212.435 126.552 210.595 126.398C208.428 126.244 206.251 126.363 204.114 126.753C199.209 127.843 194.649 130.123 190.835 133.393C188.394 135.511 186.23 137.927 184.393 140.586H183.958L180.006 140.112C177.893 140.098 175.798 140.501 173.841 141.297C171.855 142.304 170.206 143.871 169.098 145.803C168.648 146.561 168.327 147.389 168.15 148.253C167.991 148.969 167.991 149.711 168.15 150.426C168.47 151.449 169.025 152.383 169.77 153.153ZM193.483 136.713C196.841 134.13 200.773 132.395 204.944 131.654C206.326 131.415 207.731 131.323 209.133 131.377C210.103 131.296 211.074 131.532 211.899 132.049C212.453 132.904 212.704 133.92 212.611 134.934C212.706 136.373 212.639 137.818 212.413 139.242C211.829 143.427 210.198 147.396 207.671 150.782C205.046 154.245 201.803 157.193 198.107 159.477C195.456 161.298 192.553 162.723 189.491 163.706C188.697 163.995 187.841 164.071 187.009 163.925C186.177 163.779 185.397 163.417 184.749 162.876L181.547 159.832C180.978 159.152 180.599 158.333 180.446 157.459C180.294 156.585 180.374 155.686 180.678 154.853C181.669 151.792 183.122 148.9 184.986 146.277C187.27 142.627 190.188 139.415 193.601 136.792L193.483 136.713Z" fill="#020202"/>
<path fill-rule="evenodd" clip-rule="evenodd" d="M164.83 168.488C165.204 168.759 165.617 168.973 166.055 169.12L165.739 169.555C164.185 171.434 162.858 173.49 161.787 175.681C161.239 177.077 161.129 178.607 161.471 180.067C161.603 180.473 161.834 180.84 162.143 181.134C162.441 181.439 162.806 181.669 163.21 181.806C164.826 182.322 166.57 182.266 168.15 181.648C170.328 180.577 172.372 179.251 174.236 177.696L174.671 177.38C174.825 177.827 175.038 178.252 175.303 178.645C175.713 179.473 176.427 180.111 177.295 180.428C178.163 180.744 179.12 180.714 179.967 180.344C181.641 179.469 182.915 177.983 183.523 176.194C183.953 174.924 184.115 173.578 183.998 172.242C183.856 170.528 183.605 168.826 183.247 167.144C183.223 166.943 183.159 166.75 183.057 166.575C182.955 166.401 182.818 166.249 182.655 166.131C182.491 166.012 182.305 165.928 182.108 165.885C181.91 165.842 181.706 165.84 181.508 165.879C181.31 165.903 181.119 165.967 180.946 166.066C180.772 166.165 180.621 166.297 180.5 166.456C180.378 166.614 180.29 166.794 180.239 166.987C180.188 167.18 180.176 167.381 180.204 167.579C180.425 169.137 180.544 170.708 180.559 172.282C180.566 173.16 180.405 174.032 180.085 174.85C180.085 175.206 179.216 175.522 178.821 175.878L178.623 173.27C178.439 172.626 178.007 172.08 177.421 171.755C176.836 171.429 176.145 171.348 175.501 171.531L174.394 171.926L171.509 173.586C170.561 174.179 169.177 175.167 167.557 175.957H167.359C168.085 174.594 168.89 173.274 169.77 172.005L171.391 169.041C171.551 168.696 171.683 168.34 171.786 167.974C171.804 167.856 171.804 167.736 171.786 167.618C171.867 167.313 171.882 166.994 171.831 166.683C171.779 166.372 171.661 166.075 171.485 165.813C171.309 165.551 171.079 165.33 170.811 165.164C170.542 164.998 170.241 164.892 169.928 164.852L167.083 165.01C167.083 165.01 167.083 164.812 166.846 165.01C166.609 165.208 166.846 165.405 166.846 165.366C166.846 165.326 167.913 164.061 168.506 163.824C169.333 163.478 170.217 163.29 171.114 163.271C172.687 163.274 174.258 163.379 175.817 163.587C175.994 163.615 176.174 163.607 176.348 163.565C176.522 163.522 176.685 163.445 176.829 163.338C176.972 163.231 177.093 163.097 177.184 162.943C177.275 162.789 177.334 162.618 177.358 162.441C177.405 162.241 177.407 162.034 177.364 161.833C177.321 161.633 177.234 161.445 177.109 161.282C176.984 161.119 176.825 160.987 176.642 160.893C176.46 160.8 176.259 160.748 176.054 160.742C174.383 160.389 172.694 160.125 170.995 159.951C169.662 159.844 168.321 159.992 167.043 160.386C165.351 161.033 163.948 162.268 163.091 163.864C162.736 164.711 162.718 165.662 163.041 166.521C163.364 167.382 164.005 168.085 164.83 168.488Z" fill="url(#paint1_linear_70_6084)"/>
<path d="M58.9709 267.024C59.7453 266.585 60.4222 265.992 60.9605 265.282C61.4987 264.573 61.8871 263.761 62.1021 262.897C62.3207 262.073 62.3703 261.212 62.2482 260.368C62.1262 259.524 61.8349 258.713 61.3919 257.985C60.9488 257.256 60.3631 256.624 59.67 256.127C58.9768 255.63 58.1904 255.278 57.3579 255.093C56.3645 254.818 55.3151 254.818 54.3216 255.093C53.2746 255.364 52.3031 255.87 51.4811 256.573C50.659 257.276 50.008 258.157 49.5775 259.149C49.1105 260.219 48.9672 261.403 49.1653 262.554C49.3634 263.705 49.8943 264.772 50.6924 265.625C51.7638 266.682 53.1125 267.414 54.5826 267.736C56.0833 268.035 57.6414 267.782 58.9709 267.024ZM51.8547 259.908C52.0958 259.209 52.4889 258.572 53.0057 258.043C53.5225 257.514 54.1502 257.106 54.8435 256.848C55.6634 256.551 56.5617 256.551 57.3816 256.848C57.9631 256.948 58.5134 257.182 58.9895 257.53C59.4656 257.879 59.8544 258.333 60.1256 258.857C60.3968 259.381 60.5429 259.96 60.5524 260.55C60.562 261.14 60.4347 261.724 60.1807 262.257C60.0013 262.845 59.6962 263.387 59.2867 263.846C58.8771 264.304 58.3728 264.669 57.8086 264.913C56.9498 265.214 56.0158 265.222 55.1519 264.937C54.1997 264.701 53.3303 264.208 52.6375 263.514C52.1829 263.041 51.8742 262.447 51.748 261.804C51.6218 261.16 51.6835 260.494 51.9258 259.884L51.8547 259.908Z" fill="#020202"/>
<path d="M56.7649 282.277C57.3529 282.38 57.9473 282.444 58.5439 282.467C58.9118 282.491 59.2811 282.451 59.6351 282.348C60.1262 282.213 60.5646 281.932 60.8923 281.542C61.3597 280.936 61.6987 280.242 61.8886 279.501C62.1732 278.553 62.1732 277.509 62.4578 276.584C62.5345 276.225 62.7362 275.906 63.0271 275.682C63.158 275.565 63.3123 275.476 63.48 275.423C63.6479 275.37 63.8251 275.353 63.9997 275.374C65.0981 275.842 66.2431 276.192 67.4156 276.418C68.0759 276.4 68.7176 276.194 69.2657 275.825C70.0723 275.217 70.819 274.534 71.4954 273.785C71.9566 273.368 72.3848 272.916 72.7765 272.433C73.0572 272.064 73.2444 271.633 73.322 271.176C73.3861 270.742 73.3287 270.298 73.156 269.895C72.8986 269.296 72.5461 268.744 72.1122 268.258C71.5783 267.622 71.1019 266.939 70.6891 266.218C70.5354 266.009 70.4319 265.768 70.3865 265.513C70.3414 265.258 70.3554 264.996 70.4281 264.747C70.6554 264.288 70.9788 263.884 71.3769 263.561C71.8262 263.192 72.3205 262.882 72.8475 262.636C73.227 262.446 73.749 262.351 74.1761 262.138C74.5387 261.981 74.8508 261.726 75.0774 261.403C75.3754 260.981 75.5631 260.492 75.6229 259.979C75.6946 259.412 75.6946 258.839 75.6229 258.271L75.2909 256.255C75.2909 255.781 75.1486 255.188 75.0299 254.666C74.9703 254.352 74.8665 254.049 74.7216 253.765C74.4732 253.29 74.072 252.914 73.583 252.697C72.876 252.434 72.1307 252.29 71.3769 252.27C70.8465 252.219 70.3309 252.066 69.8588 251.819C69.4313 251.661 69.0544 251.391 68.7677 251.037C68.614 250.682 68.5575 250.294 68.6034 249.91C68.6492 249.527 68.796 249.162 69.0285 248.854C69.4995 248.132 69.8296 247.327 70.001 246.482C70.0678 245.886 69.9429 245.284 69.6441 244.764C69.3456 244.243 68.8891 243.832 68.3407 243.588C67.4415 243.046 66.4875 242.6 65.4942 242.26C64.928 242.041 64.312 241.983 63.7151 242.094C61.9835 242.616 61.1295 244.466 59.7063 245.32C59.2738 245.586 58.7627 245.695 58.2593 245.628C57.8594 245.587 57.4802 245.431 57.1681 245.178C56.8363 244.889 56.5695 244.533 56.3853 244.134C56.3853 243.849 56.1719 243.256 55.9821 242.877C55.8992 242.629 55.7518 242.408 55.5551 242.236C55.0578 241.885 54.4542 241.718 53.8472 241.762C52.4572 241.959 51.1054 242.367 49.8384 242.972C49.3304 243.147 48.8825 243.463 48.5467 243.883C48.2109 244.303 48.0008 244.809 47.9407 245.344C47.9211 246.357 48.0246 247.368 48.2491 248.356C48.3531 248.693 48.3751 249.049 48.3132 249.396C48.2513 249.742 48.1073 250.069 47.8933 250.349C47.2054 251.084 46.4226 250.871 45.6635 250.633C44.9023 250.341 44.1038 250.158 43.2914 250.088C42.9192 250.084 42.5513 250.168 42.2175 250.333C41.8837 250.498 41.5934 250.739 41.3701 251.037C40.4613 252.068 39.7821 253.281 39.3775 254.595C39.1872 255.118 39.1079 255.675 39.1446 256.23C39.1814 256.786 39.3334 257.327 39.591 257.821C40.3975 259.031 41.6784 259.671 42.5087 260.762C42.7553 261.09 42.9182 261.472 42.9831 261.877C43.0288 262.133 43.0163 262.396 42.9465 262.647C42.8767 262.897 42.7514 263.129 42.5798 263.324C41.8435 264.094 41.0506 264.807 40.2077 265.459C39.3914 266.1 38.8081 266.992 38.5473 267.997C38.4408 268.598 38.5151 269.217 38.7608 269.776C39.231 270.658 39.8397 271.459 40.5636 272.148C41.304 273.13 42.0958 274.072 42.9356 274.971C43.5005 275.526 44.2197 275.898 44.9994 276.038C46.3907 275.907 47.7655 275.637 49.103 275.232C49.3802 275.14 49.6798 275.14 49.957 275.232C50.1063 275.315 50.235 275.431 50.3336 275.57C50.4322 275.71 50.498 275.87 50.5263 276.038C50.6083 277.237 50.8558 278.418 51.2616 279.549C51.7653 280.369 52.5233 281.002 53.4202 281.352C54.4907 281.803 55.6148 282.114 56.7649 282.277ZM53.0644 274.876C52.7214 274.095 52.1177 273.458 51.3565 273.073C50.6272 272.695 49.7954 272.562 48.9844 272.694C47.7984 272.86 46.6124 273.643 45.4263 273.548C45.118 273.548 44.8096 273.192 44.4775 272.86C43.6473 272.053 42.8645 270.986 42.4138 270.488C42.0138 270.103 41.6412 269.691 41.2989 269.254C41.1091 268.97 40.8957 268.685 40.9668 268.4C41.1434 267.726 41.5557 267.137 42.1291 266.74C42.9941 266.115 43.7894 265.399 44.5012 264.605C44.855 264.169 45.1051 263.659 45.2325 263.112C45.3599 262.566 45.3613 261.997 45.2366 261.45C45.1109 260.701 44.792 259.998 44.3115 259.41C43.2914 258.438 42.0343 257.868 41.2515 256.706C40.8957 256.208 41.1091 255.378 41.3938 254.571C41.6825 253.708 42.1245 252.905 42.6984 252.199C43.078 251.796 43.5524 251.914 44.0505 252.033C44.8805 252.323 45.7395 252.522 46.6124 252.626C47.0838 252.65 47.5543 252.564 47.9867 252.375C48.419 252.185 48.8013 251.898 49.103 251.535C49.4399 251.145 49.6867 250.686 49.8261 250.19C49.9655 249.693 49.994 249.173 49.9096 248.665C49.656 247.638 49.5051 246.589 49.4589 245.533C49.4858 245.26 49.589 244.999 49.7568 244.781C49.9245 244.563 50.15 244.396 50.4077 244.3C51.4547 243.912 52.5343 243.618 53.6337 243.422C53.8975 243.348 54.1765 243.348 54.4402 243.422C54.4761 243.841 54.6058 244.246 54.8198 244.608C55.0886 245.268 55.5116 245.854 56.0532 246.316C56.6128 246.804 57.3078 247.111 58.0458 247.194C58.9502 247.347 59.8793 247.161 60.6551 246.672C61.936 245.889 62.6713 244.181 64.2369 243.754C64.5217 243.754 65.0435 243.944 65.589 244.181C66.1725 244.438 66.7357 244.74 67.2731 245.083C67.7951 245.439 68.0322 245.699 67.9849 246.055C67.7275 246.887 67.3691 247.683 66.9174 248.427C66.6122 248.988 66.4523 249.616 66.4523 250.254C66.4523 250.892 66.6122 251.52 66.9174 252.08C67.2795 252.696 67.7838 253.217 68.3882 253.598C69.2211 254.106 70.1497 254.437 71.1159 254.571L72.6342 254.832L72.99 256.801L73.227 258.58C73.2515 258.911 73.2515 259.244 73.227 259.576C73.2159 259.743 73.1672 259.905 73.0847 260.051L71.7564 260.525C70.8862 260.915 70.0849 261.444 69.3843 262.091C68.8713 262.575 68.4459 263.145 68.1272 263.775C67.9103 264.268 67.7982 264.801 67.7982 265.34C67.7982 265.879 67.9103 266.412 68.1272 266.906C68.6181 268.02 69.265 269.058 70.0485 269.99L70.6653 270.938L69.669 271.982C69.2895 272.338 68.815 272.884 68.2932 273.334C67.7714 273.785 67.7714 273.832 67.4629 273.832C66.8748 273.765 66.3082 273.571 65.8025 273.263C65.1473 272.959 64.4374 272.789 63.7151 272.765C62.8497 272.79 62.0165 273.099 61.343 273.643C60.7579 274.075 60.2993 274.657 60.0146 275.327C59.6811 276.48 59.4197 277.652 59.2319 278.837C59.1098 279.174 58.959 279.499 58.7811 279.81L57.1444 279.501C56.4129 279.428 55.6901 279.285 54.9858 279.075C54.5166 278.991 54.0946 278.737 53.7998 278.363C53.5876 277.826 53.475 277.256 53.4677 276.679C53.4164 276.062 53.2807 275.456 53.0644 274.876Z" fill="#020202"/>
<path d="M75.9551 270.867C76.832 271.468 77.5421 272.282 78.0193 273.232C78.4964 274.182 78.7246 275.237 78.6828 276.3C78.6838 277.109 78.5391 277.913 78.256 278.672C77.9216 279.776 77.1963 280.72 76.2159 281.328C75.1593 281.957 73.929 282.231 72.7052 282.111C72.1255 282.116 71.555 281.964 71.0541 281.672C70.5532 281.38 70.1402 280.958 69.8588 280.451C69.7866 280.246 69.6357 280.079 69.44 279.986C69.2443 279.892 69.0194 279.88 68.8152 279.953C68.6107 280.025 68.4433 280.176 68.3499 280.371C68.2563 280.567 68.2445 280.792 68.3169 280.996C68.566 281.693 68.9745 282.322 69.5099 282.833C70.0454 283.343 70.6929 283.722 71.4006 283.938C73.4163 284.613 75.6134 284.494 77.5443 283.606C78.8674 282.876 79.9166 281.735 80.5332 280.356C81.1398 279.036 81.3853 277.579 81.2447 276.134C81.1129 274.72 80.603 273.369 79.768 272.221C78.9332 271.073 77.8046 270.171 76.5007 269.61C76.4171 269.553 76.3223 269.514 76.2226 269.496C76.1228 269.478 76.0205 269.482 75.9221 269.507C75.824 269.532 75.7321 269.577 75.653 269.641C75.574 269.704 75.5091 269.783 75.463 269.874C75.417 269.964 75.3908 270.063 75.3863 270.164C75.3816 270.265 75.3987 270.366 75.4362 270.46C75.474 270.555 75.5312 270.639 75.6044 270.71C75.6773 270.78 75.7647 270.834 75.8601 270.867H75.9551Z" fill="url(#paint2_linear_70_6084)"/>
<path d="M91.2784 279.834C92.3555 279.34 93.3874 278.752 94.3621 278.078C94.7747 277.637 95.0879 277.112 95.2801 276.539C95.4725 275.966 95.5397 275.358 95.477 274.757C95.1552 272.47 94.3462 270.277 93.1048 268.329C92.7645 267.704 92.2322 267.205 91.5867 266.906C90.7044 266.562 89.7551 266.424 88.8115 266.503C88.3584 266.571 87.8957 266.535 87.4594 266.395C87.0232 266.255 86.6253 266.015 86.2971 265.696C86.1594 265.539 86.0601 265.353 86.0064 265.151C85.953 264.949 85.9468 264.738 85.9886 264.534C86.2183 263.516 86.3924 262.487 86.5104 261.45C86.5199 260.73 86.357 260.019 86.0352 259.375C85.7131 258.731 85.2417 258.174 84.6603 257.75C83.0362 256.71 81.1759 256.098 79.2519 255.97C79.1583 255.957 79.0631 255.963 78.9717 255.987C78.8802 256.01 78.7945 256.052 78.7194 256.11C78.6442 256.167 78.5815 256.239 78.5344 256.321C78.4874 256.403 78.457 256.493 78.4454 256.587C78.4321 256.681 78.4375 256.776 78.4615 256.868C78.4853 256.959 78.5273 257.045 78.5845 257.12C78.642 257.195 78.7137 257.258 78.7959 257.305C78.8779 257.352 78.9683 257.382 79.0622 257.394C80.7061 257.525 82.2895 258.072 83.664 258.983C84.025 259.263 84.3157 259.623 84.5133 260.035C84.7109 260.446 84.8099 260.898 84.8025 261.355C84.8025 262.494 84.1385 263.727 84.1622 264.866C84.1629 265.589 84.424 266.288 84.8975 266.835C85.2911 267.345 85.8159 267.738 86.4156 267.973C87.2818 268.287 88.1985 268.44 89.1198 268.424C89.9501 268.424 90.7802 268.424 91.2784 269.302C92.1389 270.766 92.7557 272.36 93.1048 274.022C93.2473 274.923 93.2946 275.801 92.749 276.394C92.2035 276.987 90.0211 277.58 89.0013 278.41C88.4873 278.806 88.1268 279.368 87.9812 280C87.877 280.451 87.8808 280.92 87.9919 281.369C88.1033 281.818 88.319 282.235 88.6218 282.585C89.1084 283.121 89.649 283.606 90.2346 284.032C90.5667 284.269 90.9227 284.459 91.0174 284.768L90.4719 286.025C89.8207 287.111 89.116 288.164 88.3608 289.18C87.9869 289.721 87.54 290.208 87.0324 290.627L86.2259 290.366C85.0417 289.655 83.8046 289.036 82.5254 288.516C82.0699 288.372 81.5875 288.333 81.1151 288.403C80.6425 288.473 80.1919 288.649 79.7975 288.919C79.1759 289.337 78.6831 289.92 78.3744 290.603C78.034 291.619 77.8034 292.669 77.6863 293.734C77.6863 294.28 77.5203 294.801 76.951 294.967C76.3354 295.13 75.7091 295.248 75.0771 295.323C74.0571 295.442 73.0133 295.466 71.9697 295.56L70.6651 295.75C70.326 295.278 70.0768 294.747 69.9296 294.185C69.6526 293.247 69.2453 292.353 68.72 291.528C68.4248 291.107 68.0481 290.749 67.612 290.476C67.176 290.203 66.6896 290.02 66.1818 289.939C65.4582 289.799 64.7086 289.926 64.0707 290.294C63.3057 290.807 62.6521 291.468 62.1492 292.24C61.6985 292.809 61.2953 293.473 60.3939 293.117C59.9155 292.902 59.4553 292.648 59.0181 292.358C57.8558 291.575 56.812 290.603 55.6734 289.844C55.3413 289.63 54.7958 289.346 54.3451 289.037C54.1697 288.934 54.0165 288.797 53.8944 288.634C53.6809 288.136 54.1316 287.448 54.5823 286.784C55.0419 286.066 55.6384 285.445 56.3376 284.957C56.4302 284.903 56.5112 284.832 56.5758 284.746C56.6403 284.661 56.6873 284.563 56.7137 284.459C56.7402 284.356 56.7458 284.248 56.7301 284.142C56.7144 284.036 56.6777 283.934 56.6223 283.842C56.5707 283.751 56.5012 283.67 56.4179 283.606C56.3345 283.542 56.2391 283.495 56.1372 283.468C56.0353 283.442 55.9292 283.436 55.825 283.451C55.7209 283.467 55.6209 283.503 55.5311 283.558C54.3963 284.289 53.4529 285.281 52.7795 286.452C52.4633 286.874 52.2477 287.362 52.1491 287.88C52.0504 288.398 52.0713 288.932 52.2102 289.441C52.3903 289.802 52.6498 290.118 52.9693 290.366C53.4674 290.793 54.179 291.172 54.5586 291.457C55.6972 292.24 56.6934 293.26 57.832 294.042C58.3675 294.442 58.9489 294.777 59.5636 295.039C60.2107 295.363 60.9562 295.431 61.6511 295.228C62.6103 294.877 63.4385 294.24 64.0232 293.402C64.4975 292.785 64.9245 292.026 65.826 292.192C66.0479 292.235 66.2588 292.323 66.4464 292.449C66.6338 292.575 66.7939 292.738 66.9171 292.928C67.3624 293.752 67.7049 294.629 67.9372 295.537C68.1915 296.384 68.6473 297.157 69.2655 297.79C69.5534 298.038 69.9084 298.195 70.2853 298.241C70.9211 298.259 71.5572 298.211 72.1832 298.099C73.2743 298.099 74.3181 298.099 75.3854 297.933C76.1848 297.869 76.9781 297.742 77.7576 297.553C78.557 297.372 79.2595 296.898 79.7264 296.225C80.2136 295.349 80.505 294.378 80.5803 293.378C80.699 292.548 80.7225 291.646 81.4581 291.148C81.7188 290.959 82.0273 291.148 82.3594 291.267C83.4504 291.718 84.5655 292.572 85.3481 292.904C85.9183 293.162 86.5277 293.322 87.1509 293.378C87.5789 293.371 87.9969 293.248 88.3608 293.022C89.2103 292.411 89.9553 291.666 90.5667 290.816C91.4207 289.63 92.1798 288.255 92.749 287.306C93.1621 286.652 93.4516 285.929 93.6031 285.171C93.695 284.687 93.6539 284.187 93.4843 283.724C93.3772 283.428 93.2162 283.155 93.0101 282.917C92.5085 282.362 91.9432 281.869 91.3257 281.447C91.0713 281.289 90.84 281.098 90.6379 280.877C90.5766 280.825 90.5279 280.759 90.4949 280.685C90.4622 280.611 90.4462 280.531 90.4481 280.45C90.5194 280.142 90.9227 280.023 91.2784 279.834Z" fill="url(#paint3_linear_70_6084)"/>
<path fill-rule="evenodd" clip-rule="evenodd" d="M95.4999 85.4644C94.6701 83.7803 93.6664 82.1874 92.5057 80.7116C91.6249 79.6198 90.4559 78.7966 89.1311 78.3351C88.4766 78.1786 87.7899 78.2199 87.1589 78.4539C86.2319 78.7391 85.1152 79.2859 84.117 79.6421C83.119 79.9986 82.6673 79.4996 82.2873 79.0006C81.5268 77.9549 80.9326 76.6242 80.2674 75.745C79.2941 74.4018 77.9933 73.3301 76.4887 72.6319C75.9997 72.455 75.4775 72.3889 74.9597 72.4382C74.442 72.4875 73.9416 72.6511 73.4946 72.917C72.6678 73.3637 72.0461 74.1132 71.7599 75.0082C71.4065 76.1663 71.4737 77.412 71.9499 78.5254C72.3429 79.4113 72.8372 80.2487 73.4233 81.0206C74.6773 82.4767 75.8515 83.9997 76.9402 85.5832C77.2492 86.0821 77.582 86.5811 77.8672 87.1041C76.9585 86.6562 76.0016 86.3135 75.0155 86.0821C74.3607 85.9636 73.6862 86.0294 73.0668 86.2724C72.651 86.4519 72.2897 86.7372 72.0188 87.1001C71.7475 87.4627 71.5765 87.8902 71.5221 88.3398C71.4765 89.776 71.8658 91.1924 72.6391 92.4035C73.3578 93.4622 74.3192 94.3341 75.4433 94.9461C77.677 96.1818 80.3386 96.2531 82.9763 97.3225C83.067 97.3862 83.1703 97.4294 83.2796 97.4489C83.3886 97.4686 83.5005 97.4641 83.6076 97.4358C83.7147 97.4076 83.8144 97.3563 83.8997 97.2855C83.985 97.2147 84.0536 97.1261 84.1011 97.0261C84.1486 96.9259 84.1735 96.8167 84.1742 96.7058C84.175 96.5951 84.1517 96.4854 84.1056 96.3847C84.0595 96.284 83.9921 96.1944 83.9078 96.1225C83.8237 96.0505 83.7247 95.9978 83.618 95.9681C81.4556 94.8749 79.2217 94.5659 77.273 93.5917C76.0741 93.0625 75.0694 92.174 74.3976 91.0488C74.1377 90.5901 73.9532 90.0928 73.8511 89.5755C73.8295 89.2908 73.8295 89.0048 73.8511 88.7201C73.8511 88.5773 73.8511 88.4111 73.9936 88.3636C74.5652 88.279 75.1483 88.4058 75.6333 88.7201C76.4412 89.0765 77.2967 89.528 78.0097 89.813C78.564 90.0244 79.1511 90.137 79.7444 90.1458C80.1042 90.1463 80.4505 90.0085 80.7115 89.7608C80.9725 89.5131 81.1283 89.1744 81.1466 88.8151C81.1449 88.28 81.0891 87.7466 80.9801 87.2229C80.8507 86.7027 80.6592 86.2002 80.4099 85.7257C80.1009 85.1317 79.7444 84.5612 79.4356 83.991C78.2999 82.3375 77.0701 80.7505 75.752 79.2381C75.3015 78.6496 74.9189 78.0117 74.6115 77.3372C74.4346 76.9424 74.3688 76.5069 74.4213 76.0777C74.4339 75.9373 74.4793 75.802 74.5536 75.6823C74.6277 75.5626 74.7291 75.4621 74.849 75.3885C75.2768 75.1271 75.7283 75.3885 76.1323 75.6975C76.8253 76.2352 77.448 76.8579 77.9859 77.5509C78.6752 78.4064 79.3404 79.6898 80.1246 80.7116C80.5367 81.2557 81.0343 81.7292 81.5981 82.1135C81.9541 82.3218 82.3517 82.4489 82.7623 82.4859C83.1732 82.523 83.5869 82.4688 83.9745 82.3275C85.0444 81.9435 86.0916 81.4993 87.1112 80.9968C87.6579 80.7591 88.1094 80.4501 88.4421 80.5453C89.4216 80.8284 90.3022 81.3799 90.9848 82.1375C92.1075 83.4442 93.0947 84.8614 93.9315 86.3674C94.0647 86.5284 94.2507 86.637 94.4566 86.6733C94.6625 86.7096 94.8743 86.6714 95.0546 86.5655C95.2349 86.4598 95.3714 86.2931 95.4401 86.0957C95.5085 85.8983 95.5044 85.6829 95.4287 85.4882L95.4999 85.4644Z" fill="#020202"/>
<path fill-rule="evenodd" clip-rule="evenodd" d="M53.0576 71.1112C53.1441 71.0603 53.2193 70.9922 53.2786 70.9111C53.3378 70.83 53.3798 70.7376 53.4021 70.6397C53.4244 70.5418 53.4264 70.4403 53.408 70.3416C53.3896 70.2429 53.3512 70.149 53.2952 70.0656C53.1832 69.8943 53.0087 69.7735 52.8089 69.7291C52.6091 69.6847 52.3999 69.7202 52.2259 69.828L49.7069 71.4915C49.1603 71.8954 48.1622 72.3707 47.3305 72.941C46.8947 73.2932 46.5246 73.7196 46.2374 74.2005C46.1187 74.4533 46.0571 74.7292 46.0571 75.0085C46.0571 75.2878 46.1187 75.5638 46.2374 75.8165C46.5982 76.5278 47.09 77.1648 47.6869 77.6939C48.1953 78.0922 48.745 78.4349 49.3267 78.7156C50.4911 79.2861 51.703 79.6424 52.915 80.1653C53.1097 80.2411 53.3252 80.2451 53.5226 80.1767C53.72 80.1081 53.8866 79.9715 53.9925 79.7913C54.0983 79.611 54.1365 79.3992 54.1002 79.1932C54.0638 78.9873 53.9554 78.8011 53.7943 78.6681C52.915 78.0264 51.9407 77.4799 51.0377 76.8622C50.5232 76.5066 50.0595 76.0829 49.6594 75.6025C49.5168 75.5103 49.3818 75.407 49.2554 75.2937L51.2515 73.1549L53.0576 71.1112Z" fill="#020202"/>
<path fill-rule="evenodd" clip-rule="evenodd" d="M59.5689 67.2139C58.7847 68.7347 57.9054 70.1843 57.1925 71.729C56.8768 72.3858 56.599 73.0602 56.3608 73.7489C56.0993 74.4143 55.8855 75.1272 55.6716 75.8164C55.1963 77.4798 54.8636 79.167 54.5309 80.8305C54.4939 81.0407 54.5346 81.2573 54.6454 81.4397C54.7562 81.6221 54.9296 81.7579 55.1332 81.8221C55.3368 81.8859 55.5568 81.8738 55.7521 81.7876C55.9473 81.7014 56.1045 81.547 56.1944 81.3535C56.8598 79.7613 57.644 78.2403 58.3331 76.6006C58.7847 75.5549 59.2362 74.4856 59.5926 73.3925C60.2105 71.5151 60.567 69.6378 61.0422 67.7366C61.1061 67.544 61.0951 67.3343 61.0115 67.1494C60.9278 66.9645 60.7776 66.8178 60.5907 66.7386C60.4926 66.7009 60.3878 66.6834 60.2828 66.687C60.1777 66.6906 60.0744 66.7153 59.9791 66.7597C59.8838 66.804 59.7983 66.8671 59.7278 66.9451C59.6574 67.0231 59.6033 67.1145 59.5689 67.2139Z" fill="#020202"/>
<path fill-rule="evenodd" clip-rule="evenodd" d="M65.2011 75.4361L64.0369 76.7906L61.9693 78.858C61.7784 78.9884 61.6464 79.1884 61.6019 79.4152C61.5574 79.642 61.604 79.8774 61.7317 80.07C61.7921 80.1657 61.8709 80.2484 61.9635 80.3134C62.0561 80.3785 62.1607 80.4243 62.2713 80.4488C62.3818 80.473 62.496 80.4752 62.6074 80.455C62.7185 80.435 62.8249 80.393 62.9199 80.3315L65.6051 78.549L67.1736 77.3611C67.7025 76.8896 68.1806 76.3638 68.5995 75.7926C68.9854 75.2998 69.2465 74.7209 69.36 74.1053C69.3671 73.883 69.3263 73.6617 69.2403 73.4567C69.1541 73.2516 69.0246 73.0676 68.8608 72.9171C68.4765 72.549 68.0542 72.2224 67.6013 71.9428C66.8337 71.4784 66.0402 71.0579 65.2249 70.6833C64.4511 70.3224 63.6578 70.005 62.8487 69.7328C62.6622 69.6512 62.4513 69.6453 62.2609 69.7162C62.0701 69.7872 61.9145 69.9294 61.8267 70.113C61.7452 70.2994 61.7393 70.5101 61.8102 70.7008C61.8812 70.8914 62.0234 71.0471 62.207 71.1348C62.8708 71.5513 63.5058 72.0117 64.1081 72.5131C64.704 73.007 65.2676 73.5388 65.7953 74.1053C66.1043 74.2479 66.5321 73.9152 65.2011 75.4361Z" fill="#020202"/>
<path fill-rule="evenodd" clip-rule="evenodd" d="M69.1933 57.423C69.9062 57.5656 70.9755 55.4981 70.9755 55.4506C71.0778 55.2602 71.1348 55.0488 71.1419 54.8327C71.1657 54.6116 71.1657 54.3885 71.1419 54.1674C70.8805 51.5533 70.1912 51.791 69.9537 51.6484C69.716 51.5058 69.1695 51.6484 68.4328 53.8109C68.3375 53.9889 68.2734 54.1817 68.2428 54.3812C68.2186 54.5865 68.2186 54.7938 68.2428 54.9991C68.2428 54.9991 68.504 57.3042 69.1933 57.423Z" fill="#020202"/>
<path fill-rule="evenodd" clip-rule="evenodd" d="M79.6736 60.8692C79.9078 60.7215 80.1232 60.546 80.3151 60.3464C80.5089 60.1576 80.684 59.9507 80.8381 59.7285C82.5728 57.5185 82.4303 57.3521 82.1213 56.8531C81.8123 56.354 81.2421 56.2827 78.9844 57.6848C78.7372 57.8455 78.4992 58.0201 78.2714 58.2076C78.0688 58.4183 77.8784 58.6405 77.7012 58.873C76.0852 61.2494 76.5605 61.6771 76.7507 61.8673C76.9407 62.0574 77.2972 62.4851 79.6736 60.8692Z" fill="#020202"/>
<path fill-rule="evenodd" clip-rule="evenodd" d="M80.1487 66.9049C80.2914 67.808 83.5708 67.7604 83.6421 67.7604C84.1166 67.7173 84.5859 67.6298 85.044 67.499C87.8957 66.7861 88.0147 66.5722 88.0147 66.0257C88.0147 65.4791 87.5632 64.8612 84.7828 64.7187C84.451 64.6836 84.1164 64.6836 83.7846 64.7187C83.4632 64.7673 83.1455 64.8387 82.8341 64.9325C79.9587 66.0732 80.1012 66.596 80.1487 66.9049Z" fill="#020202"/>
<path d="M49.7542 94.994C49.6543 94.9969 49.556 95.0197 49.4649 95.0608C49.3738 95.1018 49.2917 95.1605 49.2233 95.2334C49.1549 95.3061 49.1015 95.3918 49.0662 95.4852C49.0308 95.5787 49.0143 95.6783 49.0175 95.778C49.0175 99.4616 49.0175 99.7466 50.0393 100.531C50.7305 101.093 51.5448 101.484 52.4157 101.672C52.3602 102.893 52.6784 104.103 53.3281 105.139C53.9777 106.175 54.9278 106.988 56.0516 107.47C57.0699 107.948 58.1634 108.245 59.2835 108.349C60.3823 108.45 61.49 108.369 62.5628 108.112C63.9004 107.903 65.1456 107.302 66.1403 106.383C67.1347 105.465 67.8334 104.271 68.1474 102.955C68.1953 102.838 68.2179 102.713 68.2132 102.587C68.2084 102.461 68.1768 102.337 68.1203 102.225C68.0635 102.112 67.9835 102.013 67.8852 101.934C67.7868 101.855 67.6728 101.798 67.5505 101.767C67.4285 101.736 67.3009 101.732 67.1769 101.754C67.053 101.777 66.9354 101.826 66.8319 101.898C66.7285 101.97 66.6419 102.064 66.5777 102.172C66.5134 102.281 66.4735 102.402 66.4602 102.527C66.074 103.373 65.456 104.092 64.678 104.601C63.8999 105.11 62.9934 105.388 62.0638 105.402C61.2741 105.489 60.4772 105.489 59.6874 105.402C58.8753 105.322 58.0768 105.138 57.3111 104.856C56.6067 104.671 55.9596 104.314 55.4284 103.816C54.8972 103.318 54.4988 102.695 54.2693 102.004L54.9347 102.147C57.4179 102.604 59.9468 102.764 62.4678 102.622C64.207 102.494 65.9151 102.093 67.5296 101.434L69.4781 100.246C69.7144 100.064 69.9296 99.8571 70.1198 99.6279C70.3305 99.3904 70.5212 99.1362 70.69 98.8674C71.1598 98.3036 71.417 97.5932 71.417 96.8593C71.417 96.1257 71.1598 95.4151 70.69 94.8513C70.3737 94.506 69.9946 94.2238 69.5733 94.0196C67.7591 93.5028 65.8728 93.2859 63.9887 93.3781L58.523 93.8296C56.4793 94.0671 54.4356 94.4473 52.3682 94.7088L49.7542 94.994ZM51.1562 97.3702L51.679 96.3722L58.8082 96.0157H64.1787C65.4168 95.9739 66.6552 96.0939 67.8621 96.3722C68.1269 96.4266 68.3728 96.5496 68.5751 96.7287C68.5124 96.914 68.4243 97.09 68.3139 97.2515L67.7909 97.8694L66.4839 98.6536C64.7884 99.4132 62.9682 99.8561 61.1133 99.9606C59.1124 100.13 57.1005 100.123 55.101 99.9369C53.787 99.972 52.486 99.6692 51.3226 99.0576C50.9423 98.7486 50.8473 98.2257 51.1562 97.4177V97.3702Z" fill="#020202"/>
<path d="M70.1184 92.1646C70.5459 89.7896 70.2609 89.7896 69.8572 89.5521C69.4534 89.3146 68.9072 89.7658 67.4822 91.8083C67.4359 91.9159 67.3803 92.0192 67.3159 92.1171C67.3159 92.8771 69.6909 93.6608 70.0472 92.8771L70.1184 92.1646Z" fill="url(#paint4_linear_70_6084)"/>
<path d="M75.4434 66.881C74.865 65.0848 73.8626 63.4546 72.5202 62.1282C71.2303 60.8538 69.7564 59.7804 68.1478 58.9439C65.5674 57.6376 62.744 56.8808 59.8563 56.7213C56.9685 56.5618 54.079 57.003 51.3705 58.0171C48.5859 58.9545 46.0438 60.4979 43.9276 62.5361C41.8113 64.5743 40.1735 67.0565 39.1321 69.8039C38.2893 72.5124 38.2893 75.4129 39.1321 78.1213C39.933 80.7379 41.2592 83.1637 43.0293 85.2504C44.0987 86.5101 45.4057 87.6268 46.4989 88.7675C46.9642 89.233 47.3932 89.7336 47.7821 90.2647C48.4165 91.1026 48.9509 92.0117 49.3743 92.9736C49.3743 93.1639 49.5169 93.3776 49.6119 93.5916C49.8021 94.4471 51.3467 94.1381 51.3705 93.4728C51.3942 92.8074 51.1091 92.6886 50.9427 92.3084C50.5058 91.2166 49.9563 90.1733 49.303 89.1952C48.9039 88.5542 48.4591 87.9427 47.9722 87.3655C46.9504 86.1536 45.7622 84.9891 44.7879 83.7771C43.3388 81.8933 42.2878 79.7347 41.6986 77.4321C41.1267 75.2355 41.226 72.9179 41.9837 70.7783C42.891 68.4433 44.2966 66.3344 46.1024 64.5983C47.9083 62.8622 50.071 61.5408 52.4398 60.7262C54.7926 59.7945 57.3078 59.3419 59.8378 59.3949C62.3678 59.4479 64.8618 60.0056 67.1734 61.0351C68.6228 61.7398 69.9666 62.6437 71.1657 63.7204C72.3243 64.741 73.2277 66.0188 73.8037 67.4513C73.8794 67.6664 74.0357 67.8436 74.2397 67.9456C74.4437 68.0476 74.6791 68.0663 74.8966 67.9979C75.0078 67.9633 75.1106 67.9063 75.1992 67.8305C75.2876 67.7547 75.3595 67.6617 75.4106 67.5572C75.4616 67.4526 75.4911 67.3387 75.4966 67.2225C75.5023 67.1062 75.4842 66.99 75.4434 66.881Z" fill="url(#paint5_linear_70_6084)"/>
<path d="M292.419 304.123C290.724 305.155 288.725 305.575 286.758 305.312C285.95 305.229 285.153 305.062 284.379 304.813C283.611 304.573 282.876 304.237 282.191 303.814C281.344 303.364 280.603 302.739 280.016 301.98C279.43 301.221 279.012 300.346 278.79 299.413C278.79 298.723 278.599 298.081 278.599 297.367C278.715 295.564 278.635 293.754 278.361 291.968C278.162 290.964 277.664 290.044 276.934 289.328C276.596 289.035 276.168 288.867 275.721 288.852C275.233 288.879 274.748 288.943 274.27 289.042H267.705C267.297 288.38 266.939 287.689 266.635 286.973C266.366 286.286 266.19 285.566 266.111 284.832C266.04 284.271 266.04 283.704 266.111 283.143C266.192 282.587 266.344 282.043 266.563 281.526C267.074 279.945 268.139 278.602 269.56 277.744C270.637 277.198 271.827 276.914 273.033 276.914C274.24 276.914 275.43 277.198 276.506 277.744C277.719 278.291 284.712 282.001 280.05 288.59C279.934 288.77 279.893 288.989 279.938 289.198C279.982 289.408 280.108 289.591 280.288 289.708C281.088 290.412 281.799 291.211 282.405 292.087C283.002 292.955 283.497 293.889 283.88 294.87C284.256 295.853 284.558 296.863 284.784 297.891C285.026 298.756 285.439 299.565 285.997 300.269C286.53 300.897 287.236 301.354 288.027 301.583C288.818 301.811 289.659 301.801 290.445 301.554C290.808 301.465 291.166 301.353 291.515 301.221L292.467 300.769C292.576 300.719 292.675 300.648 292.756 300.56C292.838 300.472 292.902 300.369 292.944 300.256C292.986 300.143 293.005 300.024 293.001 299.904C292.997 299.783 292.969 299.665 292.919 299.556C292.869 299.447 292.798 299.348 292.71 299.266C292.622 299.184 292.518 299.121 292.406 299.079C292.293 299.037 292.173 299.017 292.053 299.022C291.933 299.026 291.815 299.054 291.706 299.104L290.159 299.413C289.795 299.478 289.419 299.436 289.077 299.293C288.735 299.149 288.442 298.91 288.233 298.604C287.898 297.973 287.673 297.289 287.567 296.583C287.349 295.628 287.022 294.702 286.592 293.823C285.932 292.726 285.132 291.718 284.213 290.826C283.542 290.219 282.808 289.685 282.024 289.233C282.024 289.233 282.215 289.233 282.286 289.066C286.14 283.595 282.786 277.791 277.814 275.294C276.567 274.623 275.197 274.212 273.787 274.086C272.376 273.959 270.955 274.119 269.608 274.556C268.284 275.065 267.101 275.884 266.158 276.943C265.214 278.002 264.538 279.272 264.185 280.646C263.991 281.36 263.879 282.094 263.852 282.834C263.8 283.583 263.856 284.337 264.018 285.07C264.216 285.962 264.528 286.826 264.946 287.639C265.211 288.124 265.505 288.592 265.826 289.042C265.03 289.063 264.236 289.126 263.447 289.233C262.765 289.311 262.094 289.471 261.449 289.708C260.989 289.881 260.586 290.177 260.284 290.565C259.842 291.176 259.512 291.86 259.308 292.586C258.987 293.946 258.788 295.331 258.714 296.725C258.338 300.189 258.458 303.69 259.071 307.12C259.482 309.47 260.399 311.701 261.758 313.661C261.887 313.835 262.078 313.952 262.291 313.987C262.504 314.023 262.722 313.974 262.9 313.852C263.072 313.727 263.188 313.541 263.224 313.332C263.26 313.123 263.212 312.908 263.09 312.734C261.987 310.927 261.304 308.894 261.092 306.787C260.725 303.562 260.829 300.301 261.402 297.106C261.544 296.226 261.711 295.013 261.996 293.919C262.11 293.423 262.303 292.95 262.567 292.515C262.353 292.134 263.519 292.325 263.875 292.277C264.608 292.175 265.347 292.119 266.088 292.111H269.679C276.149 291.873 275.555 291.373 275.864 293.157C276.043 294.538 276.138 295.928 276.149 297.32C276.243 299.688 276.586 302.041 277.172 304.337C277.722 306.612 278.453 308.839 279.36 310.997C279.446 311.224 279.617 311.408 279.838 311.509C280.059 311.609 280.311 311.617 280.538 311.532C280.765 311.447 280.949 311.275 281.049 311.055C281.15 310.834 281.158 310.582 281.073 310.355C280.506 308.687 280.038 306.987 279.67 305.265C279.955 305.589 280.265 305.892 280.597 306.169C281.484 306.839 282.482 307.347 283.547 307.667C284.583 308.004 285.669 308.165 286.758 308.143C289.307 308.133 291.762 307.184 293.656 305.479C293.753 305.406 293.834 305.315 293.895 305.211C293.955 305.107 293.995 304.991 294.01 304.872C294.026 304.752 294.017 304.63 293.985 304.514C293.953 304.398 293.897 304.289 293.823 304.194C293.741 304.089 293.637 304.003 293.519 303.941C293.401 303.879 293.27 303.844 293.137 303.837C293.004 303.83 292.871 303.852 292.747 303.902C292.623 303.951 292.511 304.027 292.419 304.123Z" fill="#020202"/>
<path d="M292.134 267.634C292.331 267.491 292.464 267.276 292.504 267.036C292.544 266.796 292.488 266.549 292.348 266.35C292.197 266.156 291.978 266.026 291.736 265.986C291.493 265.947 291.244 266 291.039 266.136L284.974 269.038C284.141 269.461 283.345 269.954 282.595 270.513C282.246 270.823 282.032 271.259 282.001 271.726C281.967 271.969 281.989 272.217 282.063 272.452C282.137 272.686 282.262 272.901 282.429 273.082C282.738 273.438 283.689 274.223 283.761 274.295L289.089 278.671C289.241 278.822 289.446 278.907 289.66 278.907C289.874 278.907 290.079 278.822 290.231 278.671C290.382 278.52 290.467 278.314 290.467 278.1C290.467 277.886 290.382 277.681 290.231 277.53L285.878 272.082L285.64 271.94L286.52 271.559L292.134 267.634Z" fill="#020202"/>
<path d="M299.127 277.268C299.03 277.337 298.948 277.424 298.885 277.525C298.821 277.625 298.779 277.737 298.759 277.854C298.739 277.971 298.742 278.091 298.769 278.207C298.795 278.323 298.844 278.432 298.913 278.529C299.06 278.721 299.274 278.85 299.513 278.89C299.751 278.93 299.996 278.877 300.197 278.743L306.263 275.841C307.101 275.436 307.898 274.95 308.642 274.39C308.971 274.094 309.183 273.688 309.236 273.248C309.269 273.008 309.248 272.764 309.174 272.534C309.1 272.303 308.975 272.092 308.808 271.916C308.388 271.486 307.944 271.081 307.476 270.703L302.148 266.303C302.075 266.22 301.985 266.154 301.886 266.107C301.786 266.061 301.677 266.035 301.567 266.032C301.457 266.028 301.347 266.048 301.245 266.088C301.142 266.129 301.05 266.19 300.971 266.268C300.894 266.346 300.833 266.439 300.792 266.542C300.751 266.644 300.732 266.754 300.735 266.864C300.738 266.974 300.764 267.082 300.811 267.182C300.857 267.282 300.924 267.371 301.006 267.445L305.359 272.796L305.597 272.963C305.294 273.067 305 273.195 304.717 273.344L299.127 277.268Z" fill="#020202"/>
<path d="M299.508 263.067C299.409 263.025 299.304 263.004 299.197 263.004C299.091 263.004 298.985 263.026 298.887 263.068C298.789 263.111 298.701 263.172 298.628 263.25C298.554 263.327 298.498 263.419 298.461 263.519C297.557 265.066 296.653 266.564 295.892 268.277C295.559 268.966 295.297 269.68 295.036 270.394C294.774 271.107 294.56 271.821 294.37 272.558C293.918 274.295 293.609 276.007 293.276 277.767C293.239 277.883 293.226 278.005 293.238 278.125C293.25 278.246 293.285 278.363 293.343 278.469C293.401 278.576 293.479 278.67 293.574 278.745C293.669 278.821 293.777 278.877 293.894 278.909C294.127 278.976 294.378 278.949 294.591 278.833C294.805 278.717 294.964 278.523 295.036 278.291C295.702 276.673 296.439 275.103 297.105 273.533C297.391 272.844 297.676 272.154 297.938 271.464C298.203 270.77 298.434 270.064 298.628 269.347C299.127 267.658 299.484 265.969 299.96 264.281C300.023 264.174 300.061 264.054 300.072 263.931C300.083 263.807 300.066 263.682 300.023 263.566C299.98 263.45 299.911 263.345 299.822 263.258C299.733 263.172 299.625 263.107 299.508 263.067Z" fill="#020202"/>
<path d="M315.231 269.347C313.827 256.55 317.157 260.665 305.335 258.976C301.6 258.429 297.835 258.103 294.061 258.001C292.158 258.001 290.278 258.001 288.399 258.167C286.52 258.334 284.546 258.572 282.715 258.857C280.883 259.143 279.242 259.262 277.41 259.547C272.819 260.332 272.653 258.786 272.486 264.59C272.451 265.105 272.451 265.621 272.486 266.136C272.51 266.607 272.565 267.076 272.653 267.539C272.891 268.729 273.319 269.918 273.557 270.988C273.565 271.099 273.597 271.207 273.649 271.305C273.701 271.404 273.773 271.49 273.86 271.559C273.947 271.628 274.047 271.679 274.155 271.708C274.262 271.736 274.374 271.742 274.484 271.726C274.59 271.723 274.693 271.699 274.789 271.655C274.884 271.611 274.97 271.548 275.041 271.471C275.112 271.393 275.167 271.302 275.202 271.203C275.237 271.104 275.252 270.998 275.245 270.893C275.498 269.527 275.641 268.143 275.674 266.754C275.657 265.955 275.569 265.159 275.412 264.376C275.293 263.519 275.031 262.687 275.031 261.831C275.942 261.652 276.864 261.533 277.791 261.474C279.551 261.355 281.311 261.355 283.024 261.284C284.736 261.212 286.71 261.165 288.566 261.141C290.421 261.117 292.253 261.141 294.084 261.141C297.771 261.141 301.434 261.141 305.145 261.426C307.167 261.569 309.308 261.426 311.377 261.426H311.71C311.853 262.544 312.019 263.662 312.091 264.804C312.162 265.946 312.091 267.183 312.233 268.515C312.376 269.847 312.352 270.893 312.424 272.225C312.685 276.031 312.971 279.813 313.066 283.5C313.084 283.659 313.151 283.808 313.256 283.928C309.799 284.425 306.297 284.544 302.814 284.285L298.485 284.142H295.559C292.899 284.197 290.244 284.427 287.614 284.832C287.498 284.823 287.381 284.839 287.271 284.879C287.162 284.919 287.062 284.982 286.979 285.065C286.896 285.147 286.833 285.246 286.792 285.356C286.751 285.465 286.734 285.582 286.743 285.698C286.752 285.815 286.786 285.928 286.842 286.03C286.899 286.132 286.977 286.221 287.071 286.29C287.165 286.359 287.273 286.407 287.387 286.43C287.502 286.454 287.62 286.452 287.733 286.426C289.517 286.426 291.278 286.426 293.014 286.711C292.84 287.321 292.705 287.94 292.609 288.567C292.574 289.002 292.574 289.44 292.609 289.875V291.183C292.609 292.23 292.871 293.205 292.966 294.228C292.946 294.47 293.022 294.711 293.178 294.898C293.334 295.084 293.557 295.203 293.799 295.227C293.918 295.24 294.039 295.228 294.154 295.193C294.269 295.158 294.375 295.099 294.466 295.021C294.558 294.943 294.632 294.847 294.685 294.74C294.738 294.632 294.768 294.514 294.774 294.394C295.06 293.348 295.321 292.349 295.511 291.278C295.548 290.835 295.548 290.39 295.511 289.946C295.559 289.503 295.559 289.057 295.511 288.614C295.429 288.036 295.31 287.464 295.155 286.902L296.986 287.068C299.074 287.246 301.17 287.318 303.266 287.282C306.853 287.247 310.417 286.703 313.851 285.665C313.969 285.639 314.08 285.591 314.179 285.522C314.278 285.453 314.362 285.365 314.426 285.263C314.491 285.161 314.534 285.047 314.554 284.928C314.573 284.809 314.569 284.688 314.541 284.571C314.541 284.428 314.398 284.356 314.327 284.261C314.484 284.204 314.62 284.101 314.717 283.965C314.815 283.829 314.87 283.667 314.874 283.5C315.135 280.717 315.445 277.839 315.492 274.937C315.528 273.07 315.441 271.203 315.231 269.347Z" fill="url(#paint6_linear_70_6084)"/>
<path d="M312.019 299.913C311.85 299.099 311.384 298.378 310.711 297.891C310.167 297.551 309.544 297.363 308.903 297.344C307.939 297.358 306.978 297.438 306.025 297.581L297.533 298.771C297.427 298.783 297.325 298.815 297.232 298.868C297.14 298.92 297.059 298.99 296.994 299.075C296.93 299.159 296.883 299.256 296.857 299.359C296.831 299.462 296.827 299.57 296.843 299.675C296.855 299.78 296.888 299.883 296.94 299.975C296.992 300.068 297.063 300.149 297.147 300.213C297.232 300.278 297.329 300.325 297.432 300.35C297.535 300.377 297.642 300.381 297.747 300.365L306.358 300.27H308.118C310.187 300.27 308.998 299.984 309.236 303.338C309.45 305.717 311.329 305.717 307 305.859L297.866 306.549C297.624 306.561 297.397 306.668 297.232 306.846C297.068 307.023 296.98 307.258 296.986 307.5C296.989 307.621 297.016 307.74 297.066 307.85C297.116 307.96 297.187 308.06 297.276 308.141C297.365 308.224 297.469 308.287 297.582 308.328C297.696 308.369 297.817 308.387 297.937 308.381L306.953 308.523C308.019 308.643 309.097 308.643 310.164 308.523C310.867 308.402 311.519 308.08 312.043 307.596C312.408 307.109 312.6 306.515 312.59 305.907C312.546 304.975 312.451 304.046 312.304 303.124C312.303 302.047 312.207 300.973 312.019 299.913Z" fill="#020202"/>
<defs>
<linearGradient id="paint0_linear_70_6084" x1="293.448" y1="110.69" x2="324.242" y2="110.69" gradientUnits="userSpaceOnUse">
<stop stop-color="#6BA1E6"/>
<stop offset="1" stop-color="#004DAD"/>
</linearGradient>
<linearGradient id="paint1_linear_70_6084" x1="162.395" y1="171.037" x2="182.915" y2="171.037" gradientUnits="userSpaceOnUse">
<stop stop-color="#E6846A"/>
<stop offset="1" stop-color="#AC2400"/>
</linearGradient>
<linearGradient id="paint2_linear_70_6084" x1="68.9101" y1="276.928" x2="80.6433" y2="276.928" gradientUnits="userSpaceOnUse">
<stop stop-color="#6BA1E6"/>
<stop offset="1" stop-color="#004DAD"/>
</linearGradient>
<linearGradient id="paint3_linear_70_6084" x1="54.2231" y1="277.104" x2="93.3648" y2="277.104" gradientUnits="userSpaceOnUse">
<stop stop-color="#6BA1E6"/>
<stop offset="1" stop-color="#004DAD"/>
</linearGradient>
<linearGradient id="paint4_linear_70_6084" x1="67.4642" y1="91.3485" x2="70.1826" y2="91.3485" gradientUnits="userSpaceOnUse">
<stop stop-color="#6BA1E6"/>
<stop offset="1" stop-color="#004DAD"/>
</linearGradient>
<linearGradient id="paint5_linear_70_6084" x1="40.3197" y1="75.4015" x2="73.6781" y2="75.4015" gradientUnits="userSpaceOnUse">
<stop stop-color="#6BA1E6"/>
<stop offset="1" stop-color="#004DAD"/>
</linearGradient>
<linearGradient id="paint6_linear_70_6084" x1="274.576" y1="276.617" x2="313.383" y2="276.617" gradientUnits="userSpaceOnUse">
<stop stop-color="#6BA1E6"/>
<stop offset="1" stop-color="#004DAD"/>
</linearGradient>
</defs>
</svg>
