<svg width="100" height="100" viewBox="0 0 100 100" fill="none" xmlns="http://www.w3.org/2000/svg">
<path fill-rule="evenodd" clip-rule="evenodd" d="M97.4485 88.8284C97.483 86.8199 97.0598 84.8305 96.2112 83.0096C95.3625 81.1892 94.1109 79.5861 92.5505 78.321C91.5102 77.7055 90.3758 77.2649 89.1926 77.0175C95.5525 72.0403 94.7228 60.1507 86.2698 58.4126C85.9298 58.373 85.5874 58.4613 85.3087 58.66C85.0297 58.8587 84.8349 59.154 84.7609 59.4881C84.6873 59.8221 84.7403 60.1721 84.9093 60.4693C85.0788 60.767 85.3523 60.991 85.6773 61.0987C92.2738 62.6785 91.6025 76.8992 79.3966 74.371C71.7728 72.6725 73.1159 59.1235 83.3466 59.874C83.6391 59.8586 83.9162 59.7386 84.128 59.5363C84.3397 59.3341 84.4715 59.0625 84.5004 58.7712C84.5289 58.4795 84.4521 58.1873 84.2843 57.9479C84.1161 57.708 83.8675 57.5366 83.5837 57.4646C81.1434 57.0624 78.6385 57.4867 76.467 58.6703C74.2955 59.8538 72.5811 61.7289 71.5967 63.9974C70.6118 66.2663 70.4131 68.7988 71.0318 71.1932C71.6505 73.588 73.0514 75.7073 75.0119 77.215C73.2172 77.823 71.599 78.8609 70.2975 80.2376C68.9964 81.6147 68.0516 83.2895 67.5461 85.1155C66.2327 82.4951 63.9951 80.4546 61.2654 79.3878C56.762 77.6497 57.3154 78.9136 59.409 77.1359C67.5857 70.421 66.361 54.3834 55.4585 52.1711C55.1185 52.1319 54.7761 52.2202 54.4975 52.4189C54.2188 52.6176 54.0236 52.9125 53.95 53.247C53.8764 53.581 53.929 53.9306 54.0985 54.2282C54.2675 54.5259 54.541 54.7499 54.866 54.8572C65.5313 57.5433 63.2798 79.5061 45.7412 75.2398C34.2859 72.87 35.945 51.8948 51.4294 53.1587C51.5853 53.1741 51.7425 53.1591 51.8921 53.1139C52.0417 53.0688 52.181 52.9944 52.3022 52.8954C52.4233 52.7965 52.5234 52.6746 52.5975 52.5368C52.6715 52.3987 52.7174 52.2479 52.7332 52.0923C52.7487 51.9367 52.7332 51.7796 52.6881 51.6296C52.643 51.4799 52.569 51.3406 52.4696 51.2195C52.3706 51.0984 52.2487 50.9982 52.111 50.9242C51.9732 50.8502 51.822 50.8043 51.6665 50.7888C48.2409 50.2655 44.7402 50.9404 41.7546 52.6995C38.7691 54.4586 36.4821 57.1938 35.2797 60.4436C34.0772 63.6934 34.0331 67.2587 35.1546 70.5373C36.2761 73.816 38.4947 76.607 41.4357 78.4398C39.1117 79.4183 36.9531 80.751 35.0365 82.3898C31.0863 85.7472 33.5749 86.1423 31.4814 82.0343C30.431 79.8703 28.5942 78.1892 26.3462 77.3334C24.5686 76.7804 24.8451 77.0175 25.0821 76.82C27.2719 74.9085 28.6653 72.2454 28.987 69.3566C29.3088 66.4678 28.5357 63.5636 26.8202 61.2171C25.1216 59.2814 20.895 56.9508 20.342 59.3998C20.2803 59.7493 20.3514 60.1091 20.5414 60.4088C20.7315 60.7084 21.0266 60.9265 21.369 61.0195C26.3462 62.4022 26.3462 70.4997 22.396 73.5017C21.2939 74.1549 20.0671 74.5697 18.7948 74.7193C17.5225 74.8693 16.2329 74.7506 15.0093 74.371C7.38557 72.6725 8.68909 59.1235 18.9595 59.874C19.2519 59.8586 19.5291 59.7386 19.7408 59.5363C19.9524 59.3341 20.0846 59.0625 20.1133 58.7712C20.1419 58.4795 20.0652 58.1873 19.897 57.9479C19.7288 57.708 19.4803 57.5366 19.1964 57.4646C16.7562 57.0624 14.2515 57.4867 12.0799 58.6703C9.90826 59.8538 8.19414 61.7289 7.20951 63.9974C6.22489 66.2663 6.02615 68.7988 6.64485 71.1932C7.26354 73.588 8.66423 75.7073 10.6247 77.215C8.211 78.089 6.09944 79.6383 4.54146 81.6789C3.70884 82.7995 3.11163 84.0772 2.78577 85.4349C2.45992 86.7926 2.41217 88.2022 2.6454 89.5789C2.6967 89.8611 2.8454 90.1164 3.06557 90.3001C3.28574 90.4838 3.56341 90.5843 3.85019 90.5843C4.13696 90.5843 4.41464 90.4838 4.63481 90.3001C4.85499 90.1164 5.00368 89.8611 5.05498 89.5789C5.80294 87.2114 7.16608 85.085 9.00513 83.4166C10.3372 81.7192 11.9384 80.2515 13.7453 79.0715C16.1087 79.5924 18.5639 79.5247 20.895 78.874C23.271 79.9115 25.3293 81.5609 26.8597 83.6537C28.2505 85.3043 29.4069 87.1386 30.2963 89.1051C29.4078 91.2798 29.0949 93.6473 29.3878 95.9783C29.4391 96.2602 29.5878 96.5155 29.8079 96.6992C30.0281 96.8828 30.3058 96.9838 30.5926 96.9838C30.8793 96.9838 31.157 96.8828 31.3772 96.6992C31.5974 96.5155 31.7461 96.2602 31.7974 95.9783C32.0687 93.6409 32.9851 91.4251 34.4439 89.5789C36.6246 86.7428 39.1154 84.1592 41.8702 81.8764L44.4773 80.1383C44.6555 80.0856 44.8181 79.991 44.9511 79.8616C48.0276 80.6042 51.2366 80.6042 54.313 79.8616C58.7586 81.9025 62.4391 85.3063 64.8204 89.5789C66.0554 91.5719 67.0751 93.6904 67.862 95.8992C67.9716 96.2119 68.1897 96.4747 68.4771 96.6398C68.7641 96.8052 69.1009 96.8618 69.4263 96.7997C69.7517 96.7375 70.0438 96.5606 70.25 96.3009C70.4559 96.0413 70.5616 95.7167 70.5481 95.3858C70.3292 93.6354 69.9726 91.9052 69.4817 90.2111C69.9951 89.4606 69.2446 89.2234 71.1407 86.261C71.4174 85.866 73.5501 83.5353 73.8268 83.219C75.139 81.5035 76.7437 80.0326 78.5669 78.874C80.8924 79.3755 83.3046 79.3074 85.5981 78.6765C87.8785 79.8054 89.8153 81.5241 91.2074 83.6537C92.6756 85.4444 93.8734 87.441 94.7624 89.5789C94.8622 89.9352 95.0989 90.2372 95.4211 90.4189C95.7433 90.6002 96.1245 90.6461 96.4807 90.5467C96.837 90.4474 97.139 90.2103 97.3207 89.8881C97.502 89.5658 97.5479 89.1847 97.4485 88.8284Z" fill="#020202"/>
<path fill-rule="evenodd" clip-rule="evenodd" d="M16.0363 10.8919C16.0363 8.0083 17.1818 7.85028 16.0363 6.94176C14.8907 6.03322 14.4957 6.38873 13.6267 8.99582C13.1132 10.8919 12.9947 13.9335 12.7577 15.079C10.2521 27.5391 9.86489 40.3324 11.6121 52.9214C11.6251 53.1106 11.6752 53.2955 11.7597 53.4657C11.8441 53.6355 11.9612 53.7871 12.1042 53.9118C12.2473 54.0365 12.4135 54.1319 12.5934 54.1924C12.7733 54.253 12.9634 54.2771 13.1527 54.2645C13.342 54.2514 13.5269 54.2011 13.6969 54.1168C13.8669 54.0325 14.0186 53.9153 14.1433 53.7721C14.268 53.6292 14.3633 53.4629 14.4238 53.2832C14.4843 53.1031 14.5087 52.9131 14.4957 52.7239C13.8242 40.9129 15.9968 12.6299 16.0363 10.8919Z" fill="#020202"/>
<path fill-rule="evenodd" clip-rule="evenodd" d="M78.8824 20.9254C58.8873 19.7032 38.8358 19.7032 18.8405 20.9254C16.6284 21.2415 16.6284 23.3745 18.8405 23.493C25.7927 23.493 33.2979 24.4411 47.0443 24.4806C60.7908 24.5201 69.4022 23.809 79.1195 23.572C79.3994 23.4637 79.6361 23.2672 79.7944 23.0125C79.9527 22.7577 80.024 22.4583 79.9971 22.1595C79.9701 21.8607 79.847 21.5788 79.646 21.3562C79.4449 21.1335 79.1769 20.9824 78.8824 20.9254Z" fill="url(#paint0_linear_66_5861)"/>
<path fill-rule="evenodd" clip-rule="evenodd" d="M22.3962 7.13951C33.9306 7.13951 45.8204 6.46798 57.355 7.13951C65.7688 7.61352 79.4361 6.82348 84.2946 10.6946C85.3218 11.4847 85.6773 19.4244 85.9931 21.992C87.5096 31.8169 87.92 41.7807 87.2178 51.697C87.181 52.0113 87.2709 52.3272 87.4672 52.5754C87.6635 52.8235 87.9505 52.9835 88.2648 53.0203C88.5791 53.0571 88.895 52.9672 89.1432 52.7709C89.3914 52.5746 89.5513 52.2876 89.5881 51.9733C90.8041 41.8911 90.9363 31.7075 89.9831 21.597C89.6669 17.4098 90.1806 9.74659 87.1387 7.13951C80.3446 1.92532 66.5585 3.42637 57.4337 3.07086C45.5833 2.75485 33.7331 3.90039 22.1987 4.4139C21.8769 4.4877 21.5922 4.67421 21.396 4.93969C21.1997 5.20518 21.105 5.53211 21.1289 5.86138C21.1527 6.19064 21.2936 6.50052 21.526 6.73493C21.7585 6.96934 22.0671 7.11283 22.3962 7.13951Z" fill="#020202"/>
<path fill-rule="evenodd" clip-rule="evenodd" d="M22.3964 15.5138C22.6446 15.7922 22.9489 16.0149 23.2893 16.1674C23.6297 16.3199 23.9984 16.3987 24.3714 16.3987C24.7444 16.3987 25.1132 16.3199 25.4535 16.1674C25.7939 16.0149 26.0982 15.7922 26.3465 15.5138C26.6475 14.9083 26.741 14.2206 26.6125 13.5567C26.484 12.8928 26.1407 12.2896 25.6355 11.8402C23.1074 10.1812 19.9868 13.0252 22.3964 15.5138Z" fill="#020202"/>
<path fill-rule="evenodd" clip-rule="evenodd" d="M30.9679 14.5258C31.2195 14.7987 31.5248 15.0165 31.8648 15.1655C32.2047 15.3145 32.5719 15.3914 32.943 15.3914C33.3141 15.3914 33.6813 15.3145 34.0212 15.1655C34.3611 15.0165 34.6665 14.7987 34.918 14.5258C35.2955 13.8955 35.4352 13.151 35.3121 12.4267C35.1889 11.7024 34.811 11.0459 34.2466 10.5757C31.837 9.19313 28.7164 11.9977 30.9679 14.5258Z" fill="#020202"/>
<path fill-rule="evenodd" clip-rule="evenodd" d="M40.5266 14.5267C40.7749 14.805 41.0792 15.0277 41.4196 15.1802C41.76 15.3327 42.1288 15.4116 42.5016 15.4116C42.8745 15.4116 43.2434 15.3327 43.5839 15.1802C43.9243 15.0277 44.2287 14.805 44.4769 14.5267C44.9507 14.0527 45.1086 11.5641 43.8051 10.8531C41.3956 9.19401 38.196 11.9986 40.5266 14.5267Z" fill="#020202"/>
<defs>
<linearGradient id="paint0_linear_66_5861" x1="20.2712" y1="22.2455" x2="76.9132" y2="22.2455" gradientUnits="userSpaceOnUse">
<stop stop-color="#E6846A"/>
<stop offset="1" stop-color="#AC2400"/>
</linearGradient>
</defs>
</svg>
