<svg width="360" height="360" viewBox="0 0 360 360" fill="none" xmlns="http://www.w3.org/2000/svg">
<path fill-rule="evenodd" clip-rule="evenodd" d="M53.8583 282.677C53.9443 280.906 54.6593 279.224 55.8747 277.933C56.6063 276.951 57.3986 276.016 58.247 275.133C59.5991 273.71 60.9513 272.358 62.1849 271.29C63.1332 271.528 64.1027 271.671 65.0791 271.717C65.1783 271.736 65.2807 271.733 65.3785 271.707C65.4764 271.682 65.5676 271.635 65.6455 271.571C65.7232 271.506 65.7859 271.426 65.8288 271.334C65.8718 271.242 65.8942 271.142 65.8942 271.041C65.8942 270.94 65.8718 270.84 65.8288 270.749C65.7859 270.657 65.7232 270.576 65.6455 270.512C65.5676 270.447 65.4764 270.401 65.3785 270.375C65.2807 270.35 65.1783 270.347 65.0791 270.365C59.8364 269.867 57.393 266.617 57.2981 263.249C58.038 263.626 58.8431 263.86 59.6703 263.936C60.0476 263.995 60.4317 263.995 60.809 263.936C61.1945 263.893 61.5707 263.788 61.9239 263.628C62.843 263.308 63.6612 262.752 64.2963 262.015C64.2963 262.015 64.2963 261.849 64.4148 261.754L65.3163 262.252C66.139 262.617 66.9978 262.895 67.8782 263.083C69.5303 263.384 71.2194 263.424 72.8838 263.201C73.0567 264.971 72.561 266.741 71.4942 268.164C70.4273 269.586 68.8665 270.558 67.1192 270.887C66.9178 270.912 66.7347 271.017 66.6102 271.177C66.4855 271.337 66.4297 271.54 66.4549 271.741C66.4801 271.943 66.5841 272.126 66.7444 272.25C66.9045 272.375 67.1075 272.431 67.3089 272.405C68.4494 272.301 69.5559 271.962 70.5589 271.409C71.3578 272.293 72.0877 273.236 72.7413 274.232C73.1208 274.801 73.4768 275.347 73.8088 275.94C74.1409 276.533 74.4731 277.102 74.7577 277.719C75.4946 279.18 76.0979 280.705 76.5608 282.274C76.5776 282.375 76.6147 282.47 76.6698 282.556C76.7246 282.642 76.7964 282.716 76.8804 282.774C76.9645 282.831 77.0595 282.871 77.1593 282.891C77.2592 282.912 77.3623 282.911 77.4621 282.891C77.6578 282.845 77.8283 282.726 77.9387 282.559C78.0492 282.391 78.0907 282.187 78.0551 281.989C77.8727 280.236 77.4906 278.508 76.9165 276.841C76.6636 276.096 76.3461 275.373 75.9675 274.683C75.5825 273.999 75.1293 273.355 74.6154 272.761C73.8024 271.866 72.8869 271.07 71.8872 270.389C72.9724 269.344 73.8072 268.067 74.329 266.654C74.8505 265.241 75.046 263.728 74.9002 262.229C74.8971 261.008 74.6532 259.801 74.1827 258.675C73.7122 257.55 73.0241 256.528 72.1582 255.668C71.2923 254.809 70.2651 254.129 69.1358 253.667C68.0065 253.205 66.7974 252.971 65.5771 252.977C62.9437 252.885 60.3787 253.826 58.4287 255.599C56.4789 257.371 55.2986 259.835 55.1394 262.466C55.0475 264.219 55.4935 265.958 56.4178 267.45C57.3421 268.943 58.7005 270.117 60.3108 270.816C58.9433 271.581 57.6489 272.471 56.4441 273.473C55.3779 274.394 54.451 275.465 53.6923 276.652C52.4726 278.232 51.8962 280.215 52.0792 282.203C52.3876 283.199 53.9058 283.389 53.8583 282.677ZM65.7196 255.61C67.3978 255.553 69.0375 256.121 70.3214 257.203C71.6053 258.286 72.4423 259.806 72.6703 261.469C71.2443 261.41 69.8326 261.163 68.4713 260.734C67.7742 260.51 67.0928 260.241 66.4311 259.927C65.7678 259.651 65.1254 259.326 64.5098 258.955C63.5013 258.295 62.591 257.496 61.8054 256.583C63.0142 256.001 64.3312 255.678 65.6721 255.634L65.7196 255.61ZM60.3108 257.365C60.9677 258.685 61.8787 259.862 62.9914 260.829L63.1337 260.948C62.8223 261.081 62.4958 261.177 62.1611 261.232C61.774 261.257 61.3859 261.257 60.9988 261.232L59.8601 261.398C59.0847 261.611 58.2901 261.746 57.4879 261.802C57.8583 260.029 58.8619 258.452 60.3108 257.365Z" fill="#020202"/>
<path fill-rule="evenodd" clip-rule="evenodd" d="M92.7393 265.811C91.2594 265.637 89.7679 265.581 88.2793 265.645H88.0422C88.0985 259.465 85.7409 253.507 81.4711 249.039C77.7502 245.646 72.913 243.739 67.878 243.678H65.8617C65.8731 243.504 65.8731 243.33 65.8617 243.156C65.7431 241.899 65.5296 240.784 65.4111 239.431C65.4175 239.253 65.3543 239.079 65.2349 238.946C65.1154 238.813 64.9487 238.732 64.7706 238.72C64.5894 238.713 64.4124 238.775 64.2759 238.894C64.1393 239.013 64.0531 239.18 64.035 239.36C63.7978 240.641 63.5132 241.875 63.3945 243.156V243.868C59.9931 244.257 56.6944 245.279 53.6684 246.88C48.5937 249.684 44.6085 254.112 42.3529 259.453C41.3473 261.92 40.7929 264.547 40.716 267.21C39.6011 267.21 38.5335 267.4 37.4186 267.519C37.306 267.499 37.1905 267.504 37.0801 267.534C36.9697 267.563 36.8671 267.617 36.7796 267.69C36.692 267.764 36.6216 267.855 36.5733 267.959C36.525 268.062 36.5 268.175 36.5 268.29C36.5 268.404 36.525 268.517 36.5733 268.621C36.6216 268.724 36.692 268.816 36.7796 268.889C36.8671 268.963 36.9697 269.016 37.0801 269.046C37.1905 269.075 37.306 269.081 37.4186 269.061C38.5573 269.203 39.7908 269.44 40.7872 269.559C40.9817 271.883 41.5588 274.16 42.4952 276.296C43.8716 279.042 45.8488 281.442 48.2801 283.319C50.7113 285.196 53.5341 286.501 56.5388 287.137C58.8646 287.729 61.2558 288.023 63.6555 288.015V289.059C63.7978 290.221 63.9878 291.431 64.13 292.475C64.1269 292.577 64.1441 292.68 64.1804 292.776C64.217 292.872 64.2718 292.96 64.3424 293.035C64.4129 293.11 64.4975 293.17 64.5913 293.213C64.6851 293.255 64.7862 293.278 64.8891 293.281C64.9907 293.281 65.0914 293.261 65.1853 293.221C65.2788 293.182 65.3636 293.124 65.4344 293.051C65.5052 292.978 65.5607 292.891 65.5973 292.796C65.6341 292.701 65.6515 292.6 65.6481 292.498C65.8583 291.336 66.0087 290.165 66.0989 288.988C66.1227 288.616 66.1227 288.244 66.0989 287.873C68.8584 287.627 71.5386 286.819 73.9749 285.5C74.0535 285.461 74.1231 285.405 74.1794 285.337C74.2357 285.27 74.2772 285.191 74.3017 285.106C74.3261 285.022 74.333 284.933 74.3216 284.846C74.3102 284.758 74.281 284.674 74.2357 284.599C74.1506 284.445 74.0079 284.331 73.839 284.282C73.6699 284.233 73.4885 284.253 73.3343 284.338C71.0446 285.471 68.5535 286.14 66.0042 286.307C66.0158 286.188 66.0158 286.069 66.0042 285.951C65.8028 284.844 65.5334 283.751 65.1976 282.677C65.1881 282.59 65.1617 282.506 65.1197 282.429C65.0777 282.352 65.0209 282.284 64.9527 282.229C64.8843 282.173 64.806 282.132 64.7217 282.108C64.6376 282.083 64.5492 282.075 64.4621 282.084C64.3749 282.094 64.2903 282.12 64.2134 282.162C64.1362 282.204 64.0683 282.261 64.0132 282.329C63.9581 282.397 63.9172 282.476 63.8923 282.56C63.8676 282.644 63.8598 282.732 63.869 282.82C63.869 283.982 63.6318 285.192 63.5845 286.259V286.591C61.334 286.58 59.097 286.244 56.9421 285.595C54.8138 284.82 52.7643 283.843 50.8217 282.677C49.3269 281.988 47.988 281.002 46.8868 279.778C45.7856 278.555 44.9452 277.119 44.4167 275.561C43.6627 273.731 43.2062 271.793 43.0645 269.82H43.705C45.1545 269.66 46.5848 269.358 47.9751 268.918C48.1364 268.869 48.2739 268.762 48.3614 268.617C48.4489 268.473 48.4802 268.302 48.4495 268.136C48.4409 268.049 48.4147 267.965 48.3725 267.889C48.3303 267.813 48.2731 267.746 48.2043 267.693C48.1354 267.639 48.0565 267.601 47.9722 267.579C47.8879 267.557 47.8001 267.553 47.7141 267.566C46.4805 267.566 45.3419 267.353 44.0846 267.258H42.9696C43.0953 264.938 43.6251 262.658 44.5353 260.521C46.6215 255.705 50.2636 251.729 54.8783 249.229C57.5365 247.81 60.43 246.886 63.4182 246.501C63.4182 247.734 63.703 248.873 63.8215 250.201C63.8151 250.405 63.8883 250.603 64.0255 250.754C64.1628 250.905 64.3535 250.996 64.5571 251.008C64.763 251.008 64.9613 250.93 65.1112 250.789C65.2613 250.648 65.3515 250.454 65.3636 250.249C65.5296 248.968 65.7194 247.734 65.8144 246.477C65.8027 246.414 65.8027 246.35 65.8144 246.287H67.7595C72.2034 246.26 76.5047 247.854 79.858 250.771C81.8437 252.767 83.4153 255.135 84.4819 257.741C85.5487 260.347 86.0895 263.138 86.0731 265.953H85.6936C84.4125 266.143 83.2027 266.499 81.8981 266.593C81.7169 266.587 81.54 266.649 81.4034 266.768C81.2668 266.887 81.1806 267.054 81.1626 267.234C81.1619 267.411 81.2269 267.582 81.3455 267.714C81.4637 267.845 81.6269 267.928 81.8031 267.946C83.1835 268.244 84.5899 268.403 86.0021 268.42C85.8917 271.476 85.0787 274.465 83.6266 277.155C82.1743 279.846 80.1216 282.166 77.6281 283.935C77.539 283.986 77.4611 284.054 77.3994 284.137C77.3376 284.219 77.2932 284.313 77.269 284.412C77.2446 284.512 77.2407 284.616 77.2576 284.717C77.2745 284.819 77.3118 284.916 77.3671 285.002C77.479 285.173 77.6531 285.294 77.8526 285.338C78.0521 285.382 78.2608 285.347 78.4347 285.239C81.226 283.339 83.5369 280.815 85.1837 277.867C86.8308 274.919 87.7689 271.628 87.9235 268.254L88.9436 268.112C90.2484 267.875 91.4582 267.543 92.7393 267.353C92.8407 267.36 92.9426 267.345 93.0378 267.309C93.1331 267.273 93.2195 267.218 93.2915 267.146C93.3634 267.074 93.4193 266.987 93.4549 266.892C93.4905 266.797 93.5052 266.695 93.4983 266.593C93.505 266.491 93.49 266.388 93.4546 266.292C93.4192 266.195 93.3639 266.108 93.2924 266.034C93.2209 265.96 93.1347 265.902 93.0395 265.864C92.9443 265.825 92.8419 265.807 92.7393 265.811Z" fill="url(#paint0_linear_70_6082)"/>
<path fill-rule="evenodd" clip-rule="evenodd" d="M204.073 205.581C205.506 205.478 206.861 204.887 207.912 203.908C208.964 202.928 209.649 201.619 209.853 200.196C209.949 199.381 209.853 198.555 209.571 197.785C209.289 197.015 208.83 196.322 208.23 195.762C206.282 194.312 204.059 193.275 201.697 192.713C200.871 192.492 200.083 192.145 199.361 191.684C199.151 191.581 198.966 191.431 198.822 191.245C198.678 191.06 198.578 190.844 198.53 190.615C198.293 188.675 199.718 187.923 201.42 187.764C203.584 187.576 205.756 188.016 207.675 189.031C207.799 189.134 207.943 189.209 208.098 189.253C208.253 189.296 208.415 189.306 208.574 189.283C208.733 189.26 208.886 189.203 209.022 189.117C209.158 189.031 209.274 188.918 209.363 188.784C209.452 188.65 209.512 188.499 209.54 188.34C209.567 188.182 209.56 188.02 209.52 187.864C209.481 187.708 209.409 187.562 209.309 187.436C209.21 187.31 209.085 187.206 208.942 187.131C207.964 186.45 206.899 185.904 205.775 185.508L206.013 185.191C206.196 184.907 206.343 184.601 206.448 184.28C206.537 183.955 206.603 183.625 206.646 183.291C207.082 179.767 206.646 179.332 206.052 179.332C205.458 179.332 204.746 178.975 202.806 182.024C202.609 182.306 202.449 182.612 202.331 182.935C202.178 183.256 202.097 183.607 202.093 183.964C202.074 184.214 202.074 184.466 202.093 184.716C201.185 184.616 200.269 184.616 199.361 184.716C198.642 184.79 197.945 185.006 197.31 185.351C196.675 185.696 196.115 186.164 195.661 186.728C195.209 187.291 194.872 187.939 194.671 188.633C194.47 189.328 194.409 190.055 194.492 190.773C194.512 191.601 194.726 192.412 195.118 193.141C195.51 193.871 196.069 194.497 196.748 194.97C198.71 196.168 200.828 197.088 203.043 197.702C204.31 198.177 205.617 198.494 205.498 199.879C205.379 201.265 203.717 202.017 201.975 202.176C199.845 202.38 197.701 201.967 195.798 200.988C195.332 200.638 194.93 200.209 194.61 199.721C194.191 199.146 193.845 198.521 193.581 197.86C193.442 197.547 193.186 197.301 192.868 197.175C192.549 197.05 192.194 197.054 191.879 197.187C191.72 197.252 191.577 197.348 191.456 197.469C191.336 197.591 191.242 197.736 191.179 197.895C191.116 198.054 191.086 198.224 191.09 198.395C191.095 198.566 191.134 198.734 191.206 198.889C191.544 199.902 192.024 200.862 192.631 201.74C193.091 202.392 193.653 202.967 194.294 203.443C194.844 203.801 195.427 204.106 196.036 204.353C195.859 204.627 195.713 204.919 195.6 205.224C195.5 205.546 195.434 205.878 195.402 206.214C194.927 209.777 195.402 210.173 195.996 210.173C196.59 210.173 197.303 210.529 199.243 207.481C199.432 207.194 199.591 206.889 199.718 206.57C199.834 206.237 199.914 205.892 199.955 205.541V205.145C201.302 205.477 202.687 205.623 204.073 205.581Z" fill="#020202"/>
<path fill-rule="evenodd" clip-rule="evenodd" d="M171.213 175.729C170.924 174.898 170.366 174.188 169.629 173.709C169.768 173.536 169.863 173.333 169.906 173.116C170.144 166.266 176.003 161.951 178.497 156.171C179.747 153.193 179.901 149.868 178.933 146.788C178.603 145.739 178.22 144.709 177.785 143.699C177.254 142.711 176.658 141.759 176.003 140.849C170.975 133.129 160.167 130.951 150.625 133.485C141.084 136.019 132.809 143.145 132.453 152.687C132.333 154.557 132.625 156.43 133.309 158.175C133.994 159.919 135.053 161.492 136.412 162.782C139.462 165.263 142.721 167.475 146.152 169.394C147.696 170.206 149.056 171.329 150.146 172.692C151.236 174.054 152.032 175.627 152.486 177.312C152.486 177.51 152.684 177.589 152.763 177.748C152.631 177.88 152.536 178.045 152.487 178.225C152.439 178.406 152.438 178.596 152.486 178.777C152.523 178.921 152.588 179.057 152.678 179.175C152.768 179.294 152.881 179.394 153.011 179.467C153.14 179.541 153.283 179.588 153.431 179.606C153.579 179.623 153.729 179.61 153.872 179.569L164.126 178.064C164.878 178.064 166.026 177.589 167.135 177.352H168.045C168.212 178.971 168.212 180.602 168.045 182.221C168.282 183.436 168.428 184.667 168.481 185.903C168.496 186.415 168.373 186.921 168.125 187.368C167.532 188.276 166.712 189.013 165.747 189.506C164.782 189.999 163.704 190.231 162.621 190.179C161.494 190.211 160.379 189.942 159.391 189.399C158.402 188.856 157.577 188.06 156.999 187.091L156.762 186.537H159.217C160.277 186.463 161.319 186.222 162.305 185.824C166.699 184.201 166.976 183.766 166.778 182.815C166.58 181.865 166.066 181.509 161.434 181.826C160.92 181.784 160.403 181.784 159.89 181.826C159.35 181.924 158.82 182.069 158.306 182.261C157.398 182.662 156.513 183.111 155.653 183.607C155.351 182.826 155.126 182.017 154.98 181.192C154.922 180.851 154.731 180.547 154.449 180.346C154.167 180.146 153.817 180.066 153.476 180.123C153.306 180.142 153.142 180.196 152.995 180.281C152.847 180.367 152.719 180.482 152.618 180.62C152.518 180.758 152.447 180.915 152.41 181.081C152.374 181.248 152.373 181.421 152.407 181.588C152.536 182.727 152.761 183.853 153.08 184.953C153.397 186.057 153.78 187.142 154.228 188.2C154.965 189.79 156.121 191.149 157.572 192.132C159.022 193.116 160.713 193.686 162.463 193.782C164.282 194.015 166.131 193.756 167.816 193.032C169.501 192.308 170.961 191.145 172.044 189.665C172.601 188.794 172.94 187.803 173.034 186.774C173.117 184.982 172.971 183.185 172.598 181.43C172.305 179.492 171.841 177.585 171.213 175.729ZM166.66 173.63C165.472 173.947 164.205 174.58 163.374 174.818L154.743 176.956C153.436 168.8 144.093 166.068 138.906 160.526C137.948 159.518 137.227 158.309 136.796 156.987C136.364 155.665 136.233 154.263 136.412 152.885C136.887 144.966 144.014 139.78 151.932 137.721C159.85 135.662 168.758 136.731 173.113 143.026C173.628 143.779 174.103 144.57 174.538 145.362C174.965 146.194 175.335 147.054 175.647 147.936C176.503 150.22 176.503 152.738 175.647 155.022C173.43 161.08 167.729 165.91 167.729 173.076C167.706 173.22 167.706 173.367 167.729 173.511L166.66 173.63Z" fill="#020202"/>
<path fill-rule="evenodd" clip-rule="evenodd" d="M225.017 183.885C222.199 178.901 217.774 175.021 212.466 172.878C207.267 170.456 201.459 169.655 195.798 170.582C191.32 171.501 187.131 173.49 183.587 176.378C180.044 179.267 177.252 182.969 175.449 187.171C173.627 191.399 173.148 196.086 174.075 200.596C175.003 205.106 177.292 209.223 180.635 212.39C181.862 213.629 183.186 214.767 184.594 215.795C186.019 216.861 187.576 217.74 189.226 218.408C191.159 219.124 193.187 219.551 195.244 219.675C198.209 219.819 201.18 219.66 204.113 219.2C204.264 219.18 204.41 219.131 204.542 219.054C204.674 218.978 204.789 218.876 204.882 218.754C204.974 218.632 205.041 218.494 205.079 218.346C205.116 218.198 205.125 218.044 205.102 217.893C205.088 217.743 205.043 217.598 204.971 217.467C204.898 217.334 204.8 217.219 204.681 217.126C204.563 217.034 204.426 216.966 204.281 216.928C204.136 216.89 203.984 216.881 203.835 216.903C201.067 217.288 198.265 217.354 195.481 217.101C193.695 216.966 191.943 216.538 190.295 215.835C188.879 215.2 187.549 214.389 186.336 213.419C185.113 212.42 183.961 211.335 182.892 210.173C180.186 207.4 178.389 203.87 177.738 200.051C177.088 196.232 177.615 192.306 179.249 188.794C180.84 185.256 183.25 182.148 186.279 179.725C189.308 177.302 192.869 175.634 196.669 174.858C201.428 174.052 206.317 174.672 210.724 176.639C215.238 178.306 219.059 181.444 221.572 185.547C222.987 188.261 223.79 191.251 223.927 194.308C224.064 197.365 223.53 200.415 222.364 203.244C221.276 206.135 219.551 208.743 217.316 210.874C215.082 213.006 212.395 214.607 209.457 215.557C209.163 215.681 208.924 215.909 208.787 216.197C208.648 216.485 208.621 216.813 208.709 217.12C208.796 217.427 208.993 217.691 209.262 217.863C209.532 218.035 209.855 218.102 210.17 218.052C213.567 217.073 216.698 215.335 219.325 212.969C221.952 210.602 224.007 207.67 225.333 204.393C226.765 201.154 227.478 197.644 227.424 194.104C227.369 190.563 226.548 187.077 225.017 183.885Z" fill="#020202"/>
<path fill-rule="evenodd" clip-rule="evenodd" d="M194.294 150.47C195.323 152.014 196.471 153.518 197.58 154.904C197.671 155.047 197.791 155.171 197.933 155.265C198.074 155.36 198.233 155.424 198.401 155.454C198.569 155.484 198.741 155.478 198.906 155.438C199.071 155.398 199.226 155.324 199.362 155.221C199.507 155.132 199.633 155.015 199.732 154.876C199.831 154.737 199.902 154.58 199.938 154.414C199.975 154.248 199.978 154.076 199.947 153.908C199.916 153.74 199.852 153.581 199.757 153.439C198.807 151.934 197.936 150.39 197.145 148.807C196.313 147.263 195.6 145.639 194.927 144.056C194.927 143.739 194.848 143.462 194.69 143.224C198.196 143.993 201.553 145.33 204.627 147.184C206.166 148.138 207.599 149.253 208.903 150.509C210.193 151.644 211.289 152.981 212.149 154.468C212.795 155.59 213.3 156.787 213.654 158.031C214.248 160.13 214.644 162.307 215.119 164.326C215.138 164.477 215.187 164.621 215.264 164.752C215.341 164.882 215.444 164.995 215.567 165.084C215.689 165.173 215.828 165.236 215.976 165.269C216.124 165.302 216.276 165.305 216.425 165.277C216.694 165.22 216.933 165.069 217.1 164.852C217.268 164.634 217.351 164.363 217.336 164.089C217.336 161.911 217.138 159.655 216.821 157.438C216.59 155.865 216.178 154.324 215.594 152.845C214.085 149.624 211.714 146.884 208.744 144.927C205.519 142.919 201.925 141.573 198.174 140.968C199.995 140.414 201.845 139.965 203.717 139.622C206.137 139.175 208.583 138.885 211.041 138.751C211.189 138.761 211.339 138.742 211.48 138.694C211.621 138.645 211.751 138.569 211.862 138.469C211.973 138.369 212.063 138.248 212.126 138.113C212.189 137.977 212.224 137.831 212.229 137.682C212.229 137.38 212.115 137.089 211.909 136.869C211.703 136.648 211.421 136.514 211.12 136.494C208.005 136.137 204.861 136.097 201.737 136.375C199.613 136.584 197.509 136.954 195.442 137.484C194.27 137.756 193.118 138.113 191.998 138.553C191.186 138.875 190.476 139.408 189.939 140.097C189.734 140.394 189.594 140.73 189.526 141.085C189.457 141.439 189.463 141.804 189.543 142.155C190.039 143.448 190.648 144.693 191.364 145.877C192.235 147.382 193.265 148.926 194.294 150.47Z" fill="url(#paint1_linear_70_6082)"/>
<path fill-rule="evenodd" clip-rule="evenodd" d="M168.084 214.805C167.332 214.053 166.303 213.3 165.749 212.746L157.157 204.828C157.054 204.722 156.931 204.639 156.795 204.582C156.659 204.525 156.513 204.495 156.366 204.495C156.218 204.495 156.072 204.525 155.936 204.582C155.8 204.639 155.677 204.722 155.574 204.828C155.462 204.931 155.373 205.057 155.312 205.197C155.252 205.336 155.22 205.487 155.22 205.64C155.22 205.792 155.252 205.942 155.312 206.082C155.373 206.222 155.462 206.347 155.574 206.451L162.661 215.438C156.782 215.223 151.125 213.143 146.507 209.499C143.838 207.474 141.727 204.804 140.371 201.74C139.024 198.695 138.598 195.324 139.143 192.04C139.286 190.996 139.552 189.973 139.935 188.991C140.297 187.983 140.734 187.004 141.242 186.062C141.408 185.809 141.468 185.501 141.409 185.205C141.35 184.908 141.176 184.647 140.925 184.478C140.665 184.326 140.357 184.277 140.063 184.343C139.769 184.409 139.511 184.585 139.341 184.834C138.64 185.827 138.018 186.872 137.481 187.962C137.038 189.081 136.68 190.233 136.412 191.407C135.254 195.296 135.351 199.452 136.689 203.284C138.143 207.091 140.674 210.393 143.974 212.786C149.05 216.373 155.139 218.246 161.354 218.13L148.566 224.9C148.256 225.032 148.008 225.278 147.875 225.588C147.743 225.898 147.735 226.248 147.853 226.563C147.993 226.886 148.254 227.141 148.579 227.275C148.905 227.408 149.27 227.408 149.595 227.276C152.525 226.247 155.455 225.138 158.345 223.95L164.125 221.535C164.442 221.535 167.095 220.11 168.084 219.556C168.631 219.268 169.059 218.796 169.291 218.224C169.522 217.651 169.544 217.015 169.351 216.428C169.033 215.813 168.604 215.263 168.084 214.805Z" fill="url(#paint2_linear_70_6082)"/>
<path fill-rule="evenodd" clip-rule="evenodd" d="M57.9631 83.8004C58.984 84.2042 60.0692 84.4213 61.1668 84.4412C62.0836 84.5008 63.0032 84.5008 63.9199 84.4412C65.8185 84.2987 67.2186 83.8714 69.8054 83.7529C70.3274 83.7529 71.8463 83.9189 72.8193 83.7529C73.333 83.7126 73.8294 83.5496 74.2671 83.2782C75.1017 82.6596 75.7104 81.7842 75.9994 80.7864C76.4286 78.9847 76.5649 77.1256 76.4029 75.2805C76.4029 73.9278 76.5927 71.3885 76.4029 69.3238C76.3523 68.2863 76.0942 67.2694 75.6434 66.3336C75.0387 65.2998 74.331 64.3298 73.5313 63.4383C72.4063 62.1534 71.2014 60.9407 69.9242 59.8072C69.6377 59.5512 69.2637 59.4153 68.8799 59.4275C68.0966 59.4275 66.2218 59.7835 65.9133 59.8072L59.0073 60.7328C58.8357 60.7544 58.6736 60.8237 58.5394 60.9327C58.4052 61.0418 58.3042 61.1863 58.2479 61.3498C58.1893 61.1893 58.0827 61.0508 57.9426 60.9532C57.8024 60.8555 57.6355 60.8034 57.4647 60.804C57.3588 60.8071 57.2544 60.831 57.1577 60.8744C57.061 60.9178 56.9737 60.9799 56.901 61.057C56.8283 61.1341 56.7715 61.2249 56.7338 61.324C56.6962 61.4231 56.6784 61.5286 56.6816 61.6346L56.4442 75.7315C56.4442 76.7757 56.112 78.5081 56.0883 79.9795C56.0486 80.742 56.1451 81.5054 56.3731 82.234C56.5166 82.5902 56.7318 82.913 57.0053 83.1825C57.2788 83.452 57.6049 83.6622 57.9631 83.8004ZM71.6327 65.052C72.288 65.8375 72.8606 66.6884 73.3416 67.5914C73.5185 68.022 73.6228 68.4792 73.6501 68.9441L73.5076 68.9203C72.1664 68.6607 70.8115 68.4785 69.4494 68.3745C68.9502 68.3031 68.4678 68.1423 68.0256 67.8999C68.0256 67.4964 68.2154 66.8557 68.2154 66.4047V64.1502L68.0729 62.1092C68.4051 62.1092 68.6899 62.1092 68.8086 61.8719C69.8073 62.8797 70.75 63.9414 71.6327 65.052ZM59.2209 62.6788L66.032 62.0618L65.676 64.079C65.676 64.2689 65.415 65.0758 65.2487 66.0013C65.1587 66.7018 65.1112 67.4072 65.1065 68.1135C65.078 68.5293 65.1445 68.9462 65.3008 69.3326C65.457 69.7191 65.6988 70.065 66.0083 70.3443C66.7744 70.7706 67.6254 71.0219 68.5001 71.08C70.0664 71.08 71.704 70.7003 73.2466 70.7952C73.3933 70.8408 73.5506 70.8408 73.6976 70.7952C73.6976 72.5988 73.4363 74.4974 73.4363 75.5416C73.5275 76.6552 73.5275 77.7743 73.4363 78.8878C72.9618 82.6138 71.2767 80.7627 69.7579 80.8339C67.1236 81 65.6998 81.4272 63.7537 81.617C62.9635 81.6689 62.1707 81.6689 61.3806 81.617C60.7683 81.6295 60.1561 81.5818 59.5531 81.4746C59.3396 81.4746 59.1022 81.1424 58.9836 81.261C58.8294 80.6891 58.7653 80.0966 58.7937 79.5049C58.7937 78.1521 58.9598 76.7045 58.9124 75.8026L58.3191 62.0855C58.404 62.2463 58.5356 62.3777 58.6965 62.4624C58.8575 62.5471 59.0403 62.5812 59.2209 62.5602V62.6788Z" fill="#020202"/>
<path fill-rule="evenodd" clip-rule="evenodd" d="M88.2213 104.875C87.8981 104.532 87.5214 104.243 87.1058 104.02C86.7757 103.881 86.4341 103.77 86.0855 103.688C86.9172 102.922 87.51 101.933 87.7922 100.838C88.0741 99.743 88.0337 98.59 87.6755 97.5177C87.2621 96.1898 86.4598 95.0165 85.3725 94.1492C84.2852 93.2818 82.9628 92.7605 81.5763 92.6527C80.3135 92.5606 79.0617 92.941 78.0639 93.7205C76.7736 94.8033 75.9283 96.3247 75.6908 97.9924C75.4716 98.9327 75.5198 99.9155 75.8302 100.83C76.1406 101.744 76.7007 102.553 77.4469 103.166C76.8313 103.311 76.234 103.526 75.6671 103.807C75.2795 104.03 74.9275 104.31 74.6228 104.637C74.3195 104.978 74.0568 105.352 73.8397 105.753C73.3562 106.666 73.0579 107.666 72.9615 108.696C72.5359 108.172 72.0409 107.709 71.4902 107.319C70.9161 106.967 70.3126 106.665 69.6866 106.417C70.4632 105.538 70.9914 104.468 71.2166 103.316C71.4419 102.165 71.3562 100.974 70.9681 99.8672C70.3547 98.085 69.0767 96.6085 67.4006 95.7461C65.7246 94.884 63.7802 94.7023 61.9735 95.2393C60.824 95.5982 59.7844 96.2428 58.9517 97.1125C58.119 97.9824 57.5206 99.0493 57.2124 100.214C56.9042 101.378 56.8963 102.601 57.1894 103.769C57.4825 104.937 58.0671 106.011 58.8885 106.892C58.5562 107.034 58.2002 107.153 57.8917 107.319C57.3173 107.679 56.7841 108.101 56.3017 108.577C56.3017 108.719 56.1118 108.885 55.9931 109.004C55.8766 107.947 55.5541 106.923 55.0439 105.99C54.8067 105.578 54.5109 105.202 54.1658 104.875C53.8496 104.55 53.4903 104.27 53.0978 104.044C52.7489 103.912 52.3923 103.801 52.0299 103.712C52.8662 102.944 53.4617 101.95 53.7439 100.851C54.0262 99.7511 53.9831 98.5933 53.6199 97.5177C53.1932 96.2259 52.3968 95.0878 51.3296 94.2442C50.2624 93.4004 48.9711 92.8883 47.6157 92.7712C46.3602 92.6784 45.1154 93.0593 44.1271 93.8393C42.8295 94.9161 41.9827 96.4404 41.7539 98.1109C41.529 99.0512 41.5745 100.036 41.8853 100.951C42.196 101.867 42.7593 102.676 43.5101 103.285C42.8858 103.438 42.2808 103.661 41.7064 103.949C41.3233 104.188 40.9724 104.475 40.6622 104.803C40.359 105.144 40.0962 105.518 39.8791 105.919C39.3573 106.81 39.0109 107.793 38.8586 108.814C38.8218 108.928 38.8081 109.048 38.8181 109.167C38.8281 109.286 38.8617 109.402 38.9169 109.508C38.9721 109.614 39.0479 109.708 39.1397 109.784C39.2315 109.861 39.3376 109.918 39.4519 109.953C39.6817 110.029 39.9321 110.012 40.1495 109.906C40.3669 109.799 40.5339 109.612 40.6148 109.384C40.8343 108.977 41.0968 108.595 41.3979 108.245C41.6966 107.918 42.0135 107.609 42.3472 107.319L43.2253 106.394C43.8032 105.642 44.438 104.936 45.1238 104.281C45.2759 104.198 45.3936 104.063 45.4561 103.902H45.8595C46.0759 103.908 46.2863 103.83 46.4459 103.684C46.6055 103.537 46.7016 103.335 46.7139 103.118C46.7026 102.927 46.6215 102.746 46.4859 102.611C46.3503 102.475 46.1696 102.394 45.9782 102.383C43.9372 102.122 43.605 100.247 44.0559 98.5857C44.5068 96.9244 45.646 95.5716 47.3309 95.7853C48.1176 95.8371 48.8724 96.1159 49.5041 96.5876C50.1358 97.0593 50.6174 97.7039 50.8907 98.4432C51.2301 99.1756 51.3068 100.003 51.108 100.785C50.9091 101.567 50.4469 102.257 49.7991 102.739C49.4991 102.972 49.1502 103.134 48.7786 103.213C48.317 103.31 47.8491 103.373 47.3784 103.403C47.1371 103.415 46.9101 103.522 46.7461 103.699C46.582 103.876 46.4938 104.111 46.5003 104.352C46.5033 104.473 46.5305 104.592 46.5801 104.702C46.6298 104.812 46.701 104.91 46.7895 104.992C46.878 105.074 46.982 105.137 47.0954 105.178C47.2088 105.219 47.3292 105.237 47.4496 105.231C48.1332 105.265 48.8184 105.217 49.4905 105.088H49.8228C50.4398 105.634 50.9382 106.227 51.4603 106.75L52.4096 107.699C52.7585 107.989 53.0913 108.298 53.4063 108.624C53.7176 108.981 53.9882 109.371 54.2132 109.787C54.2726 109.96 54.3846 110.111 54.5335 110.217C54.6824 110.323 54.8608 110.38 55.0439 110.38C54.2919 111.692 53.7928 113.133 53.5725 114.629C53.5169 114.749 53.4879 114.88 53.4874 115.013C53.4869 115.146 53.5149 115.277 53.5696 115.398C53.6243 115.519 53.7044 115.626 53.8043 115.714C53.9044 115.801 54.0219 115.865 54.1491 115.903C54.2764 115.941 54.4102 115.951 54.5416 115.933C54.673 115.914 54.799 115.868 54.9108 115.796C55.0227 115.725 55.1179 115.63 55.19 115.519C55.2621 115.408 55.3094 115.282 55.3286 115.151C56.0737 113.543 57.1398 112.106 58.4613 110.926L59.5767 109.882C60.1506 109.357 60.7613 108.873 61.404 108.434C61.4831 108.439 61.5624 108.439 61.6413 108.434C62.8582 108.649 64.103 108.649 65.3199 108.434C65.3895 108.455 65.4636 108.455 65.5334 108.434C65.6522 108.604 65.8241 108.729 66.022 108.789C66.2198 108.849 66.4321 108.841 66.6252 108.767C66.9729 108.605 67.3064 108.415 67.6218 108.197C68.3276 108.726 69.0012 109.297 69.6391 109.906C70.0188 110.286 70.3511 110.665 70.6596 111.021C71.844 112.413 72.7394 114.026 73.2937 115.768C73.3291 115.885 73.3871 115.994 73.465 116.089C73.5426 116.183 73.6383 116.262 73.7464 116.319C73.8545 116.376 73.973 116.412 74.0951 116.423C74.2169 116.434 74.3399 116.421 74.4568 116.385C74.6879 116.323 74.8871 116.176 75.0149 115.974C75.1424 115.771 75.189 115.528 75.1448 115.293C75.0365 113.746 74.7171 112.221 74.1955 110.76C74.0525 110.463 73.8861 110.177 73.6972 109.906C73.9108 109.954 74.1345 109.923 74.3266 109.818C74.5188 109.713 74.6662 109.542 74.7415 109.336C74.975 108.933 75.245 108.551 75.5483 108.197C75.8093 107.865 76.1653 107.628 76.4739 107.295C76.7824 106.963 77.0671 106.726 77.3519 106.394C77.9307 105.65 78.5653 104.952 79.2505 104.305C79.4143 104.23 79.5421 104.094 79.6065 103.925H80.01C80.224 103.925 80.4292 103.84 80.5805 103.689C80.7318 103.538 80.8168 103.332 80.8168 103.118C80.8168 102.904 80.7318 102.699 80.5805 102.548C80.4292 102.397 80.224 102.312 80.01 102.312C77.9927 102.051 77.6369 100.176 78.0877 98.5144C78.5387 96.8531 79.7015 95.5006 81.3865 95.7141C82.1698 95.7675 82.9208 96.0471 83.5485 96.519C84.1762 96.9906 84.6534 97.6345 84.9224 98.3719C85.2932 99.0996 85.3989 99.9335 85.2212 100.73C85.0436 101.527 84.594 102.237 83.9494 102.739C83.6383 102.968 83.2825 103.13 82.9054 103.213C82.4517 103.31 81.9917 103.374 81.5288 103.403C81.2875 103.415 81.0607 103.522 80.8966 103.699C80.7325 103.876 80.6444 104.111 80.6508 104.352C80.6505 104.472 80.6748 104.59 80.7218 104.7C80.7688 104.81 80.8379 104.909 80.9246 104.991C81.0111 105.073 81.1137 105.137 81.2258 105.178C81.3379 105.219 81.4571 105.237 81.5763 105.231C82.2677 105.265 82.9609 105.217 83.6409 105.088H83.9732C84.5902 105.634 85.0887 106.204 85.6107 106.726C86.133 107.248 86.2515 107.343 86.56 107.651C86.8685 107.96 87.2483 108.221 87.5568 108.577C87.8579 108.933 88.1277 109.314 88.3636 109.716C88.3964 109.832 88.4519 109.941 88.5272 110.035C88.6027 110.13 88.6963 110.208 88.8025 110.266C88.9089 110.323 89.0255 110.359 89.1459 110.37C89.2661 110.382 89.3874 110.369 89.5029 110.333C89.7342 110.262 89.9285 110.102 90.0439 109.89C90.1593 109.676 90.1864 109.427 90.1199 109.194C90.0057 108.107 89.6663 107.057 89.1231 106.109C88.8887 105.653 88.5845 105.236 88.2213 104.875ZM60.7157 105.681C60.24 105.077 59.9269 104.36 59.8064 103.6C59.686 102.839 59.7621 102.061 60.0276 101.339C60.1918 100.642 60.534 100.001 61.0207 99.4766C61.5076 98.9524 62.122 98.5636 62.8043 98.3484C63.908 97.9532 65.1209 97.9965 66.1937 98.4688C67.2665 98.9412 68.1174 99.8069 68.571 100.888C71.2529 107.295 62.2821 107.414 60.7157 105.681Z" fill="#020202"/>
<path fill-rule="evenodd" clip-rule="evenodd" d="M42.4417 90.5877C42.7977 90.5877 42.9164 90.92 44.5301 87.4076C44.7437 86.9568 44.9099 86.4583 45.076 86.0075C46.1677 83.1596 46.5236 83.0172 45.9778 82.4714C44.9099 81.5221 42.6316 84.4887 42.6078 84.5597C42.3498 84.8872 42.1345 85.2461 41.9671 85.6278C41.805 86.017 41.6857 86.4229 41.6111 86.8381C41.4687 87.5501 41.35 90.4927 42.4417 90.5877Z" fill="url(#paint3_linear_70_6082)"/>
<path fill-rule="evenodd" clip-rule="evenodd" d="M90.6187 85.5329C90.4603 85.1517 90.2529 84.7926 90.0017 84.4651C90.0017 84.4651 87.6286 81.4274 86.6318 82.3766C86.0385 82.9225 86.3708 83.1123 87.4623 85.9127C87.6521 86.3637 87.8183 86.862 88.0081 87.313C89.6456 90.8251 89.7406 90.5166 90.1204 90.4931C91.212 90.4931 91.0697 87.4552 90.9747 86.7432C90.9103 86.3259 90.7906 85.9189 90.6187 85.5329Z" fill="url(#paint4_linear_70_6082)"/>
<path fill-rule="evenodd" clip-rule="evenodd" d="M50.725 80.122C50.9515 80.0185 51.1663 79.8912 51.3658 79.7423C51.5754 79.6188 51.767 79.467 51.9354 79.2914C53.739 77.7013 54.0712 77.5827 53.8102 76.9182C53.8102 76.6571 53.4305 75.779 50.4877 76.7995C50.1956 76.9001 49.9167 77.0356 49.6571 77.203C49.4071 77.3664 49.1762 77.5575 48.9688 77.7725C48.5891 78.1997 47.1889 80.1457 47.7585 80.7153C47.9721 80.9052 48.1145 81.3086 50.725 80.122Z" fill="url(#paint5_linear_70_6082)"/>
<path fill-rule="evenodd" clip-rule="evenodd" d="M80.5792 79.2912C80.7573 79.4558 80.9478 79.6066 81.1487 79.7421C81.3565 79.8913 81.5793 80.0185 81.8133 80.1218C84.4476 81.3084 84.5899 80.905 84.7799 80.6914C85.3494 80.0744 83.9253 78.1758 83.5696 77.7486C83.3537 77.5333 83.115 77.3423 82.8575 77.179C82.6006 77.0071 82.321 76.8713 82.0268 76.7756C79.1079 75.7551 78.7994 76.6332 78.7044 76.8943C78.4671 77.5825 78.7994 77.7011 80.5792 79.2912Z" fill="url(#paint6_linear_70_6082)"/>
<path d="M328.517 111.524C328.086 111.291 327.606 111.161 327.117 111.144C325.953 111.144 324.174 111.477 323.485 111.524C323.074 111.496 322.662 111.496 322.251 111.524C321.93 111.601 321.64 111.775 321.421 112.023C320.851 112.735 320.614 113.803 320.115 114.586C320.037 114.721 319.927 114.835 319.795 114.918C319.663 115.001 319.512 115.05 319.356 115.06C318.786 115.06 318.454 115.06 318.264 114.704C317.552 113.755 317.362 112.331 316.128 111.809C315.457 111.58 314.746 111.492 314.04 111.548C312.995 111.548 311.785 111.761 310.859 111.856C310.976 111.563 311.071 111.262 311.144 110.955C311.429 109.531 311.144 107.988 311.453 106.54L311.88 106.683C312.332 106.79 312.804 106.79 313.256 106.683C314.928 106.132 316.317 104.948 317.125 103.384C317.428 102.814 317.587 102.178 317.587 101.532C317.587 100.887 317.428 100.251 317.125 99.6813C316.933 99.3457 316.661 99.0622 316.335 98.8554C316.008 98.6486 315.636 98.5247 315.25 98.4947C314.524 98.4119 313.792 98.4119 313.066 98.4947H312.449C311.807 97.4583 311.349 96.3179 311.097 95.1246C310.898 94.4111 310.55 93.7478 310.076 93.1785C309.457 92.6751 308.732 92.3177 307.955 92.1329C307.179 91.948 306.37 91.9403 305.591 92.1105C305.391 92.1285 305.206 92.2222 305.074 92.3723C304.942 92.5223 304.872 92.7174 304.879 92.9174C304.885 93.0172 304.91 93.1148 304.954 93.2047C304.998 93.2945 305.059 93.3748 305.134 93.441C305.209 93.5071 305.296 93.5578 305.391 93.5902C305.486 93.6225 305.586 93.6358 305.686 93.6294C307.465 93.6294 308.391 93.6294 308.89 94.2939C309.279 94.8522 309.531 95.4946 309.625 96.1688C309.905 97.47 310.437 98.7036 311.192 99.8C311.315 99.9635 311.472 100.099 311.652 100.197C311.832 100.295 312.031 100.354 312.236 100.37H314.467C314.847 100.37 315.25 100.37 315.416 100.631C315.595 101.019 315.655 101.452 315.587 101.875C315.519 102.298 315.328 102.69 315.036 103.004C314.448 103.802 313.615 104.386 312.663 104.665C312.473 104.665 312.212 104.665 311.951 104.499C311.477 104.387 310.988 104.355 310.503 104.404C310.185 104.424 309.881 104.549 309.641 104.76C309.401 104.97 309.237 105.254 309.174 105.567C308.771 107.181 308.984 108.937 308.628 110.575C308.52 111.011 308.344 111.427 308.106 111.809C307.489 111.809 306.492 111.382 306.374 111.382C305.687 111.183 304.976 111.079 304.262 111.073C303.917 109.959 303.422 108.897 302.79 107.917C302.403 107.401 301.902 106.982 301.325 106.694C300.748 106.405 300.112 106.255 299.467 106.255C298.899 106.221 298.33 106.331 297.815 106.576C297.301 106.821 296.857 107.192 296.525 107.656C295.774 108.985 295.305 110.456 295.148 111.975L294.199 112.141H290.354C289.553 112.139 288.756 112.035 287.981 111.833C287.387 111.69 287.269 111.168 287.269 110.599C287.412 109.214 287.772 107.86 288.337 106.588C289.445 103.946 291.142 101.592 293.297 99.705C295.454 97.7571 298.003 96.2926 300.773 95.4094C300.901 95.3331 300.999 95.2162 301.053 95.0772C301.106 94.9383 301.111 94.7854 301.068 94.6432C301.024 94.5009 300.934 94.3774 300.811 94.2926C300.689 94.2078 300.542 94.1664 300.393 94.1752C297.4 95.0174 294.618 96.4811 292.229 98.4709C289.792 100.478 287.851 103.02 286.557 105.899C285.665 107.664 285.209 109.618 285.228 111.595C285.296 112.189 285.544 112.748 285.939 113.197C286.333 113.647 286.855 113.965 287.435 114.111C288.349 114.365 289.288 114.524 290.235 114.586H294.222C294.847 114.624 295.473 114.624 296.097 114.586C296.38 114.567 296.651 114.464 296.875 114.291C297.099 114.118 297.266 113.882 297.355 113.613C297.555 112.236 297.897 110.884 298.376 109.578C298.451 109.34 298.599 109.131 298.799 108.982C298.999 108.833 299.242 108.751 299.491 108.747C299.758 108.746 300.022 108.808 300.261 108.928C300.5 109.047 300.708 109.221 300.868 109.436C301.492 110.516 301.993 111.662 302.363 112.853C302.468 113.078 302.628 113.273 302.826 113.422C303.025 113.571 303.257 113.669 303.502 113.708C304.45 113.773 305.402 113.773 306.35 113.708C306.587 113.708 308.154 113.921 308.723 113.897C308.953 113.902 309.181 113.856 309.39 113.761C309.6 113.667 309.785 113.527 309.934 113.352V113.209C310.859 113.209 312.473 113.043 313.826 113.067C314.294 113.047 314.762 113.119 315.203 113.28C315.748 113.542 315.82 114.135 316.009 114.657C316.192 115.3 316.545 115.882 317.03 116.342C317.646 116.834 318.427 117.072 319.213 117.006C319.925 116.994 320.608 116.724 321.136 116.247C321.726 115.518 322.228 114.721 322.631 113.874C323.58 113.874 326.642 113.565 326.642 113.565C326.642 113.969 326.12 116.888 325.859 118.051C325.601 119.221 325.284 120.377 324.909 121.516L322.37 129.063C322.195 129.719 321.972 130.361 321.705 130.985C321.586 131.265 321.398 131.51 321.16 131.697C320.395 132.17 319.536 132.47 318.644 132.575C317.136 132.718 315.618 132.718 314.111 132.575H310.836C310.48 132.6 310.123 132.6 309.768 132.575C310.154 131.685 310.403 130.741 310.503 129.775C310.819 128.017 310.819 126.217 310.503 124.459C310.408 124.218 310.249 124.007 310.045 123.849C309.841 123.69 309.597 123.589 309.34 123.557L307.537 123.319C306.879 123.209 306.264 122.922 305.757 122.489C305.548 122.317 305.378 122.104 305.255 121.863C305.133 121.622 305.061 121.358 305.045 121.089C305.045 120.424 305.045 120.068 305.472 119.997C306.269 119.954 307.068 120.026 307.845 120.21C308.368 120.337 308.913 120.337 309.435 120.21C309.693 120.048 309.906 119.825 310.055 119.559C310.204 119.294 310.285 118.996 310.29 118.691C310.376 117.388 310.376 116.079 310.29 114.776C310.284 114.676 310.258 114.578 310.214 114.488C310.17 114.398 310.109 114.318 310.034 114.252C309.959 114.186 309.872 114.135 309.777 114.103C309.683 114.07 309.583 114.057 309.483 114.064C309.285 114.076 309.101 114.164 308.968 114.311C308.835 114.457 308.764 114.649 308.771 114.847C308.847 116.122 308.799 117.402 308.628 118.668C307.939 118.582 307.257 118.447 306.587 118.264C305.776 118.104 304.935 118.238 304.214 118.644C303.834 118.941 303.536 119.33 303.349 119.775C303.162 120.219 303.092 120.704 303.146 121.184C303.149 122.041 303.433 122.875 303.953 123.557C304.718 124.495 305.754 125.175 306.92 125.503L308.344 125.764C308.448 126.726 308.448 127.697 308.344 128.659C308.275 129.8 307.933 130.907 307.347 131.887C307.347 132.006 307.11 132.006 306.967 132.053C306.472 132.195 305.962 132.282 305.448 132.314H302.482C301.316 132.345 300.15 132.289 298.993 132.148C298.342 132.088 297.706 131.911 297.118 131.626C296.773 131.44 296.479 131.17 296.263 130.843C295.741 130.036 295.338 129.11 294.887 128.47C293.037 126.001 291.371 123.399 289.903 120.685C288.959 118.88 288.211 116.978 287.672 115.013C287.662 114.919 287.632 114.828 287.584 114.747C287.536 114.666 287.471 114.596 287.394 114.541C287.317 114.487 287.229 114.45 287.136 114.432C287.043 114.414 286.948 114.416 286.856 114.439C286.764 114.461 286.678 114.502 286.604 114.56C286.529 114.618 286.468 114.691 286.424 114.775C286.38 114.858 286.354 114.95 286.348 115.044C286.342 115.139 286.357 115.233 286.391 115.321C286.83 117.42 287.515 119.459 288.432 121.397C289.815 124.275 291.401 127.051 293.178 129.704C293.677 130.463 294.08 131.626 294.673 132.528C295.011 133.059 295.465 133.506 296.002 133.833C296.825 134.267 297.716 134.556 298.637 134.688L299.752 134.83V136.562C299.766 137.06 299.871 137.55 300.061 138.01C300.265 138.504 300.592 138.936 301.01 139.268L301.437 139.506C301.426 139.576 301.426 139.648 301.437 139.719C301.525 141.1 301.914 142.444 302.576 143.659C303.114 144.555 303.896 145.28 304.831 145.747C305.963 146.246 307.195 146.476 308.43 146.418C309.665 146.36 310.871 146.017 311.951 145.415C313.09 144.857 314.004 143.927 314.543 142.779C315.082 141.632 315.214 140.335 314.918 139.102C315.291 138.923 315.641 138.699 315.962 138.437C316.494 137.934 316.915 137.327 317.201 136.653C317.487 135.979 317.631 135.253 317.623 134.522H318.905C320.098 134.422 321.256 134.066 322.299 133.477C322.87 133.124 323.338 132.624 323.651 132.029C323.989 131.337 324.282 130.623 324.53 129.893C325.218 128.161 326.001 126.452 326.689 124.72C326.998 123.936 327.283 123.177 327.544 122.346C327.947 121.136 328.303 119.973 328.588 118.644C328.87 117.378 329.061 116.093 329.158 114.799C329.234 114.05 329.234 113.294 329.158 112.545C329.125 112.34 329.051 112.145 328.941 111.969C328.831 111.794 328.687 111.643 328.517 111.524ZM311.737 142.804C310.861 143.37 309.858 143.712 308.818 143.801C307.789 143.943 306.742 143.846 305.757 143.516C304.987 143.27 304.326 142.767 303.882 142.092C303.486 141.467 303.182 140.787 302.98 140.075H303.122C304.072 140.227 305.032 140.306 305.994 140.312C307.394 140.312 308.795 140.146 310.124 140.051C311.232 139.961 312.334 139.803 313.422 139.577C313.446 140.214 313.303 140.848 313.007 141.414C312.712 141.98 312.274 142.459 311.737 142.804ZM314.704 136.895C313.22 137.573 311.573 137.811 309.957 137.583C308.439 137.702 306.848 137.82 305.211 137.844C304.571 137.88 303.929 137.88 303.288 137.844C302.929 137.826 302.576 137.746 302.244 137.607C301.953 137.52 301.697 137.346 301.508 137.108C301.338 136.777 301.241 136.413 301.224 136.04C301.201 135.653 301.201 135.265 301.224 134.877H302.434C303.934 134.913 305.434 134.826 306.92 134.616C307.614 134.486 308.271 134.202 308.842 133.786C308.947 133.912 309.088 134.003 309.246 134.047C309.747 134.14 310.255 134.195 310.764 134.213H313.992L316.009 134.403C315.975 134.886 315.842 135.356 315.617 135.785C315.393 136.214 315.082 136.592 314.704 136.895Z" fill="#020202"/>
<path d="M340.36 99.6339C339.966 98.5774 339.507 97.5469 338.983 96.5486C338.282 94.9366 337.22 93.5075 335.878 92.3717C334.537 91.2358 332.952 90.4238 331.246 89.9982C327.949 89.1627 324.485 89.2447 321.231 90.2356C321.134 90.2628 321.043 90.3092 320.964 90.3719C320.885 90.4346 320.819 90.5124 320.771 90.6008C320.722 90.6891 320.692 90.7863 320.681 90.8866C320.67 90.9869 320.68 91.0883 320.709 91.1849C320.769 91.3724 320.898 91.5302 321.069 91.627C321.241 91.7237 321.443 91.7523 321.634 91.707C324.607 90.8768 327.751 90.8768 330.724 91.707C332.142 92.0955 333.45 92.8079 334.546 93.7881C335.641 94.7683 336.494 95.9895 337.037 97.3555C337.203 97.7589 337.583 98.5896 337.868 99.4203C338.152 100.251 338.342 100.512 338.247 100.821C338.152 101.129 337.939 101.082 337.749 101.224C337.203 101.58 336.515 101.912 335.969 102.245C335.635 102.454 335.331 102.71 335.067 103.004C334.928 103.158 334.821 103.338 334.751 103.533C334.682 103.729 334.652 103.936 334.664 104.143C334.664 104.523 334.83 105.14 334.83 105.425C334.802 105.96 334.647 106.48 334.379 106.944C334.311 107.111 334.201 107.258 334.06 107.371C333.919 107.483 333.75 107.557 333.572 107.584C333.026 107.584 332.789 107.252 332.552 106.896C332.208 106.314 331.811 105.766 331.365 105.259C330.944 104.804 330.4 104.482 329.798 104.333C329.417 104.237 329.017 104.237 328.636 104.333C327.775 104.672 326.942 105.077 326.144 105.543C325.944 105.661 325.728 105.749 325.503 105.804H325.337C325.154 105.55 324.995 105.28 324.862 104.998C324.458 104.119 324.15 103.075 323.77 102.316L323.604 101.983C324.817 101.275 325.862 100.311 326.666 99.1592C327.068 98.5366 327.221 97.7849 327.094 97.0545C326.966 96.3241 326.567 95.6687 325.978 95.2195C325.681 94.9267 325.328 94.6961 324.941 94.5412C324.554 94.3864 324.14 94.3104 323.723 94.3177C322.484 94.5584 321.274 94.9324 320.115 95.4331L319.997 95.0296L318.668 91.351C318.608 91.1811 318.483 91.0418 318.321 90.964C318.158 90.8861 317.971 90.8759 317.801 90.9357C317.632 90.9955 317.492 91.1204 317.414 91.2828C317.337 91.4453 317.326 91.632 317.386 91.8019L318.549 95.528C318.549 95.528 318.763 96.2875 318.881 96.5486C318.944 96.7109 319.055 96.8502 319.199 96.9478C319.343 97.0453 319.514 97.0965 319.688 97.0944C320.851 97.0944 322.062 96.2875 323.272 96.0976C323.535 96.0323 323.811 96.0398 324.07 96.1192C324.329 96.1987 324.562 96.3471 324.743 96.5486C324.978 96.7435 325.134 97.017 325.182 97.3182C325.23 97.6195 325.167 97.928 325.004 98.1862C324.126 99.2698 323.026 100.152 321.777 100.773C321.583 100.883 321.426 101.047 321.325 101.245C321.224 101.444 321.183 101.667 321.207 101.889C321.324 102.423 321.508 102.942 321.753 103.431C322.085 104.191 322.37 105.235 322.726 106.137C322.926 106.608 323.181 107.054 323.485 107.466C323.709 107.764 323.999 108.005 324.333 108.17C324.667 108.335 325.035 108.419 325.408 108.415C326.356 108.31 327.266 107.985 328.066 107.466C328.541 107.205 329.324 106.896 329.324 106.896C329.652 107.176 329.926 107.514 330.131 107.893C330.459 108.448 330.858 108.959 331.317 109.412C331.653 109.72 332.053 109.95 332.487 110.086C332.922 110.221 333.382 110.258 333.833 110.195C334.304 110.146 334.758 109.998 335.167 109.761C335.576 109.524 335.931 109.203 336.206 108.819C336.91 107.868 337.308 106.726 337.346 105.543C337.405 105.15 337.405 104.75 337.346 104.357C338.01 103.882 339.007 103.431 339.719 102.885C340.085 102.561 340.37 102.154 340.55 101.699C340.697 101.007 340.631 100.287 340.36 99.6339Z" fill="url(#paint7_linear_70_6082)"/>
<path fill-rule="evenodd" clip-rule="evenodd" d="M277.26 272.616C278.114 273.612 279.3 273.849 279.988 274.608C280.181 274.86 280.289 275.168 280.296 275.485C280.296 275.668 280.369 275.843 280.497 275.972C280.626 276.101 280.801 276.173 280.984 276.173H281.363C282.366 276.458 283.388 276.664 284.423 276.79C284.864 276.837 285.31 276.837 285.751 276.79C286.197 276.77 286.641 276.714 287.079 276.624C288.004 276.458 288.905 276.173 289.83 275.912V277.762C289.83 279.162 288.17 279.541 287.15 279.636C285.598 279.742 284.039 279.565 282.549 279.114C282.715 278.616 282.146 277.288 282.099 276.861C282.07 276.654 281.961 276.466 281.794 276.339C281.627 276.212 281.417 276.157 281.209 276.185C281.002 276.213 280.814 276.323 280.687 276.49C280.56 276.657 280.505 276.867 280.533 277.074C280.533 277.596 280.533 279.09 280.77 279.683C280.793 279.869 280.864 280.046 280.976 280.196C281.089 280.346 281.238 280.464 281.411 280.537C283.288 281.249 285.285 281.596 287.292 281.557C288.814 281.553 290.271 280.948 291.348 279.873C291.674 279.474 291.872 278.987 291.917 278.474C291.917 277.857 291.917 277.027 292.06 276.292C292.202 275.557 292.439 275.391 294.597 273.47C295.694 272.187 296.299 270.556 296.305 268.869C296.244 266.495 295.411 264.205 293.933 262.346C292.648 260.751 290.897 259.597 288.924 259.044C286.952 258.491 284.856 258.568 282.929 259.263C281.023 259.874 279.345 261.044 278.114 262.622C276.883 264.2 276.156 266.112 276.027 268.11C275.966 269.045 276.071 269.985 276.335 270.884C276.528 271.516 276.842 272.104 277.26 272.616ZM277.877 268.276C278.065 266.715 278.714 265.245 279.74 264.054C280.767 262.863 282.124 262.005 283.64 261.588C285.078 261.093 286.635 261.056 288.095 261.481C289.556 261.905 290.849 262.771 291.799 263.959C292.744 265.115 293.373 266.496 293.625 267.967C293.763 268.644 293.752 269.342 293.592 270.014C293.432 270.686 293.128 271.315 292.7 271.857L290.328 274.062C290.259 274.149 290.203 274.245 290.162 274.347C290.03 274.314 289.891 274.314 289.759 274.347C288.739 274.347 287.767 274.229 286.771 274.205H284.28C283.332 274.347 282.431 274.584 281.482 274.703C281.4 274.306 281.229 273.934 280.984 273.612C280.367 272.853 279.205 272.568 278.422 271.549C278.11 271.086 277.908 270.559 277.83 270.007C277.756 269.431 277.772 268.847 277.877 268.276Z" fill="#020202"/>
<path fill-rule="evenodd" clip-rule="evenodd" d="M271.735 262.512C271.897 262.683 272.071 262.841 272.256 262.987C272.42 263.126 272.595 263.253 272.778 263.366C273.324 263.651 273.845 263.769 274.367 264.078C274.49 264.213 274.661 264.294 274.843 264.303C275.026 264.312 275.204 264.248 275.34 264.125C275.475 264.002 275.556 263.831 275.565 263.649C275.574 263.466 275.51 263.288 275.387 263.153C275.137 262.52 274.793 261.928 274.367 261.398C274.19 261.186 273.982 261.002 273.751 260.852C273.53 260.69 273.291 260.555 273.039 260.449C272.467 260.216 271.88 260.018 271.284 259.856C271.108 259.74 270.893 259.698 270.686 259.74C270.479 259.782 270.298 259.905 270.181 260.081C270.065 260.257 270.023 260.473 270.065 260.679C270.108 260.886 270.23 261.068 270.406 261.184C270.928 261.635 271.284 262.062 271.735 262.512Z" fill="url(#paint8_linear_70_6082)"/>
<path fill-rule="evenodd" clip-rule="evenodd" d="M278.564 255.54C278.637 255.79 278.724 256.035 278.825 256.275C278.946 256.505 279.08 256.726 279.229 256.939C279.632 257.437 280.082 257.793 280.533 258.291C280.608 258.458 280.747 258.587 280.918 258.652C281.089 258.716 281.279 258.71 281.446 258.635C281.613 258.559 281.743 258.421 281.807 258.249C281.872 258.078 281.865 257.888 281.79 257.722C281.733 257.076 281.638 256.435 281.505 255.801C281.427 255.546 281.324 255.3 281.197 255.065C281.069 254.83 280.918 254.607 280.746 254.401C280.359 253.907 279.939 253.44 279.489 253.002C279.453 252.902 279.397 252.811 279.323 252.734C279.25 252.657 279.161 252.597 279.063 252.557C278.964 252.516 278.859 252.497 278.752 252.5C278.646 252.504 278.542 252.529 278.446 252.575C278.351 252.62 278.266 252.684 278.197 252.764C278.128 252.843 278.077 252.936 278.045 253.036C278.014 253.136 278.004 253.242 278.016 253.346C278.028 253.451 278.061 253.552 278.114 253.642C278.224 254.284 278.374 254.917 278.564 255.54Z" fill="url(#paint9_linear_70_6082)"/>
<path fill-rule="evenodd" clip-rule="evenodd" d="M288.929 257.674C288.926 257.765 288.94 257.855 288.972 257.939C289.003 258.024 289.051 258.102 289.113 258.168C289.175 258.234 289.249 258.287 289.331 258.325C289.414 258.362 289.502 258.383 289.593 258.386C289.773 258.386 289.947 258.318 290.08 258.194C290.212 258.071 290.292 257.902 290.304 257.722C290.572 257.205 290.794 256.665 290.968 256.109C291.004 255.818 291.004 255.523 290.968 255.232C290.968 254.757 290.755 254.354 290.778 253.903C290.848 253.705 290.837 253.488 290.749 253.297C290.66 253.107 290.501 252.958 290.304 252.884C290.109 252.815 289.895 252.827 289.708 252.915C289.522 253.004 289.378 253.163 289.308 253.358C288.961 253.818 288.689 254.33 288.502 254.876C288.411 255.087 288.355 255.311 288.336 255.54C288.3 255.76 288.3 255.984 288.336 256.204C288.49 256.711 288.688 257.203 288.929 257.674Z" fill="url(#paint10_linear_70_6082)"/>
<path fill-rule="evenodd" clip-rule="evenodd" d="M296.993 263.746H299.531L300.242 263.509C300.812 263.295 301.333 263.011 301.926 262.773C302.029 262.759 302.129 262.724 302.219 262.671C302.308 262.617 302.386 262.546 302.448 262.463C302.51 262.379 302.554 262.283 302.579 262.182C302.603 262.08 302.607 261.975 302.59 261.872C302.561 261.668 302.452 261.484 302.288 261.36C302.124 261.236 301.917 261.181 301.713 261.208C301.025 261.208 300.432 261.066 299.768 261.066C299.492 261.031 299.213 261.031 298.938 261.066C298.659 261.117 298.388 261.204 298.132 261.327C297.525 261.654 296.96 262.052 296.448 262.512C296.281 262.585 296.151 262.721 296.084 262.89C296.018 263.059 296.02 263.247 296.092 263.414C296.128 263.496 296.18 263.57 296.245 263.632C296.31 263.694 296.387 263.741 296.471 263.772C296.556 263.804 296.645 263.817 296.735 263.813C296.825 263.808 296.913 263.785 296.993 263.746Z" fill="url(#paint11_linear_70_6082)"/>
<path fill-rule="evenodd" clip-rule="evenodd" d="M280.557 283.407C280.425 283.283 280.251 283.215 280.071 283.215C279.89 283.215 279.716 283.283 279.585 283.407C278.256 284.64 276.62 285.779 274.96 287.059C273.964 287.818 272.991 288.625 271.9 289.312C270.78 290.074 269.579 290.711 268.319 291.21C268.218 291.232 268.122 291.274 268.038 291.334C267.954 291.395 267.883 291.472 267.829 291.561C267.776 291.65 267.741 291.749 267.728 291.851C267.714 291.954 267.722 292.059 267.75 292.158C267.8 292.36 267.929 292.533 268.106 292.639C268.284 292.746 268.497 292.778 268.699 292.728C270.462 292.442 272.168 291.873 273.75 291.044C274.421 290.691 275.063 290.287 275.671 289.834C276.318 289.426 276.936 288.974 277.521 288.482C278.668 287.217 279.7 285.852 280.604 284.403C280.669 284.336 280.719 284.256 280.752 284.168C280.784 284.081 280.799 283.988 280.794 283.895C280.79 283.802 280.767 283.71 280.726 283.626C280.685 283.543 280.628 283.468 280.557 283.407Z" fill="url(#paint12_linear_70_6082)"/>
<path fill-rule="evenodd" clip-rule="evenodd" d="M287.672 284.071C287.666 283.896 287.594 283.731 287.471 283.608C287.348 283.484 287.182 283.413 287.008 283.407C286.823 283.4 286.643 283.466 286.506 283.59C286.369 283.714 286.285 283.886 286.273 284.071C286.059 285.233 285.727 286.442 285.561 287.605C285.514 288.125 285.514 288.649 285.561 289.17C285.57 289.711 285.625 290.251 285.727 290.783C285.934 292.035 286.326 293.25 286.889 294.388C286.912 294.497 286.956 294.6 287.021 294.69C287.086 294.78 287.17 294.856 287.266 294.911C287.362 294.967 287.469 295.001 287.58 295.012C287.691 295.023 287.803 295.01 287.908 294.974C288.013 294.939 288.11 294.881 288.191 294.805C288.272 294.729 288.337 294.637 288.379 294.534C288.422 294.431 288.442 294.321 288.439 294.21C288.436 294.098 288.409 293.989 288.36 293.889C288.176 292.777 288.097 291.649 288.123 290.522V288.15C288.052 286.727 287.814 285.399 287.672 284.071Z" fill="url(#paint13_linear_70_6082)"/>
<path fill-rule="evenodd" clip-rule="evenodd" d="M302.756 294.482C302.84 294.541 302.935 294.584 303.035 294.606C303.136 294.629 303.24 294.631 303.341 294.614C303.442 294.596 303.539 294.559 303.626 294.503C303.713 294.448 303.788 294.377 303.847 294.293C303.909 294.21 303.954 294.115 303.978 294.014C304.003 293.913 304.006 293.808 303.988 293.706C303.971 293.604 303.932 293.506 303.875 293.42C303.818 293.333 303.744 293.258 303.657 293.202C302.982 292.613 302.341 291.988 301.736 291.328C301.12 290.664 300.598 289.952 300.029 289.241C299.459 288.529 298.938 287.842 298.368 287.154C297.183 285.683 295.997 284.308 294.929 282.861C294.838 282.701 294.687 282.583 294.509 282.534C294.331 282.485 294.141 282.509 293.981 282.6C293.821 282.692 293.703 282.843 293.654 283.021C293.605 283.198 293.629 283.389 293.72 283.549C294.334 285.13 295.055 286.667 295.878 288.15C296.262 288.767 296.682 289.361 297.135 289.929C297.589 290.506 298.089 291.045 298.629 291.541C299.881 292.685 301.266 293.673 302.756 294.482Z" fill="url(#paint14_linear_70_6082)"/>
<path fill-rule="evenodd" clip-rule="evenodd" d="M266.944 295.265C265.234 295.314 263.61 296.023 262.412 297.244C261.213 298.464 260.534 300.101 260.517 301.811C260.635 309.211 274.177 310.634 273.679 301.337C273.656 300.489 273.461 299.655 273.106 298.885C272.75 298.115 272.242 297.425 271.613 296.858C270.983 296.29 270.244 295.856 269.442 295.582C268.639 295.309 267.789 295.201 266.944 295.265ZM262.746 301.906C262.807 300.794 263.3 299.751 264.12 298.998C264.94 298.245 266.021 297.842 267.134 297.874C267.66 297.815 268.192 297.864 268.699 298.018C269.205 298.172 269.675 298.428 270.079 298.77C270.483 299.112 270.813 299.533 271.049 300.007C271.284 300.481 271.421 300.998 271.45 301.526C272.351 308.997 262.414 307.313 262.746 301.858V301.906Z" fill="#020202"/>
<path fill-rule="evenodd" clip-rule="evenodd" d="M292.084 304.064C291.111 302.712 290.163 300.269 288.811 298.633C288.109 297.714 287.152 297.021 286.06 296.641C285.762 296.582 285.454 296.614 285.175 296.733C284.896 296.851 284.659 297.05 284.494 297.305C284.139 297.85 283.356 299.321 283.285 299.439L278.85 307.266C278.75 307.417 278.714 307.601 278.75 307.779C278.785 307.956 278.889 308.113 279.04 308.214C279.194 308.315 279.383 308.352 279.564 308.317C279.746 308.281 279.906 308.176 280.012 308.025L285.158 300.72C285.158 300.72 285.823 300.127 286.226 299.629C286.6 300.029 286.934 300.466 287.222 300.933C288.265 302.499 289.143 304.42 289.997 305.676C290.385 305.98 290.757 306.305 291.111 306.649H290.993C290.625 306.821 290.244 306.964 289.854 307.076C288.897 307.358 287.91 307.526 286.913 307.574C285.348 307.693 283.759 307.574 282.17 307.574C281.983 307.606 281.813 307.704 281.691 307.849C281.569 307.994 281.502 308.179 281.502 308.369C281.502 308.558 281.569 308.742 281.691 308.888C281.813 309.033 281.983 309.13 282.17 309.163C283.806 309.282 285.419 309.471 287.056 309.495C288.204 309.526 289.351 309.414 290.471 309.163C291.097 309.045 291.709 308.862 292.297 308.617C292.812 308.384 293.261 308.025 293.601 307.574C293.742 307.341 293.816 307.075 293.816 306.803C293.816 306.531 293.742 306.265 293.601 306.032C293.175 305.487 292.202 304.23 292.084 304.064Z" fill="#020202"/>
<path fill-rule="evenodd" clip-rule="evenodd" d="M313.452 302.854C313.571 301.176 313.353 299.491 312.812 297.898C312.449 297.292 311.916 296.805 311.28 296.498C310.644 296.19 309.932 296.075 309.231 296.166C308.396 296.186 307.564 296.266 306.741 296.404C304.938 296.688 303.183 297.162 301.357 297.352C301.147 297.37 300.953 297.47 300.816 297.629C300.678 297.789 300.609 297.996 300.622 298.206C300.631 298.309 300.66 298.409 300.708 298.501C300.756 298.592 300.821 298.673 300.901 298.74C300.98 298.806 301.072 298.855 301.17 298.886C301.269 298.916 301.373 298.927 301.476 298.917C303.325 298.917 305.152 298.467 306.978 298.301C307.72 298.241 308.465 298.241 309.207 298.301C310.085 298.301 310.559 298.562 310.796 299.012C311.054 300.312 311.054 301.65 310.796 302.949C310.843 303.612 310.843 304.278 310.796 304.941C310.835 305.332 310.743 305.723 310.536 306.056C310.257 306.226 309.937 306.317 309.61 306.317C308.686 306.459 307.618 306.459 307.002 306.578L304.322 306.839H302.448C302.085 306.872 301.72 306.872 301.357 306.839C301.092 306.821 300.833 306.749 300.598 306.625C300.314 306.459 300.242 305.914 300.147 305.321C299.99 304.236 299.895 303.144 299.863 302.048C299.827 301.432 299.827 300.814 299.863 300.198C299.828 299.59 299.828 298.98 299.863 298.372C299.888 298.19 299.84 298.004 299.729 297.858C299.617 297.711 299.453 297.615 299.27 297.589C299.088 297.564 298.903 297.612 298.756 297.724C298.609 297.835 298.513 298 298.487 298.182C298.375 298.826 298.296 299.475 298.25 300.127C298.215 300.783 298.215 301.44 298.25 302.095C298.127 303.468 298.127 304.849 298.25 306.222C298.337 307.058 298.725 307.833 299.341 308.404C299.713 308.669 300.132 308.862 300.575 308.973C301.103 309.119 301.642 309.223 302.187 309.281L304.345 309.4L307.358 309.21C308.116 309.092 309.444 309.21 310.488 308.902C311.155 308.772 311.777 308.469 312.29 308.025C312.782 307.537 313.105 306.906 313.215 306.222C313.428 305.113 313.507 303.982 313.452 302.854Z" fill="#020202"/>
<path d="M91.8932 57.244C123.765 34.3771 164.466 23.8712 206.148 31.2209C241.372 37.4318 271.575 55.3849 293.444 80.3449M40.3175 122.309C36.2386 132.219 33.1585 142.718 31.221 153.706C26.4092 180.995 29.2508 207.864 38.2041 232.11M92.2406 302.901C109.995 315.58 130.788 324.592 153.706 328.633C187.36 334.567 220.374 328.861 248.618 314.408M313.619 250.21C320.701 236.732 325.848 221.944 328.633 206.148C330.85 193.576 331.442 181.094 330.561 168.917" stroke="#ADBCCE" stroke-width="2" stroke-dasharray="10 5"/>
<defs>
<linearGradient id="paint0_linear_70_6082" x1="39.3035" y1="266" x2="90.6968" y2="266" gradientUnits="userSpaceOnUse">
<stop stop-color="#6BA1E6"/>
<stop offset="1" stop-color="#004DAD"/>
</linearGradient>
<linearGradient id="paint1_linear_70_6082" x1="190.849" y1="150.744" x2="215.968" y2="150.744" gradientUnits="userSpaceOnUse">
<stop stop-color="#E6846A"/>
<stop offset="1" stop-color="#AC2400"/>
</linearGradient>
<linearGradient id="paint2_linear_70_6082" x1="137.275" y1="205.845" x2="167.816" y2="205.845" gradientUnits="userSpaceOnUse">
<stop stop-color="#E6846A"/>
<stop offset="1" stop-color="#AC2400"/>
</linearGradient>
<linearGradient id="paint3_linear_70_6082" x1="41.7522" y1="86.4401" x2="45.9988" y2="86.4401" gradientUnits="userSpaceOnUse">
<stop stop-color="#6BA1E6"/>
<stop offset="1" stop-color="#004DAD"/>
</linearGradient>
<linearGradient id="paint4_linear_70_6082" x1="86.5719" y1="86.3513" x2="90.8075" y2="86.3513" gradientUnits="userSpaceOnUse">
<stop stop-color="#6BA1E6"/>
<stop offset="1" stop-color="#004DAD"/>
</linearGradient>
<linearGradient id="paint5_linear_70_6082" x1="47.9321" y1="78.6276" x2="53.5806" y2="78.6276" gradientUnits="userSpaceOnUse">
<stop stop-color="#6BA1E6"/>
<stop offset="1" stop-color="#004DAD"/>
</linearGradient>
<linearGradient id="paint6_linear_70_6082" x1="78.9454" y1="78.6138" x2="84.6041" y2="78.6138" gradientUnits="userSpaceOnUse">
<stop stop-color="#6BA1E6"/>
<stop offset="1" stop-color="#004DAD"/>
</linearGradient>
<linearGradient id="paint7_linear_70_6082" x1="318.493" y1="99.8259" x2="339.481" y2="99.8259" gradientUnits="userSpaceOnUse">
<stop stop-color="#6BA1E6"/>
<stop offset="1" stop-color="#004DAD"/>
</linearGradient>
<linearGradient id="paint8_linear_70_6082" x1="270.321" y1="262.014" x2="275.294" y2="262.014" gradientUnits="userSpaceOnUse">
<stop stop-color="#6BA1E6"/>
<stop offset="1" stop-color="#004DAD"/>
</linearGradient>
<linearGradient id="paint9_linear_70_6082" x1="278.2" y1="255.598" x2="281.663" y2="255.598" gradientUnits="userSpaceOnUse">
<stop stop-color="#6BA1E6"/>
<stop offset="1" stop-color="#004DAD"/>
</linearGradient>
<linearGradient id="paint10_linear_70_6082" x1="288.441" y1="255.613" x2="290.863" y2="255.613" gradientUnits="userSpaceOnUse">
<stop stop-color="#6BA1E6"/>
<stop offset="1" stop-color="#004DAD"/>
</linearGradient>
<linearGradient id="paint11_linear_70_6082" x1="296.359" y1="262.426" x2="302.278" y2="262.426" gradientUnits="userSpaceOnUse">
<stop stop-color="#6BA1E6"/>
<stop offset="1" stop-color="#004DAD"/>
</linearGradient>
<linearGradient id="paint12_linear_70_6082" x1="268.364" y1="287.983" x2="280.152" y2="287.983" gradientUnits="userSpaceOnUse">
<stop stop-color="#6BA1E6"/>
<stop offset="1" stop-color="#004DAD"/>
</linearGradient>
<linearGradient id="paint13_linear_70_6082" x1="285.669" y1="289.211" x2="288.296" y2="289.211" gradientUnits="userSpaceOnUse">
<stop stop-color="#6BA1E6"/>
<stop offset="1" stop-color="#004DAD"/>
</linearGradient>
<linearGradient id="paint14_linear_70_6082" x1="294.139" y1="288.567" x2="303.49" y2="288.567" gradientUnits="userSpaceOnUse">
<stop stop-color="#6BA1E6"/>
<stop offset="1" stop-color="#004DAD"/>
</linearGradient>
</defs>
</svg>
