<svg width="360" height="360" viewBox="0 0 360 360" fill="none" xmlns="http://www.w3.org/2000/svg">
<path d="M272.758 57.7115C273.235 57.6885 273.687 57.4884 274.025 57.1503C274.363 56.8122 274.563 56.3604 274.586 55.8828C274.556 55.3704 274.329 54.8895 273.953 54.5401C273.577 54.1906 273.081 53.9995 272.568 54.0065C272.32 54.0214 272.078 54.0859 271.855 54.1962C271.633 54.3066 271.435 54.4604 271.273 54.6488C271.112 54.8371 270.989 55.056 270.914 55.2924C270.838 55.5289 270.811 55.7781 270.834 56.0253C270.849 56.2625 270.911 56.4944 271.016 56.7077C271.121 56.9209 271.267 57.1114 271.446 57.2681C271.624 57.4247 271.832 57.5446 272.057 57.6207C272.283 57.6968 272.521 57.7277 272.758 57.7115Z" fill="#020202"/>
<path d="M281.95 55.8826C281.921 55.3903 281.711 54.9262 281.36 54.5797C281.009 54.2332 280.542 54.029 280.05 54.0063C279.802 54.0212 279.56 54.0857 279.337 54.196C279.115 54.3064 278.917 54.4603 278.755 54.6485C278.594 54.8369 278.471 55.0557 278.396 55.2922C278.32 55.5287 278.293 55.7779 278.316 56.0251C278.345 56.4709 278.538 56.89 278.859 57.2015C279.179 57.513 279.603 57.6947 280.05 57.7113C280.538 57.7003 281.004 57.5062 281.356 57.1675C281.708 56.8288 281.92 56.3701 281.95 55.8826Z" fill="#020202"/>
<path d="M289.004 55.8827C288.985 55.3703 288.765 54.886 288.392 54.5347C288.018 54.1834 287.521 53.9936 287.009 54.0065C286.761 54.0213 286.519 54.0858 286.296 54.1962C286.074 54.3065 285.876 54.4604 285.714 54.6487C285.553 54.837 285.43 55.0559 285.355 55.2923C285.279 55.5288 285.252 55.778 285.275 56.0252C285.305 56.4999 285.522 56.9434 285.878 57.2592C286.234 57.575 286.7 57.7375 287.175 57.7115C287.652 57.6884 288.104 57.4883 288.442 57.1503C288.78 56.8122 288.981 56.3603 289.004 55.8827Z" fill="#020202"/>
<path d="M316.674 60.3004C315.107 60.3004 313.515 60.3004 311.924 60.1579C308.195 59.9204 304.49 59.4928 300.785 59.2553C297.507 59.0653 294.206 58.9228 290.88 58.9466C287.555 58.9703 284.301 59.1128 281.024 59.2791C277.746 59.4453 274.231 59.6591 270.858 60.3004C269.338 60.5572 267.832 60.8902 266.346 61.2979C266.398 58.7692 266.612 56.2465 266.987 53.7451C267.022 53.5472 266.981 53.3431 266.87 53.1751C266.76 53.0072 266.589 52.8881 266.393 52.8425C266.195 52.8068 265.991 52.8486 265.823 52.9591C265.655 53.0696 265.536 53.2404 265.49 53.4363C264.402 59.2586 263.798 65.1612 263.685 71.0834C263.685 73.4584 263.495 76.1187 263.448 78.6599C263.4 81.2014 263.448 83.7664 263.448 86.2129C263.519 91.5232 263.86 96.8265 264.469 102.102C264.492 102.842 264.687 103.566 265.039 104.216C265.101 104.279 265.175 104.33 265.257 104.364C265.338 104.398 265.426 104.416 265.514 104.416C265.603 104.416 265.69 104.398 265.772 104.364C265.853 104.33 265.927 104.279 265.989 104.216C266.087 104.091 266.141 103.936 266.141 103.777C266.141 103.617 266.087 103.463 265.989 103.337C265.752 103.337 265.847 102.625 265.799 101.936C265.585 99.1096 265.799 93.1006 265.799 86.1891C265.799 82.8164 265.799 79.2062 265.942 75.6437V68.5182C265.942 66.1431 265.942 64.4568 266.084 62.6042C267.651 62.2437 269.237 61.974 270.834 61.7967C274.183 61.4404 277.58 61.3929 280.857 61.3692C284.135 61.3454 287.389 61.3692 290.667 61.3692H300.452C304.157 61.3692 307.886 61.6779 311.615 61.7254H316.365C316.464 61.7255 316.562 61.7057 316.653 61.6672C316.744 61.6287 316.826 61.5724 316.894 61.5014C316.963 61.4306 317.017 61.3465 317.053 61.2545C317.088 61.1624 317.105 61.0641 317.102 60.9654C317.098 60.826 317.057 60.6902 316.981 60.5729C316.906 60.4556 316.799 60.3613 316.674 60.3004Z" fill="#020202"/>
<path d="M320.427 90.417C320.427 78.3516 319.952 63.1508 320.047 60.847C320.15 59.2597 320.071 57.6657 319.809 56.0968C319.591 54.9371 319.147 53.8317 318.503 52.8428C317.507 51.5789 316.076 50.732 314.489 50.4677C311.43 50.0229 308.339 49.848 305.25 49.9452C301.426 49.7552 297.53 49.5652 293.683 49.4939C289.835 49.4227 285.987 49.3989 282.116 49.5177C279.042 49.5195 275.971 49.7258 272.924 50.1352C270.876 50.4035 268.867 50.9138 266.939 51.6553C266.77 51.7194 266.633 51.8475 266.557 52.0119C266.481 52.1763 266.474 52.3639 266.535 52.5341C266.567 52.6178 266.615 52.6942 266.676 52.759C266.738 52.8237 266.812 52.8753 266.894 52.9108C266.976 52.9463 267.064 52.9648 267.154 52.9654C267.243 52.966 267.332 52.9485 267.414 52.9141C269.264 52.2581 271.186 51.8275 273.138 51.6315C276.105 51.339 279.088 51.2358 282.069 51.3228C285.156 51.3228 288.22 51.3228 291.26 51.5603C295.868 51.7503 300.404 52.0591 305.036 52.4391C306.865 52.5816 310 52.2253 312.684 52.5816C313.366 52.5877 314.04 52.7367 314.662 53.019C315.284 53.3012 315.84 53.7105 316.294 54.2204C316.759 54.9418 317.074 55.7496 317.22 56.5955C317.465 57.9906 317.545 59.4096 317.458 60.8232C317.458 63.1983 318.147 78.3753 318.527 90.4883C318.693 95.7373 318.788 100.416 318.717 103.148C318.722 103.346 318.799 103.535 318.935 103.68C319.071 103.825 319.255 103.914 319.453 103.931C319.553 103.935 319.652 103.918 319.745 103.883C319.839 103.847 319.925 103.794 319.997 103.726C320.07 103.657 320.129 103.575 320.17 103.484C320.211 103.393 320.233 103.295 320.237 103.195C320.427 100.393 320.427 95.7135 320.427 90.417Z" fill="#020202"/>
<path d="M299.93 72.0333H304.157C304.751 72.0333 305.368 72.0333 305.962 71.8908L307.743 71.6771C309.168 71.4871 310.546 71.2496 311.923 71.1308C312.125 71.1308 312.318 71.0508 312.461 70.9082C312.603 70.7657 312.683 70.5724 312.683 70.3708C312.683 70.1693 312.603 69.976 312.461 69.8334C312.318 69.6909 312.125 69.6108 311.923 69.6108C310.473 69.4265 309.015 69.3156 307.553 69.2783H305.701C305.078 69.3187 304.458 69.406 303.848 69.5396C302.422 69.8506 301.018 70.2552 299.645 70.7508C299.559 70.7678 299.477 70.8016 299.404 70.8503C299.332 70.8989 299.269 70.9614 299.221 71.0343C299.172 71.107 299.138 71.1887 299.121 71.2746C299.104 71.3605 299.105 71.4488 299.122 71.5346C299.142 71.6208 299.178 71.7022 299.229 71.7741C299.281 71.846 299.346 71.9069 299.421 71.9534C299.496 71.9998 299.58 72.0308 299.667 72.0445C299.755 72.0583 299.844 72.0545 299.93 72.0333Z" fill="#020202"/>
<path d="M312.375 89.9892C310.933 89.8059 309.482 89.695 308.029 89.6567H306.152C305.529 89.6955 304.91 89.7828 304.3 89.918C302.874 90.2291 301.469 90.6336 300.096 91.1292C300.01 91.1463 299.929 91.1801 299.856 91.2288C299.783 91.2774 299.721 91.3399 299.672 91.4126C299.624 91.4855 299.59 91.5672 299.573 91.6529C299.556 91.7389 299.556 91.8272 299.574 91.913C299.584 92.002 299.613 92.0878 299.66 92.1643C299.707 92.2407 299.77 92.306 299.845 92.3557C299.919 92.4056 300.004 92.4383 300.092 92.4521C300.181 92.4659 300.271 92.4602 300.357 92.4355H304.585C305.202 92.4355 305.796 92.4355 306.39 92.293C306.984 92.1505 307.577 92.1742 308.171 92.0792C309.596 91.8892 310.974 91.6517 312.351 91.533C312.555 91.5332 312.751 91.4539 312.897 91.3119C313.043 91.1701 313.129 90.9768 313.135 90.773C313.138 90.6713 313.121 90.5699 313.084 90.4749C313.047 90.3799 312.992 90.2932 312.921 90.2201C312.85 90.1472 312.765 90.089 312.671 90.0493C312.578 90.0097 312.477 89.9892 312.375 89.9892Z" fill="#020202"/>
<path d="M304.062 78.3751C304.656 78.3751 305.226 78.3751 305.819 78.2326C306.413 78.0901 307.007 78.0901 307.577 77.9951C308.978 77.7814 310.356 77.4726 311.733 77.2114C311.933 77.1876 312.115 77.0881 312.243 76.9333C312.371 76.7786 312.435 76.5806 312.422 76.3801C312.392 76.1787 312.288 75.9958 312.129 75.8681C311.971 75.7405 311.77 75.6774 311.567 75.6914H305.582C304.976 75.742 304.373 75.8291 303.777 75.9526C302.385 76.2652 301.012 76.6616 299.668 77.1401C299.493 77.1748 299.339 77.2757 299.237 77.422C299.135 77.5681 299.094 77.7481 299.122 77.9239C299.136 78.0113 299.168 78.0949 299.215 78.1694C299.263 78.2438 299.326 78.3077 299.399 78.3566C299.473 78.4058 299.556 78.439 299.643 78.4544C299.73 78.4699 299.82 78.4673 299.906 78.4464C301.283 78.3751 302.684 78.4226 304.062 78.3751Z" fill="#020202"/>
<path d="M312.018 96.1887H305.986C305.387 96.2407 304.792 96.3278 304.204 96.4497C302.804 96.762 301.424 97.1586 300.072 97.6372C299.986 97.6559 299.905 97.6913 299.833 97.7414C299.761 97.7916 299.699 97.8554 299.652 97.9293C299.605 98.0032 299.572 98.0858 299.557 98.172C299.541 98.2585 299.543 98.3471 299.561 98.433C299.58 98.5188 299.615 98.6 299.666 98.672C299.716 98.7442 299.78 98.8057 299.853 98.8529C299.927 98.9004 300.01 98.9327 300.096 98.9484C300.183 98.9639 300.271 98.9622 300.357 98.9437H304.489C305.083 98.9437 305.653 98.9434 306.247 98.8009C306.841 98.6584 307.434 98.6587 308.028 98.5637C309.406 98.3499 310.759 98.0412 312.137 97.7799C312.237 97.7709 312.334 97.7422 312.423 97.6956C312.512 97.6488 312.591 97.5849 312.654 97.5077C312.719 97.4303 312.767 97.3413 312.796 97.2453C312.825 97.1494 312.835 97.0484 312.826 96.9487C312.829 96.8437 312.811 96.739 312.771 96.6418C312.731 96.5447 312.671 96.457 312.595 96.3851C312.518 96.3131 312.427 96.2585 312.328 96.2245C312.228 96.1906 312.123 96.1782 312.018 96.1887Z" fill="#020202"/>
<path d="M272.188 82.2698C272.287 82.2698 272.384 82.2501 272.475 82.2116C272.566 82.1731 272.648 82.1166 272.717 82.0458C272.786 81.9748 272.84 81.891 272.875 81.7988C272.911 81.7067 272.927 81.6084 272.924 81.5098C273.067 80.5123 273.233 79.5861 273.352 78.5886C273.376 78.1772 273.376 77.7649 273.352 77.3536V76.1423C273.352 75.1448 273.114 74.2186 273.043 73.2448C273.064 73.0691 273.016 72.8924 272.91 72.7508C272.804 72.6093 272.647 72.514 272.473 72.4848C272.384 72.4715 272.293 72.4765 272.205 72.4995C272.118 72.5223 272.037 72.5629 271.965 72.6185C271.894 72.6741 271.835 72.7434 271.792 72.8225C271.748 72.9016 271.722 72.9888 271.713 73.0786C271.361 74.0354 271.091 75.0208 270.905 76.0236C270.87 76.4503 270.87 76.8793 270.905 77.3061C270.882 77.7331 270.882 78.1613 270.905 78.5886C271.024 79.5861 271.19 80.5361 271.38 81.5336C271.38 81.6364 271.401 81.7385 271.442 81.8328C271.484 81.9271 271.544 82.0116 271.621 82.081C271.697 82.1503 271.787 82.2031 271.884 82.2356C271.982 82.2681 272.085 82.2798 272.188 82.2698Z" fill="url(#paint0_linear_70_6083)"/>
<path d="M273.162 93.742C273.281 92.7682 273.447 91.842 273.59 90.8445V89.6095C273.613 89.2062 273.613 88.8017 273.59 88.3982C273.59 87.4007 273.4 86.4507 273.376 85.477C273.403 85.3143 273.373 85.1473 273.29 85.0043C273.208 84.8614 273.079 84.7514 272.925 84.6932C272.749 84.6725 272.572 84.72 272.431 84.8262C272.289 84.9324 272.194 85.0889 272.165 85.2632C271.792 86.2215 271.491 87.206 271.262 88.2082C271.226 88.6428 271.226 89.0798 271.262 89.5145C271.239 89.9496 271.239 90.3856 271.262 90.8207C271.262 91.842 271.547 92.8157 271.737 93.8132C271.749 94.017 271.841 94.2079 271.991 94.3452C272.142 94.4827 272.341 94.5561 272.545 94.5495C272.729 94.5148 272.894 94.4134 273.008 94.2642C273.122 94.1151 273.177 93.9291 273.162 93.742Z" fill="url(#paint1_linear_70_6083)"/>
<path d="M293.255 86.7834C293.255 86.5818 293.175 86.3885 293.033 86.246C292.89 86.1035 292.697 86.0234 292.495 86.0234C292.293 86.0353 292.103 86.1222 291.963 86.2673C291.822 86.4125 291.741 86.6051 291.735 86.8072C291.616 87.6622 291.45 88.4697 291.379 89.3247V91.4622C291.521 92.2934 291.806 93.0534 291.973 93.8372C291.966 93.9253 291.978 94.0139 292.007 94.0972C292.037 94.1806 292.083 94.2568 292.143 94.3217C292.203 94.3863 292.276 94.4378 292.357 94.473C292.438 94.5081 292.526 94.5262 292.614 94.5259C292.789 94.5264 292.957 94.4604 293.085 94.3412C293.213 94.2222 293.291 94.059 293.303 93.8847C293.522 93.0475 293.697 92.1992 293.825 91.3434C293.861 90.9801 293.861 90.6143 293.825 90.2509C293.821 89.8916 293.781 89.5337 293.706 89.1822C293.635 88.3984 293.421 87.6147 293.255 86.7834Z" fill="url(#paint2_linear_70_6083)"/>
<path d="M291.332 73.6249C291.332 74.5512 291.094 75.4774 291.023 76.4274V77.6149C290.999 78.0182 290.999 78.4227 291.023 78.8262C291.204 79.7873 291.433 80.7385 291.712 81.6762C291.724 81.8545 291.805 82.0213 291.938 82.141C292.071 82.2607 292.245 82.3241 292.424 82.3174C292.514 82.3143 292.602 82.2934 292.683 82.2557C292.764 82.2179 292.837 82.1642 292.896 82.0975C292.956 82.031 293.002 81.9531 293.031 81.8685C293.06 81.7838 293.072 81.6942 293.066 81.6049C293.066 80.6549 293.422 79.7524 293.517 78.8024V77.5912C293.552 77.1881 293.552 76.783 293.517 76.3799C293.386 75.419 293.196 74.4671 292.947 73.5299C292.941 73.4278 292.914 73.328 292.869 73.2364C292.823 73.1449 292.76 73.0635 292.683 72.997C292.605 72.9305 292.515 72.8801 292.417 72.8492C292.32 72.8186 292.217 72.8077 292.116 72.8174C292.011 72.8174 291.907 72.8383 291.81 72.8792C291.713 72.92 291.626 72.9799 291.553 73.0552C291.479 73.1307 291.422 73.2197 291.384 73.3176C291.346 73.4154 291.328 73.5199 291.332 73.6249Z" fill="url(#paint3_linear_70_6083)"/>
<path d="M290.096 69.397L290.548 70.157C290.572 70.2412 290.613 70.3195 290.668 70.3872C290.724 70.4549 290.793 70.5105 290.871 70.5505C290.949 70.5906 291.034 70.6143 291.121 70.6201C291.209 70.6259 291.296 70.6138 291.379 70.5845C291.467 70.5702 291.551 70.5384 291.626 70.491C291.702 70.4435 291.767 70.3814 291.818 70.3083C291.869 70.2352 291.905 70.1526 291.923 70.0654C291.942 69.9782 291.942 69.8882 291.925 69.8007C291.885 69.3372 291.814 68.877 291.711 68.4232C291.627 68.1552 291.507 67.8996 291.355 67.6632C290.873 67.013 290.174 66.5579 289.384 66.3807C288.929 66.2963 288.462 66.2963 288.006 66.3807C287.056 66.3807 286.106 66.737 285.346 66.7607C285.246 66.7474 285.145 66.7542 285.048 66.7805C284.95 66.8069 284.859 66.8523 284.78 66.9142C284.7 66.9761 284.634 67.0532 284.584 67.141C284.535 67.2288 284.503 67.3256 284.491 67.4257C284.471 67.6264 284.529 67.8273 284.652 67.9866C284.776 68.1458 284.957 68.2512 285.156 68.2807L289.906 69.207C289.975 69.2645 290.039 69.3281 290.096 69.397Z" fill="url(#paint4_linear_70_6083)"/>
<path d="M292.994 96.5683C292.815 96.5683 292.644 96.6376 292.515 96.7616C292.387 96.8856 292.311 97.0549 292.305 97.2333C292.221 97.9605 292.094 98.6823 291.925 99.3945C291.813 99.9462 291.55 100.456 291.165 100.867C290.961 101.104 290.7 101.284 290.405 101.39C289.98 101.568 289.544 101.719 289.099 101.841C288.055 102.061 287.001 102.228 285.94 102.34C285.831 102.32 285.718 102.325 285.611 102.353C285.504 102.382 285.404 102.434 285.319 102.505C285.233 102.576 285.165 102.665 285.118 102.766C285.071 102.867 285.046 102.977 285.046 103.088C285.046 103.199 285.071 103.309 285.118 103.409C285.165 103.51 285.233 103.599 285.319 103.67C285.404 103.742 285.504 103.794 285.611 103.822C285.718 103.851 285.831 103.855 285.94 103.836C287.597 104.135 289.295 104.135 290.952 103.836C291.898 103.627 292.74 103.088 293.327 102.316C293.714 101.632 293.941 100.868 293.992 100.083C293.998 99.1202 293.918 98.1586 293.754 97.2095C293.751 97.1157 293.729 97.0233 293.689 96.9385C293.648 96.854 293.59 96.7789 293.518 96.7181C293.446 96.6576 293.362 96.6129 293.272 96.587C293.182 96.5614 293.087 96.555 292.994 96.5683Z" fill="url(#paint5_linear_70_6083)"/>
<path d="M281.047 66.832C280.011 66.5207 278.956 66.2748 277.888 66.0958C277.09 66.0196 276.285 66.092 275.513 66.3095C274.779 66.49 274.106 66.8655 273.567 67.3963C273.028 67.9272 272.642 68.5938 272.45 69.3258C272.412 69.4222 272.395 69.5253 272.399 69.6286C272.403 69.732 272.428 69.8335 272.472 69.9269C272.517 70.0202 272.58 70.1036 272.658 70.1717C272.735 70.2399 272.826 70.2915 272.925 70.3233C273.117 70.3746 273.321 70.3487 273.494 70.251C273.668 70.1533 273.796 69.9917 273.851 69.8008C274.027 69.5289 274.257 69.2959 274.527 69.1162C274.796 68.9365 275.1 68.8138 275.418 68.7558C275.731 68.6816 276.048 68.6339 276.368 68.6133C276.867 68.6133 277.413 68.6133 277.96 68.4708L281 68.162C281.095 68.166 281.191 68.1493 281.279 68.113C281.368 68.0767 281.448 68.0218 281.513 67.9519C281.578 67.882 281.628 67.7988 281.658 67.708C281.688 67.6172 281.699 67.5209 281.688 67.4258C281.676 67.2641 281.604 67.1129 281.485 67.0027C281.366 66.8926 281.209 66.8316 281.047 66.832Z" fill="url(#paint6_linear_70_6083)"/>
<path d="M280.952 102.268C279.812 102.268 278.126 102.126 276.558 101.865C276.078 101.819 275.606 101.707 275.157 101.532C274.902 101.462 274.662 101.349 274.444 101.2C274.206 100.902 274.043 100.552 273.969 100.178C273.83 99.5995 273.727 99.0124 273.661 98.4208C273.644 98.2311 273.562 98.0529 273.427 97.9183C273.292 97.7836 273.114 97.7007 272.924 97.6846C272.824 97.6877 272.726 97.7105 272.635 97.7515C272.544 97.7926 272.462 97.8511 272.394 97.924C272.325 97.9966 272.272 98.0824 272.237 98.1757C272.201 98.2691 272.185 98.3686 272.188 98.4683C272.093 99.4081 272.093 100.355 272.188 101.295C272.256 101.888 272.496 102.449 272.877 102.91C273.811 103.813 275.046 104.337 276.344 104.382C277.952 104.301 279.545 104.038 281.094 103.598C281.271 103.598 281.44 103.528 281.564 103.404C281.689 103.279 281.759 103.11 281.759 102.933C281.759 102.757 281.689 102.588 281.564 102.463C281.44 102.338 281.271 102.268 281.094 102.268H280.952Z" fill="url(#paint7_linear_70_6083)"/>
<path fill-rule="evenodd" clip-rule="evenodd" d="M34.4082 130.988C36.4176 129.867 38.3546 128.621 40.2076 127.256C40.309 127.057 40.3283 126.826 40.2618 126.613C40.195 126.4 40.0478 126.222 39.8511 126.115C38.4489 125.212 37.1177 124.261 35.6917 123.358L33.9091 122.265C33.2673 121.908 32.6731 121.576 32.0314 121.29C30.6053 120.601 29.1792 120.054 27.7768 119.437C27.7768 119.151 27.9908 118.89 28.0858 118.581C28.1809 118.272 28.0858 118.153 28.0858 117.963V117.63C29.7296 117.608 31.365 117.393 32.9583 116.988C34.5505 116.575 36.0082 115.756 37.1892 114.612C37.8796 113.996 38.419 113.23 38.7653 112.373C39.1115 111.516 39.2555 110.59 39.1856 109.668C39.0949 108.773 38.8149 107.907 38.3641 107.129C37.9134 106.35 37.3023 105.676 36.5712 105.152C35.5145 104.374 34.3213 103.802 33.0534 103.464C31.8195 103.145 30.5485 102.994 29.2742 103.013C29.0473 103.013 28.8297 103.103 28.6692 103.263C28.5087 103.424 28.4186 103.641 28.4186 103.868C28.4246 104.093 28.5167 104.307 28.6758 104.467C28.835 104.626 29.0492 104.718 29.2742 104.724C30.374 104.753 31.4633 104.946 32.5068 105.294C33.5064 105.617 34.4402 106.116 35.2639 106.768C35.7295 107.135 36.1135 107.596 36.3917 108.119C36.67 108.643 36.8363 109.219 36.8802 109.81C36.8769 110.377 36.7472 110.935 36.5005 111.445C36.2537 111.955 35.8962 112.404 35.454 112.758C34.5217 113.543 33.4123 114.089 32.2215 114.35C30.246 114.768 28.2247 114.927 26.2081 114.825C25.2552 114.849 24.3017 114.802 23.3559 114.683C22.4238 114.586 21.5015 114.412 20.5988 114.16C19.3182 113.871 18.1764 113.149 17.3663 112.116C17.0109 111.634 16.8 111.06 16.7579 110.463C16.7158 109.865 16.8444 109.268 17.1286 108.741L17.9129 107.362C19.0421 106.3 20.4001 105.511 21.8823 105.057C23.4212 104.548 25.0185 104.236 26.636 104.13C26.8377 104.13 27.0311 104.05 27.1738 103.907C27.3164 103.764 27.3965 103.571 27.3965 103.369C27.3965 103.167 27.3164 102.974 27.1738 102.831C27.0311 102.689 26.8377 102.608 26.636 102.608C24.4835 102.586 22.3413 102.907 20.2898 103.559C18.8442 104.006 17.5083 104.751 16.368 105.746C16.1435 105.984 15.937 106.238 15.75 106.506C15.4892 106.867 15.2587 107.249 15.0607 107.647C14.5145 108.559 14.242 109.608 14.2757 110.67C14.3094 111.732 14.6479 112.762 15.2509 113.637C16.3963 115.264 18.08 116.435 20.0046 116.941C21.0475 117.244 22.1123 117.467 23.1895 117.606C23.9264 117.606 24.6632 117.606 25.4238 117.725V117.987C25.4004 118.192 25.4004 118.399 25.4238 118.605C25.5067 118.964 25.6261 119.315 25.7803 119.65C24.4017 120.054 23.0232 120.435 21.6684 120.981C21.0028 121.267 20.3136 121.599 19.648 121.932C18.9825 122.265 18.3645 122.645 17.7466 123.049C16.2492 123.952 14.8706 124.927 13.3969 125.878C13.0529 126.334 12.7354 126.811 12.4462 127.304C12.4019 127.499 12.4339 127.704 12.5355 127.876C12.6371 128.048 12.8007 128.175 12.9929 128.231C13.4611 128.429 13.9072 128.676 14.3239 128.968C15.441 129.728 16.4393 130.703 17.5089 131.344C18.6091 131.942 19.7441 132.474 20.9078 132.937C22.4248 133.479 23.9725 133.931 25.5426 134.292C25.5426 134.72 25.2574 135.124 25.1623 135.575C25.1268 135.836 25.1268 136.099 25.1623 136.36C25.1376 136.628 25.1376 136.899 25.1623 137.168C25.2655 137.693 25.4085 138.209 25.5901 138.713H16.0828C15.8849 138.706 15.6924 138.777 15.5459 138.91C15.3995 139.043 15.3107 139.228 15.2984 139.426C15.3045 139.62 15.3805 139.806 15.5123 139.949C14.9419 141.256 14.419 142.539 13.9436 143.894C13.6157 144.884 13.3458 145.892 13.1355 146.913C13.1355 147.388 12.6601 148.885 12.5413 149.884C12.5007 150.325 12.5492 150.769 12.6839 151.191C12.8908 151.566 13.1763 151.892 13.5209 152.146C13.8656 152.401 14.2611 152.578 14.6804 152.665C16.5504 153.093 18.467 153.285 20.3849 153.235C25.6681 153.084 30.934 152.56 36.1433 151.667C37.308 151.476 35.9056 151.667 37.9734 146.01C38.1874 145.368 38.4014 144.702 38.5914 144.037C38.7638 143.413 38.8909 142.777 38.9717 142.135C39.007 141.541 38.9011 140.946 38.6627 140.4C38.4639 139.953 38.0967 139.603 37.6407 139.426C37.1059 139.239 36.5435 139.143 35.9769 139.141L32.6018 138.736H30.534L27.4441 138.855C27.4441 138.356 27.7055 137.881 27.8006 137.358C27.8253 137.089 27.8253 136.819 27.8006 136.55C27.8231 136.273 27.8231 135.995 27.8006 135.718C27.6711 135.295 27.5122 134.882 27.3252 134.482L31.0094 132.985C32.2215 132.224 33.3387 131.677 34.4082 130.988ZM32.3879 141.541L35.8819 141.803C36.0956 141.816 36.31 141.816 36.5235 141.803V142.159C36.4974 142.59 36.4418 143.019 36.3573 143.443C36.2283 144.244 36.0536 145.038 35.8343 145.819C35.4778 147.079 35.05 148.315 34.7172 149.551C34.6826 149.659 34.6826 149.776 34.7172 149.884C32.9821 149.884 30.1299 150.098 27.0162 150.145H21.6921C19.957 150.145 17.8892 150.145 16.5344 149.931H15.0607C14.2764 149.931 15.2509 147.555 15.2984 146.984C15.4252 145.887 15.6237 144.799 15.8926 143.728C16.1779 142.611 16.4868 141.517 16.8434 140.448C16.8554 140.369 16.8554 140.289 16.8434 140.21L25.9467 141.208L32.3879 141.541ZM27.1589 132.509L26.636 132.842L18.7924 128.873C17.5802 128.397 16.4155 127.708 15.1558 127.233C15.0243 127.176 14.8894 127.129 14.7517 127.09C16.1779 126.543 17.6039 125.997 18.9825 125.379L21.0028 124.428C21.6446 124.095 22.2863 123.762 22.9043 123.382C24.2591 122.55 25.5664 121.647 26.9687 120.768C28.2047 121.742 29.3455 122.74 30.6528 123.62C31.2434 124.023 31.8543 124.396 32.483 124.737C33.1247 125.093 33.7665 125.402 34.4082 125.688C35.05 125.973 36.072 126.377 36.785 126.71C35.4778 127.28 34.1705 127.827 32.8871 128.516C31.6036 129.205 30.7479 129.799 29.6783 130.417C28.6087 131.035 28.062 131.867 27.1589 132.509Z" fill="#020202"/>
<path fill-rule="evenodd" clip-rule="evenodd" d="M14.9419 149.718C14.9419 149.837 14.9419 149.884 15.0844 149.932C15.2269 149.979 15.0131 149.623 14.9419 149.718Z" fill="#020202"/>
<path d="M58.4855 117.083V115.134L58.1765 112.924C58.0176 112.197 57.7096 111.511 57.2719 110.91C56.8339 110.309 56.276 109.805 55.6333 109.43C53.8324 108.739 51.8989 108.463 49.9766 108.622C47.8374 108.622 45.6982 108.883 43.5351 108.931H40.8257C40.6283 108.91 40.4303 108.964 40.2714 109.083C40.1127 109.202 40.0049 109.377 39.97 109.573C39.9427 109.771 39.9949 109.972 40.1151 110.132C40.2353 110.292 40.4136 110.399 40.6117 110.428C41.8517 110.69 43.1055 110.88 44.3671 110.999C46.221 111.213 48.0749 111.308 49.9051 111.498C51.3895 111.363 52.8859 111.533 54.3024 111.997C55.027 112.376 55.5733 113.025 55.8236 113.803L56.2513 115.372C56.2513 115.919 56.2513 116.489 56.3701 117.06V117.345C56.1326 117.915 58.1052 118.034 58.3667 117.345C58.4617 117.202 58.4617 117.131 58.4855 117.083Z" fill="url(#paint8_linear_70_6083)"/>
<path d="M55.1583 137.049C55.0968 137.967 54.9776 138.88 54.8018 139.783C54.6987 140.349 54.5477 140.906 54.3501 141.446C54.2397 141.851 54.0449 142.227 53.7784 142.55C53.5122 142.874 53.1806 143.138 52.8052 143.324C51.8913 143.764 50.8954 144.007 49.8818 144.037C47.6711 144.275 45.437 144.322 43.2265 144.536C42.2452 144.604 41.2691 144.731 40.3029 144.916C40.1058 144.951 39.9284 145.058 39.8056 145.216C39.6826 145.374 39.6227 145.572 39.6374 145.772C39.6669 145.97 39.7733 146.149 39.9334 146.269C40.0937 146.389 40.2948 146.441 40.4932 146.414H43.274C45.532 146.414 47.7664 146.77 50.0005 146.818C51.7511 146.852 53.4721 146.364 54.9443 145.416C55.9879 144.601 56.7182 143.451 57.0122 142.159C57.212 141.3 57.339 140.426 57.3925 139.545C57.44 138.714 57.44 137.881 57.3925 137.049V135.029C57.3858 134.779 57.288 134.541 57.1174 134.358C56.9467 134.176 56.7154 134.062 56.4665 134.039C56.2178 134.015 55.9694 134.084 55.7677 134.231C55.5661 134.379 55.4253 134.595 55.3721 134.839L55.1583 137.049Z" fill="url(#paint9_linear_70_6083)"/>
<path d="M69.419 124.571C69.0388 118.985 67.8266 119.389 67.7316 119.389H67.5651C64.9552 118.92 62.3206 118.603 59.6739 118.438H54.1122C52.4485 118.438 50.856 118.605 49.3586 118.771C48.2283 118.899 47.1085 119.105 46.0072 119.389C45.1465 120.74 44.5198 122.227 44.1533 123.786C44.0533 124.336 43.9899 124.892 43.9631 125.45C43.9277 126.004 43.9277 126.56 43.9631 127.114C44.1298 128.409 44.4571 129.679 44.9375 130.893C44.999 131.112 45.1408 131.3 45.3349 131.419C45.5287 131.538 45.7602 131.579 45.9835 131.535C46.0977 131.502 46.2036 131.444 46.2939 131.366C46.3841 131.288 46.4566 131.192 46.5062 131.083C46.5072 131.237 46.5589 131.385 46.6537 131.506C46.7482 131.626 46.8805 131.712 47.0292 131.749C48.1217 132.085 49.2439 132.316 50.3805 132.438C51.9255 132.652 57.012 132.842 57.9865 132.937H60.3634C62.9973 132.882 65.625 132.66 68.2306 132.272C68.7773 132.272 68.8723 132.676 69.3003 127.138C69.4053 126.286 69.4449 125.428 69.419 124.571ZM59.1749 130.275H55.2769C53.4467 130.275 51.5452 130.632 49.6676 130.632C48.8727 130.649 48.0778 130.601 47.2907 130.489C47.1273 130.454 46.9568 130.478 46.809 130.556C46.6613 130.635 46.5456 130.762 46.4825 130.917V130.703C46.4345 130.046 46.4345 129.387 46.4825 128.73C46.4825 128.065 46.6015 127.423 46.649 126.758C46.6965 126.092 46.649 125.45 46.649 124.808V121.053H48.3601C50.2141 121.053 52.0442 121.362 53.9697 121.505H66.7331C66.7331 122.455 66.4956 123.382 66.4242 124.333V127.637C66.4242 128.754 66.6856 129.847 66.8284 130.941C64.404 130.608 61.8131 130.275 59.1749 130.275Z" fill="#020202"/>
<path fill-rule="evenodd" clip-rule="evenodd" d="M345.4 227.173C345.205 225.335 344.699 223.543 343.903 221.875C343.365 220.82 342.753 219.804 342.074 218.834C341.933 218.643 341.756 218.482 341.553 218.361C341.349 218.24 341.124 218.16 340.889 218.127C340.655 218.094 340.416 218.108 340.187 218.168C339.958 218.228 339.743 218.333 339.555 218.477C338.415 219.451 337.488 220.426 336.372 221.233C335.719 221.735 334.999 222.143 334.233 222.445C330.931 223.823 325.846 224.821 322.71 227.054C321.393 227.92 320.393 229.189 319.857 230.671C319.322 232.153 319.281 233.768 319.74 235.275C319.883 235.852 320.074 236.416 320.31 236.962L320.667 237.58C314.067 241.901 307.721 246.597 301.659 251.646C298.737 253.923 296.195 256.65 294.127 259.724C293.452 260.96 292.964 262.289 292.678 263.668C292.488 264.68 292.488 265.72 292.678 266.733C292.91 267.918 293.396 269.038 294.101 270.018C294.806 270.998 295.715 271.815 296.765 272.411C297.835 273.038 299.037 273.406 300.275 273.484C301.513 273.563 302.752 273.35 303.892 272.863C307.221 270.69 310.147 267.957 312.541 264.785C318.79 257.443 326.084 247.179 328.602 244.042C328.756 243.847 328.829 243.601 328.807 243.354C328.785 243.106 328.669 242.877 328.484 242.712C328.338 242.629 328.175 242.581 328.008 242.569C327.486 241.88 327.01 241.168 326.44 240.502C326.187 240.194 325.909 239.908 325.609 239.647C325.317 239.37 324.999 239.123 324.658 238.91C323.879 238.542 323.204 237.983 322.698 237.286C322.191 236.588 321.868 235.774 321.759 234.919C321.485 233.792 321.579 232.607 322.028 231.538C322.477 230.468 323.257 229.572 324.254 228.979C325.79 228.071 327.457 227.406 329.196 227.007C329.234 227.368 329.331 227.721 329.481 228.052C330.038 228.924 330.876 229.578 331.857 229.906C332.74 230.139 333.554 230.578 334.233 231.189C334.798 231.913 335.092 232.812 335.065 233.731C335.072 235.166 335.431 236.577 336.11 237.841C336.533 238.357 337.059 238.778 337.655 239.077C336.68 239.881 335.629 240.589 334.518 241.191C333.01 242.025 331.323 242.481 329.6 242.522C329.477 242.512 329.352 242.527 329.235 242.567C329.117 242.606 329.008 242.668 328.915 242.75C328.822 242.832 328.746 242.932 328.693 243.044C328.639 243.156 328.608 243.277 328.602 243.401C328.593 243.524 328.608 243.649 328.647 243.766C328.686 243.884 328.749 243.993 328.831 244.086C328.913 244.179 329.012 244.255 329.124 244.308C329.236 244.362 329.358 244.393 329.481 244.399C331.107 244.463 332.726 244.179 334.233 243.567C336.496 242.731 338.6 241.518 340.458 239.98C341.568 239.031 342.515 237.908 343.262 236.653C343.977 235.407 344.529 234.073 344.901 232.685C345.403 230.894 345.572 229.026 345.4 227.173ZM324.254 242.736C324.872 243.139 325.49 243.472 326.108 243.829C322.971 247.63 316.129 256.421 310.212 262.836C308.04 265.622 305.423 268.03 302.467 269.964C301.781 270.244 301.039 270.36 300.301 270.302C299.563 270.244 298.848 270.014 298.214 269.631C297.563 269.268 296.998 268.767 296.559 268.164C296.12 267.561 295.818 266.87 295.672 266.139C295.556 265.345 295.604 264.537 295.814 263.763C296.058 262.868 296.392 262 296.812 261.173C299.335 257.448 302.43 254.144 305.983 251.384C311.591 246.466 318.077 241.571 321.165 239.338C321.549 239.993 321.978 240.62 322.449 241.215C322.982 241.805 323.589 242.324 324.254 242.759V242.736ZM342.145 231.996C341.907 233.204 341.499 234.372 340.933 235.465C340.486 236.263 339.935 236.998 339.294 237.651C338.822 237.464 338.422 237.131 338.154 236.701C337.843 235.652 337.778 234.547 337.963 233.469C338.006 231.823 337.429 230.221 336.348 228.979C335.428 228.212 334.321 227.704 333.14 227.506C332.38 227.34 331.596 227.506 331.192 226.888C331.044 226.792 330.922 226.662 330.836 226.508C332.404 226.128 333.972 225.771 335.255 225.32C336.294 224.956 337.272 224.435 338.154 223.776C338.98 223.178 339.773 222.535 340.53 221.851C340.791 222.469 341.005 223.158 341.029 223.205C341.7 224.558 342.15 226.01 342.359 227.506C342.535 229.004 342.463 230.521 342.145 231.996Z" fill="#020202"/>
<path fill-rule="evenodd" clip-rule="evenodd" d="M293.462 227.15C294.555 229.169 292.369 224.774 303.417 245.112C303.518 245.306 303.693 245.453 303.902 245.52C304.111 245.587 304.338 245.568 304.534 245.468C304.728 245.366 304.876 245.194 304.947 244.986C305.018 244.778 305.006 244.551 304.914 244.351L302.324 238.388C303.089 238.192 303.83 237.913 304.534 237.556C305.173 237.211 305.777 236.805 306.339 236.344C307.195 235.655 307.907 234.895 308.715 234.206C308.823 234.147 308.918 234.067 308.995 233.971C309.071 233.875 309.128 233.765 309.163 233.647C309.197 233.529 309.207 233.405 309.194 233.283C309.18 233.161 309.143 233.043 309.084 232.935C309.024 232.827 308.944 232.732 308.848 232.656C308.752 232.579 308.642 232.522 308.524 232.488C308.406 232.453 308.283 232.443 308.16 232.456C308.038 232.47 307.92 232.507 307.812 232.567C306.748 232.898 305.708 233.303 304.7 233.778C303.849 234.148 303.05 234.627 302.324 235.204C301.92 235.537 301.54 235.893 301.16 236.249L299.069 231.497L300.209 231.07C300.613 230.88 301.017 230.666 301.374 230.452C301.73 230.238 302.11 229.953 302.467 229.692C303.298 229.027 304.058 228.337 304.842 227.648C305.057 227.522 305.212 227.316 305.274 227.076C305.337 226.835 305.301 226.58 305.175 226.365C305.049 226.151 304.843 225.996 304.602 225.933C304.362 225.871 304.106 225.907 303.892 226.033C302.894 226.389 301.92 226.698 300.922 227.126C300.51 227.29 300.113 227.489 299.734 227.72C299.34 227.94 298.967 228.194 298.617 228.48C298.384 228.69 298.162 228.912 297.952 229.145C297.382 228.005 296.669 226.769 296.099 225.653C295.956 225.368 295.838 225.106 295.719 224.821C296.324 224.587 296.943 224.389 297.572 224.227C298.831 223.586 300.186 222.873 301.54 222.231C302.894 221.59 304.272 220.996 305.65 220.426C306.246 220.282 306.826 220.083 307.385 219.832V220.022C307.931 220.83 308.43 221.804 308.834 222.398C310.093 224.156 311.21 226.009 312.422 227.886C313.633 229.763 314.608 231.711 315.558 233.66C315.609 233.774 315.683 233.876 315.774 233.962C315.865 234.048 315.972 234.114 316.089 234.159C316.206 234.203 316.331 234.223 316.456 234.219C316.58 234.215 316.703 234.186 316.817 234.135C317.043 234.027 317.217 233.834 317.302 233.598C317.387 233.362 317.375 233.103 317.269 232.876C316.413 230.832 315.415 228.789 314.37 226.793C313.325 224.797 312.208 222.825 311.044 220.925C310.592 220.236 310.093 219 309.476 218.097C309.134 217.543 308.691 217.06 308.169 216.672C307.923 216.559 307.655 216.5 307.385 216.5C307.114 216.5 306.847 216.559 306.601 216.672C306.125 216.79 304.7 217.527 304.534 217.598C303.084 218.145 301.635 218.739 300.233 219.356C298.831 219.974 297.406 220.687 296.051 221.4C295.029 221.934 294.059 222.563 293.153 223.277C292.906 223.495 292.723 223.776 292.623 224.089C292.522 224.403 292.508 224.738 292.583 225.059C292.8 225.785 293.095 226.486 293.462 227.15Z" fill="url(#paint10_linear_70_6083)"/>
<path fill-rule="evenodd" clip-rule="evenodd" d="M332.475 259.225C331.477 257.324 330.337 255.494 329.315 253.618C328.888 252.834 328.46 252.026 328.103 251.242C327.999 251.023 327.815 250.853 327.59 250.766C327.364 250.678 327.114 250.68 326.889 250.771C326.665 250.862 326.484 251.035 326.383 251.255C326.282 251.475 326.268 251.725 326.345 251.954L330.028 260.413C330.194 260.817 330.527 261.482 330.788 262.171C330.921 262.465 331.009 262.777 331.05 263.098C330.277 263.42 329.483 263.69 328.674 263.905L321.332 268.253C320.999 268.443 320.477 268.776 319.93 269.037L319.36 269.346C319.29 269.195 319.242 269.036 319.217 268.871L318.03 266.709C318.64 266.617 319.244 266.482 319.835 266.305C320.13 266.182 320.415 266.039 320.691 265.877C320.964 265.725 321.219 265.542 321.451 265.331C322.045 264.832 322.52 264.309 323.09 263.763C323.306 263.638 323.464 263.434 323.531 263.194C323.597 262.954 323.567 262.698 323.447 262.48C323.322 262.264 323.118 262.106 322.878 262.039C322.638 261.973 322.382 262.003 322.164 262.123C321.403 262.337 320.691 262.48 319.954 262.741C319.65 262.852 319.356 262.987 319.075 263.145C318.794 263.297 318.531 263.48 318.291 263.692C317.864 264.098 317.467 264.535 317.103 264.998V264.808C316.993 264.616 316.814 264.473 316.603 264.406C316.391 264.34 316.162 264.357 315.962 264.452C315.768 264.553 315.621 264.728 315.554 264.937C315.487 265.146 315.506 265.373 315.606 265.569L317.364 269.821C317.497 270.261 317.664 270.69 317.863 271.104C317.954 271.26 318.078 271.393 318.225 271.496C318.373 271.599 318.541 271.668 318.719 271.698C319.225 271.825 319.756 271.825 320.263 271.698C321.081 271.473 321.877 271.17 322.639 270.796C323.732 270.344 324.825 269.845 325.894 269.299C327.462 268.515 328.959 267.612 330.479 266.756C331.542 266.26 332.56 265.671 333.521 264.998C333.882 264.691 334.133 264.274 334.234 263.81C334.275 263.181 334.186 262.55 333.972 261.957C333.544 261.009 333.043 260.096 332.475 259.225Z" fill="url(#paint11_linear_70_6083)"/>
<path fill-rule="evenodd" clip-rule="evenodd" d="M77.3825 282.873C84.3621 283.342 91.3675 283.27 98.3361 282.66C98.4387 282.679 98.5444 282.675 98.6454 282.649C98.7465 282.622 98.8406 282.574 98.9209 282.507C99.0011 282.44 99.0657 282.357 99.1102 282.262C99.1543 282.167 99.1774 282.064 99.1774 281.96C99.1774 281.855 99.1543 281.752 99.1102 281.658C99.0657 281.563 99.0011 281.479 98.9209 281.413C98.8406 281.346 98.7465 281.298 98.6454 281.271C98.5444 281.245 98.4387 281.241 98.3361 281.26C85.949 279.978 89.5085 280.358 77.2876 281.26C77.0736 281.272 76.8734 281.369 76.731 281.53C76.5886 281.69 76.5157 281.9 76.5283 282.114C76.5408 282.328 76.6379 282.528 76.7981 282.671C76.9583 282.813 77.1686 282.886 77.3825 282.873Z" fill="#020202"/>
<path fill-rule="evenodd" clip-rule="evenodd" d="M87.1117 298.654C82.9357 297.988 78.6732 298.093 74.5348 298.962C74.0365 293.789 74.1552 294.572 74.7484 283.372C74.89 283.246 74.9758 283.069 74.9869 282.88C74.9981 282.691 74.9336 282.505 74.8077 282.363C74.6819 282.222 74.5049 282.136 74.3158 282.125C74.1266 282.114 73.9408 282.178 73.7992 282.304C73.0398 282.921 73.1348 284.677 72.9686 285.341C71.8744 290.051 71.5063 294.901 71.8771 299.722C71.9874 301.574 72.3795 303.398 73.0398 305.132C74.3924 307.031 80.1588 306.983 82.5318 306.959C81.9942 307.637 81.6062 308.421 81.3935 309.259C81.1808 310.098 81.1482 310.972 81.2979 311.824C80.4388 311.92 79.599 312.144 78.8062 312.488C78.6426 312.519 78.4948 312.605 78.3884 312.733C78.282 312.861 78.2237 313.022 78.2237 313.189C78.2237 313.355 78.282 313.516 78.3884 313.644C78.4948 313.772 78.6426 313.858 78.8062 313.889C79.6912 314.283 80.6493 314.487 81.6182 314.487C82.5872 314.487 83.5453 314.283 84.4302 313.889C84.6442 313.889 84.8494 313.803 85.0007 313.652C85.152 313.501 85.237 313.296 85.237 313.082C85.237 312.868 85.152 312.663 85.0007 312.511C84.8494 312.36 84.6442 312.275 84.4302 312.275L83.2912 312.038C84.1112 310.497 84.4187 308.735 84.1692 307.007C84.1692 307.007 83.9082 307.007 85.9252 306.888C86.1392 306.888 86.3444 306.803 86.4957 306.652C86.647 306.501 86.732 306.295 86.732 306.081C86.732 305.867 86.647 305.662 86.4957 305.511C86.3444 305.36 86.1392 305.275 85.9252 305.275C82.484 305.271 79.0565 304.841 75.7213 303.993C75.0094 303.732 75.1993 303.851 75.0331 302.973C74.867 302.095 74.7959 301.525 74.7009 300.6C79.8741 301.217 79.7317 301.074 87.1592 300.268C87.2651 300.264 87.3694 300.241 87.4661 300.197C87.5628 300.154 87.65 300.092 87.7227 300.014C87.7954 299.937 87.8523 299.847 87.8899 299.748C87.9276 299.648 87.9454 299.543 87.9423 299.437C87.9391 299.331 87.9152 299.227 87.8718 299.13C87.8283 299.033 87.7663 298.946 87.6892 298.873C87.612 298.801 87.5213 298.744 87.4223 298.706C87.3232 298.669 87.2177 298.651 87.1117 298.654Z" fill="#020202"/>
<path fill-rule="evenodd" clip-rule="evenodd" d="M118.578 300.765C116.318 301.261 114.009 301.492 111.696 301.454C109.873 301.468 108.052 301.301 106.262 300.955C105.36 300.742 104.981 300.789 104.981 300.481C104.981 300.172 104.15 282.138 105.194 279.266C105.871 278.882 106.625 278.655 107.401 278.602C107.338 279.824 107.592 281.042 108.137 282.138C109.112 283.206 110.412 283.924 111.835 284.181C113.259 284.438 114.727 284.221 116.015 283.561C117.238 282.275 117.954 280.589 118.032 278.815C118.361 278.875 118.686 278.954 119.005 279.053C119.2 279.099 119.405 279.071 119.581 278.975C119.756 278.878 119.889 278.719 119.955 278.53C120.02 278.341 120.012 278.134 119.933 277.949C119.854 277.765 119.709 277.617 119.527 277.534C116.371 276.608 104.648 275.28 103.272 278.27C102.014 280.88 101.682 299.176 102.536 301.62C103.747 304.942 114.805 304.301 118.269 303.234C119.203 303.038 120.041 302.527 120.642 301.786C121.425 300.481 120.642 282.138 120.642 280.999C120.642 280.81 120.567 280.629 120.434 280.495C120.3 280.362 120.119 280.287 119.931 280.287C119.742 280.287 119.561 280.362 119.427 280.495C119.294 280.629 119.219 280.81 119.219 280.999C119.219 288.07 118.886 300.837 118.578 300.765ZM116.513 278.815C116.23 279.9 115.665 280.891 114.876 281.687C114.038 281.853 113.175 281.853 112.337 281.687C109.394 281.188 109.56 280.619 108.991 278.815V278.459C111.504 278.326 114.024 278.445 116.513 278.815Z" fill="#020202"/>
<path fill-rule="evenodd" clip-rule="evenodd" d="M127.263 322.004C125.198 318.207 120.334 317.827 116.394 319.631C114.259 302.711 106.285 304.088 106.001 311.634C105.891 315.08 106.113 318.529 106.665 321.932C103.604 320.034 98.9291 321.078 99.1189 324.923C99.2376 327.461 103.485 332.54 107.899 333.37C107.981 333.406 108.069 333.425 108.158 333.425C108.247 333.425 108.336 333.406 108.417 333.37C108.499 333.334 108.572 333.281 108.632 333.215C108.692 333.149 108.738 333.072 108.766 332.987C108.794 332.902 108.804 332.813 108.796 332.724C108.788 332.635 108.761 332.549 108.717 332.471C108.674 332.393 108.614 332.325 108.543 332.272C108.471 332.218 108.389 332.18 108.303 332.16C107.496 331.733 101.587 327.106 101.492 324.804C101.492 323.143 103.865 323.095 105.407 323.926C106.214 324.489 107.063 324.989 107.947 325.421C108.122 325.473 108.308 325.483 108.488 325.451C108.668 325.418 108.838 325.342 108.984 325.232C109.13 325.12 109.247 324.976 109.326 324.811C109.406 324.646 109.445 324.465 109.442 324.282C109.279 322.974 109.049 321.675 108.753 320.39C108.54 318.515 107.543 309.047 109.37 308.715C110.106 308.549 110.699 309.379 111.079 310.044C113.31 314.03 113.333 321.173 113.879 322.478C113.96 322.688 114.088 322.876 114.253 323.028C114.418 323.181 114.616 323.294 114.831 323.358C115.047 323.422 115.274 323.436 115.495 323.399C115.717 323.361 115.927 323.274 116.11 323.143C117.169 322.33 118.404 321.777 119.717 321.529C120.85 321.326 122.018 321.554 122.991 322.17C125.364 323.997 124.629 327.295 124.13 330.76C124.109 331.196 124.255 331.625 124.539 331.957C124.823 332.288 125.224 332.499 125.659 332.544C126.093 332.59 126.529 332.467 126.876 332.201C127.222 331.936 127.455 331.547 127.524 331.116C128.117 328.506 128.592 324.377 127.263 322.004Z" fill="#020202"/>
<path fill-rule="evenodd" clip-rule="evenodd" d="M100.828 317.733C100.828 316.523 99.2377 317.424 94.9187 316.807C94.539 316.807 92.8305 316.428 92.7118 316.095C91.9817 310.73 91.902 305.296 92.4745 299.912C92.4745 299.461 92.9254 299.034 92.783 298.891C94.2145 298.475 95.6861 298.213 97.1731 298.108C96.9833 299.318 97.0069 301.596 96.4611 305.227C96.2274 308.708 96.3148 312.203 96.7221 315.668C96.7221 316.594 98.3122 316.594 98.3122 315.668C98.5019 313.58 98.8342 311.515 98.9764 309.427C99.1472 305.58 99.0282 301.724 98.6207 297.894H100.21C100.424 297.894 100.63 297.809 100.781 297.658C100.932 297.507 101.017 297.302 101.017 297.088C101.017 296.874 100.932 296.668 100.781 296.517C100.63 296.366 100.424 296.281 100.21 296.281C97.3517 296.138 94.4868 296.377 91.6914 296.993C88.7727 298.179 88.9862 313.224 90.6948 316.973C91.8338 319.346 97.4104 318.682 100.187 318.492C100.372 318.474 100.542 318.385 100.662 318.243C100.781 318.101 100.841 317.918 100.828 317.733Z" fill="url(#paint12_linear_70_6083)"/>
<path fill-rule="evenodd" clip-rule="evenodd" d="M118.246 306.247C117.641 308.437 117.641 310.749 118.246 312.939C118.246 313.153 118.331 313.358 118.482 313.509C118.633 313.661 118.839 313.746 119.053 313.746C119.267 313.746 119.472 313.661 119.623 313.509C119.774 313.358 119.859 313.153 119.859 312.939C120.785 309.024 120.761 309.261 119.598 306.034C119.533 305.893 119.424 305.778 119.287 305.705C119.151 305.632 118.994 305.606 118.841 305.63C118.689 305.654 118.548 305.727 118.44 305.839C118.333 305.95 118.264 306.094 118.246 306.247Z" fill="url(#paint13_linear_70_6083)"/>
<path d="M159.547 191.882C159.597 192.155 159.742 192.401 159.955 192.579C160.169 192.756 160.437 192.853 160.715 192.853C160.993 192.853 161.261 192.756 161.475 192.579C161.688 192.401 161.833 192.155 161.883 191.882C162.026 189.519 162.644 187.21 163.7 185.091C164.755 182.972 166.227 181.088 168.027 179.551C169.826 178.013 171.917 176.854 174.175 176.143C176.433 175.432 178.81 175.182 181.166 175.41C184.653 176.043 187.787 177.931 189.976 180.718C192.165 183.505 193.257 186.998 193.045 190.535C193.011 190.729 193.02 190.927 193.072 191.117C193.123 191.306 193.215 191.482 193.341 191.632C193.468 191.782 193.625 191.903 193.803 191.986C193.981 192.069 194.175 192.112 194.371 192.112C194.568 192.112 194.762 192.069 194.939 191.986C195.117 191.903 195.275 191.782 195.401 191.632C195.528 191.482 195.62 191.306 195.671 191.117C195.722 190.927 195.731 190.729 195.698 190.535C196.098 186.883 195.376 183.196 193.629 179.963C191.882 176.731 189.192 174.107 185.917 172.44C189.877 169.867 194.351 164.521 193.322 159.849C192.782 158.186 191.901 156.655 190.735 155.353C189.569 154.05 188.144 153.006 186.551 152.286C179.424 148.089 180.176 153.316 182.156 153.316C183.491 153.696 184.722 154.373 185.759 155.296C188.293 157.196 190.867 159.73 189.481 162.581C189.43 162.695 189.363 162.802 189.283 162.898C188.808 162.304 187.462 162.066 186.274 161.552C183.265 160.285 183.423 159.374 183.106 158.384C180.849 151.93 173.683 160.285 168.575 162.106C168.47 159.999 169.093 157.919 170.341 156.218C171.588 154.516 173.383 153.295 175.425 152.761C175.593 152.76 175.759 152.722 175.912 152.651C176.065 152.58 176.201 152.478 176.311 152.35C176.421 152.223 176.503 152.073 176.55 151.912C176.598 151.751 176.611 151.581 176.589 151.414C176.566 151.247 176.509 151.087 176.419 150.944C176.33 150.801 176.212 150.679 176.072 150.586C175.931 150.492 175.773 150.43 175.607 150.402C175.441 150.374 175.271 150.382 175.108 150.425C172.693 150.892 170.468 152.058 168.71 153.778C166.952 155.498 165.738 157.697 165.219 160.102C164.701 162.506 164.9 165.01 165.792 167.302C166.684 169.594 168.23 171.574 170.238 172.995C166.918 174.886 164.172 177.64 162.29 180.965C160.408 184.29 159.46 188.062 159.547 191.882ZM178.355 161.552C181.918 159.651 179.186 162.264 182.592 163.65C184.272 164.313 186.027 164.765 187.818 164.996C182.79 171.728 171.98 173.193 169.01 164.759C172.291 164.229 175.453 163.13 178.355 161.512V161.552Z" fill="url(#paint14_linear_70_6083)"/>
<path d="M225.949 162.106C225.434 157.513 225.672 148.248 222.346 145.674C214.743 139.814 198.074 141.358 187.462 140.923C173.604 140.408 159.112 141.477 145.451 141.873C145.094 141.873 144.752 142.015 144.499 142.267C144.247 142.52 144.105 142.862 144.105 143.219C144.105 143.576 144.247 143.919 144.499 144.171C144.752 144.423 145.094 144.565 145.451 144.565C159.112 144.367 173.445 143.457 187.304 144.367C197.084 144.922 213.714 143.813 219.97 148.842C221.554 150.109 221.593 159.414 221.91 162.66C223.262 174.191 223.369 185.833 222.227 197.386C222.037 201.265 221.44 205.114 220.445 208.868C210.626 214.293 142.601 218.094 138.483 211.006C137.742 208.87 137.277 206.648 137.097 204.394C138.76 204.156 134.444 204.632 155.311 204.394C170.753 204.909 193.679 203.127 213.239 204.117C214.823 204.117 214.941 201.543 213.239 201.424C192.055 199.207 176.138 198.851 141.373 201.781C139.78 201.628 138.175 201.628 136.582 201.781C134.84 187.845 134.84 173.746 136.582 159.81C136.582 157.79 136.938 155.85 137.216 153.712C137.248 151.226 137.581 148.753 138.205 146.347C138.377 146.118 138.46 145.835 138.44 145.55C138.42 145.265 138.297 144.997 138.095 144.794C137.893 144.592 137.625 144.47 137.339 144.45C137.054 144.429 136.771 144.513 136.542 144.684C134.879 146.347 135.196 151.613 134.919 153.474C134.642 155.335 134.365 157.434 134.127 159.691C132.573 170.798 132.083 182.028 132.662 193.228C132.784 199.79 133.675 206.315 135.315 212.67C138.522 218.49 158.716 218.886 165.566 218.965C163.349 224.232 160.577 229.062 163.19 231.953C165.375 233.559 168.044 234.369 170.753 234.249C183.107 235.239 184.295 235.833 194.233 232.982C194.765 232.738 195.225 232.363 195.571 231.892C195.918 231.421 196.139 230.87 196.213 230.289C196.118 226.054 195.218 221.874 193.56 217.975C201.849 217.425 210.083 216.233 218.188 214.412C223.93 212.828 224.88 211.284 225.632 206.77C227.914 191.977 228.021 176.93 225.949 162.106ZM192.333 229.419C182.671 231.319 180.454 230.091 170.951 229.854C164.061 229.775 164.457 230.884 168.021 219.005C175.94 219.005 183.859 218.688 191.105 218.134C192.059 221.857 192.472 225.697 192.333 229.537V229.419Z" fill="#020202"/>
<path d="M55.2422 94.7522C77.371 62.3635 112.024 38.5707 153.706 31.221C188.93 25.0101 223.452 31.5502 252.539 47.5255M29.0302 173.533C28.5868 184.24 29.2834 195.16 31.2209 206.148C36.0327 233.437 47.8926 257.714 64.5985 277.435M139.588 325.476C160.608 331.317 183.23 332.674 206.148 328.633C239.802 322.699 268.873 306.046 290.471 282.804M329.594 200.246C331.639 185.159 331.418 169.503 328.633 153.706C326.416 141.135 322.704 129.203 317.711 118.061" stroke="#ADBCCE" stroke-width="2" stroke-dasharray="10 5"/>
<defs>
<linearGradient id="paint0_linear_70_6083" x1="271.001" y1="77.3754" x2="273.248" y2="77.3754" gradientUnits="userSpaceOnUse">
<stop stop-color="#6BA1E6"/>
<stop offset="1" stop-color="#004DAD"/>
</linearGradient>
<linearGradient id="paint1_linear_70_6083" x1="271.352" y1="89.6192" x2="273.491" y2="89.6192" gradientUnits="userSpaceOnUse">
<stop stop-color="#6BA1E6"/>
<stop offset="1" stop-color="#004DAD"/>
</linearGradient>
<linearGradient id="paint2_linear_70_6083" x1="291.501" y1="90.2747" x2="293.73" y2="90.2747" gradientUnits="userSpaceOnUse">
<stop stop-color="#6BA1E6"/>
<stop offset="1" stop-color="#004DAD"/>
</linearGradient>
<linearGradient id="paint3_linear_70_6083" x1="291.13" y1="77.5659" x2="293.418" y2="77.5659" gradientUnits="userSpaceOnUse">
<stop stop-color="#6BA1E6"/>
<stop offset="1" stop-color="#004DAD"/>
</linearGradient>
<linearGradient id="paint4_linear_70_6083" x1="284.854" y1="68.4695" x2="291.571" y2="68.4695" gradientUnits="userSpaceOnUse">
<stop stop-color="#6BA1E6"/>
<stop offset="1" stop-color="#004DAD"/>
</linearGradient>
<linearGradient id="paint5_linear_70_6083" x1="285.486" y1="100.311" x2="293.552" y2="100.311" gradientUnits="userSpaceOnUse">
<stop stop-color="#6BA1E6"/>
<stop offset="1" stop-color="#004DAD"/>
</linearGradient>
<linearGradient id="paint6_linear_70_6083" x1="272.856" y1="68.2077" x2="281.235" y2="68.2077" gradientUnits="userSpaceOnUse">
<stop stop-color="#6BA1E6"/>
<stop offset="1" stop-color="#004DAD"/>
</linearGradient>
<linearGradient id="paint7_linear_70_6083" x1="272.591" y1="101.033" x2="281.285" y2="101.033" gradientUnits="userSpaceOnUse">
<stop stop-color="#6BA1E6"/>
<stop offset="1" stop-color="#004DAD"/>
</linearGradient>
<linearGradient id="paint8_linear_70_6083" x1="40.8739" y1="113.198" x2="57.5746" y2="113.198" gradientUnits="userSpaceOnUse">
<stop stop-color="#6BA1E6"/>
<stop offset="1" stop-color="#004DAD"/>
</linearGradient>
<linearGradient id="paint9_linear_70_6083" x1="40.5104" y1="140.427" x2="56.5531" y2="140.427" gradientUnits="userSpaceOnUse">
<stop stop-color="#6BA1E6"/>
<stop offset="1" stop-color="#004DAD"/>
</linearGradient>
<linearGradient id="paint10_linear_70_6083" x1="293.757" y1="231.03" x2="316.137" y2="231.03" gradientUnits="userSpaceOnUse">
<stop stop-color="#6BA1E6"/>
<stop offset="1" stop-color="#004DAD"/>
</linearGradient>
<linearGradient id="paint11_linear_70_6083" x1="316.436" y1="261.248" x2="333.322" y2="261.248" gradientUnits="userSpaceOnUse">
<stop stop-color="#6BA1E6"/>
<stop offset="1" stop-color="#004DAD"/>
</linearGradient>
<linearGradient id="paint12_linear_70_6083" x1="90.0145" y1="307.482" x2="100.448" y2="307.482" gradientUnits="userSpaceOnUse">
<stop stop-color="#6BA1E6"/>
<stop offset="1" stop-color="#004DAD"/>
</linearGradient>
<linearGradient id="paint13_linear_70_6083" x1="117.926" y1="309.683" x2="120.382" y2="309.683" gradientUnits="userSpaceOnUse">
<stop stop-color="#6BA1E6"/>
<stop offset="1" stop-color="#004DAD"/>
</linearGradient>
<linearGradient id="paint14_linear_70_6083" x1="161.325" y1="171.62" x2="194.022" y2="171.62" gradientUnits="userSpaceOnUse">
<stop stop-color="#E6846A"/>
<stop offset="1" stop-color="#AC2400"/>
</linearGradient>
</defs>
</svg>
